<svg width="631" height="427" viewBox="0 0 631 427" fill="none" xmlns="http://www.w3.org/2000/svg">
<path d="M31 406.5H611" stroke="#CCCCCC" stroke-dasharray="4 2"/>
<path d="M31 306.75H611" stroke="#CCCCCC" stroke-dasharray="4 2"/>
<path d="M31 207H611" stroke="#CCCCCC" stroke-dasharray="4 2"/>
<path d="M31 107.25H611" stroke="#CCCCCC" stroke-dasharray="4 2"/>
<path d="M31 7.5H611" stroke="#CCCCCC" stroke-dasharray="4 2"/>
<path d="M31.5 7V407" stroke="#CCCCCC" stroke-dasharray="4 2"/>
<path d="M128 7V407" stroke="#CCCCCC" stroke-dasharray="4 2"/>
<path d="M224.5 7V407" stroke="#CCCCCC" stroke-dasharray="4 2"/>
<path d="M321 7V407" stroke="#CCCCCC" stroke-dasharray="4 2"/>
<path d="M417.5 7V407" stroke="#CCCCCC" stroke-dasharray="4 2"/>
<path d="M514 7V407" stroke="#CCCCCC" stroke-dasharray="4 2"/>
<path d="M610.5 7V407" stroke="#CCCCCC" stroke-dasharray="4 2"/>
<path d="M20.3145 405.055V406.355C20.3145 407.055 20.252 407.645 20.127 408.125C20.002 408.605 19.8223 408.992 19.5879 409.285C19.3535 409.578 19.0703 409.791 18.7383 409.924C18.4102 410.053 18.0391 410.117 17.625 410.117C17.2969 410.117 16.9941 410.076 16.7168 409.994C16.4395 409.912 16.1895 409.781 15.9668 409.602C15.748 409.418 15.5605 409.18 15.4043 408.887C15.248 408.594 15.1289 408.238 15.0469 407.82C14.9648 407.402 14.9238 406.914 14.9238 406.355V405.055C14.9238 404.355 14.9863 403.77 15.1113 403.297C15.2402 402.824 15.4219 402.445 15.6562 402.16C15.8906 401.871 16.1719 401.664 16.5 401.539C16.832 401.414 17.2031 401.352 17.6133 401.352C17.9453 401.352 18.25 401.393 18.5273 401.475C18.8086 401.553 19.0586 401.68 19.2773 401.855C19.4961 402.027 19.6816 402.258 19.834 402.547C19.9902 402.832 20.1094 403.182 20.1914 403.596C20.2734 404.01 20.3145 404.496 20.3145 405.055ZM19.2246 406.531V404.873C19.2246 404.49 19.2012 404.154 19.1543 403.865C19.1113 403.572 19.0469 403.322 18.9609 403.115C18.875 402.908 18.7656 402.74 18.6328 402.611C18.5039 402.482 18.3535 402.389 18.1816 402.33C18.0137 402.268 17.8242 402.236 17.6133 402.236C17.3555 402.236 17.127 402.285 16.9277 402.383C16.7285 402.477 16.5605 402.627 16.4238 402.834C16.291 403.041 16.1895 403.312 16.1191 403.648C16.0488 403.984 16.0137 404.393 16.0137 404.873V406.531C16.0137 406.914 16.0352 407.252 16.0781 407.545C16.125 407.838 16.1934 408.092 16.2832 408.307C16.373 408.518 16.4824 408.691 16.6113 408.828C16.7402 408.965 16.8887 409.066 17.0566 409.133C17.2285 409.195 17.418 409.227 17.625 409.227C17.8906 409.227 18.123 409.176 18.3223 409.074C18.5215 408.973 18.6875 408.814 18.8203 408.6C18.957 408.381 19.0586 408.102 19.125 407.762C19.1914 407.418 19.2246 407.008 19.2246 406.531Z" fill="#333333"/>
<path d="M13.7988 309.359V310.25H8.21484V309.471L11.0098 306.359C11.3535 305.977 11.6191 305.652 11.8066 305.387C11.998 305.117 12.1309 304.877 12.2051 304.666C12.2832 304.451 12.3223 304.232 12.3223 304.01C12.3223 303.729 12.2637 303.475 12.1465 303.248C12.0332 303.018 11.8652 302.834 11.6426 302.697C11.4199 302.561 11.1504 302.492 10.834 302.492C10.4551 302.492 10.1387 302.566 9.88477 302.715C9.63477 302.859 9.44727 303.062 9.32227 303.324C9.19727 303.586 9.13477 303.887 9.13477 304.227H8.05078C8.05078 303.746 8.15625 303.307 8.36719 302.908C8.57812 302.51 8.89062 302.193 9.30469 301.959C9.71875 301.721 10.2285 301.602 10.834 301.602C11.373 301.602 11.834 301.697 12.2168 301.889C12.5996 302.076 12.8926 302.342 13.0957 302.686C13.3027 303.025 13.4062 303.424 13.4062 303.881C13.4062 304.131 13.3633 304.385 13.2773 304.643C13.1953 304.896 13.0801 305.15 12.9316 305.404C12.7871 305.658 12.6172 305.908 12.4219 306.154C12.2305 306.4 12.0254 306.643 11.8066 306.881L9.52148 309.359H13.7988ZM16.3301 306.189L15.4629 305.967L15.8906 301.719H20.2676V302.721H16.8105L16.5527 305.041C16.709 304.951 16.9062 304.867 17.1445 304.789C17.3867 304.711 17.6641 304.672 17.9766 304.672C18.3711 304.672 18.7246 304.74 19.0371 304.877C19.3496 305.01 19.6152 305.201 19.834 305.451C20.0566 305.701 20.2266 306.002 20.3438 306.354C20.4609 306.705 20.5195 307.098 20.5195 307.531C20.5195 307.941 20.4629 308.318 20.3496 308.662C20.2402 309.006 20.0742 309.307 19.8516 309.564C19.6289 309.818 19.3477 310.016 19.0078 310.156C18.6719 310.297 18.2754 310.367 17.8184 310.367C17.4746 310.367 17.1484 310.32 16.8398 310.227C16.5352 310.129 16.2617 309.982 16.0195 309.787C15.7812 309.588 15.5859 309.342 15.4336 309.049C15.2852 308.752 15.1914 308.404 15.1523 308.006H16.1836C16.2305 308.326 16.3242 308.596 16.4648 308.814C16.6055 309.033 16.7891 309.199 17.0156 309.312C17.2461 309.422 17.5137 309.477 17.8184 309.477C18.0762 309.477 18.3047 309.432 18.5039 309.342C18.7031 309.252 18.8711 309.123 19.0078 308.955C19.1445 308.787 19.248 308.584 19.3184 308.346C19.3926 308.107 19.4297 307.84 19.4297 307.543C19.4297 307.273 19.3926 307.023 19.3184 306.793C19.2441 306.562 19.1328 306.361 18.9844 306.189C18.8398 306.018 18.6621 305.885 18.4512 305.791C18.2402 305.693 17.998 305.645 17.7246 305.645C17.3613 305.645 17.0859 305.693 16.8984 305.791C16.7148 305.889 16.5254 306.021 16.3301 306.189Z" fill="#333333"/>
<path d="M9.58008 206.439L8.71289 206.217L9.14062 201.969H13.5176V202.971H10.0605L9.80273 205.291C9.95898 205.201 10.1562 205.117 10.3945 205.039C10.6367 204.961 10.9141 204.922 11.2266 204.922C11.6211 204.922 11.9746 204.99 12.2871 205.127C12.5996 205.26 12.8652 205.451 13.084 205.701C13.3066 205.951 13.4766 206.252 13.5938 206.604C13.7109 206.955 13.7695 207.348 13.7695 207.781C13.7695 208.191 13.7129 208.568 13.5996 208.912C13.4902 209.256 13.3242 209.557 13.1016 209.814C12.8789 210.068 12.5977 210.266 12.2578 210.406C11.9219 210.547 11.5254 210.617 11.0684 210.617C10.7246 210.617 10.3984 210.57 10.0898 210.477C9.78516 210.379 9.51172 210.232 9.26953 210.037C9.03125 209.838 8.83594 209.592 8.68359 209.299C8.53516 209.002 8.44141 208.654 8.40234 208.256H9.43359C9.48047 208.576 9.57422 208.846 9.71484 209.064C9.85547 209.283 10.0391 209.449 10.2656 209.562C10.4961 209.672 10.7637 209.727 11.0684 209.727C11.3262 209.727 11.5547 209.682 11.7539 209.592C11.9531 209.502 12.1211 209.373 12.2578 209.205C12.3945 209.037 12.498 208.834 12.5684 208.596C12.6426 208.357 12.6797 208.09 12.6797 207.793C12.6797 207.523 12.6426 207.273 12.5684 207.043C12.4941 206.812 12.3828 206.611 12.2344 206.439C12.0898 206.268 11.9121 206.135 11.7012 206.041C11.4902 205.943 11.248 205.895 10.9746 205.895C10.6113 205.895 10.3359 205.943 10.1484 206.041C9.96484 206.139 9.77539 206.271 9.58008 206.439ZM20.3145 205.555V206.855C20.3145 207.555 20.252 208.145 20.127 208.625C20.002 209.105 19.8223 209.492 19.5879 209.785C19.3535 210.078 19.0703 210.291 18.7383 210.424C18.4102 210.553 18.0391 210.617 17.625 210.617C17.2969 210.617 16.9941 210.576 16.7168 210.494C16.4395 210.412 16.1895 210.281 15.9668 210.102C15.748 209.918 15.5605 209.68 15.4043 209.387C15.248 209.094 15.1289 208.738 15.0469 208.32C14.9648 207.902 14.9238 207.414 14.9238 206.855V205.555C14.9238 204.855 14.9863 204.27 15.1113 203.797C15.2402 203.324 15.4219 202.945 15.6562 202.66C15.8906 202.371 16.1719 202.164 16.5 202.039C16.832 201.914 17.2031 201.852 17.6133 201.852C17.9453 201.852 18.25 201.893 18.5273 201.975C18.8086 202.053 19.0586 202.18 19.2773 202.355C19.4961 202.527 19.6816 202.758 19.834 203.047C19.9902 203.332 20.1094 203.682 20.1914 204.096C20.2734 204.51 20.3145 204.996 20.3145 205.555ZM19.2246 207.031V205.373C19.2246 204.99 19.2012 204.654 19.1543 204.365C19.1113 204.072 19.0469 203.822 18.9609 203.615C18.875 203.408 18.7656 203.24 18.6328 203.111C18.5039 202.982 18.3535 202.889 18.1816 202.83C18.0137 202.768 17.8242 202.736 17.6133 202.736C17.3555 202.736 17.127 202.785 16.9277 202.883C16.7285 202.977 16.5605 203.127 16.4238 203.334C16.291 203.541 16.1895 203.812 16.1191 204.148C16.0488 204.484 16.0137 204.893 16.0137 205.373V207.031C16.0137 207.414 16.0352 207.752 16.0781 208.045C16.125 208.338 16.1934 208.592 16.2832 208.807C16.373 209.018 16.4824 209.191 16.6113 209.328C16.7402 209.465 16.8887 209.566 17.0566 209.633C17.2285 209.695 17.418 209.727 17.625 209.727C17.8906 209.727 18.123 209.676 18.3223 209.574C18.5215 209.473 18.6875 209.314 18.8203 209.1C18.957 208.881 19.0586 208.602 19.125 208.262C19.1914 207.918 19.2246 207.508 19.2246 207.031Z" fill="#333333"/>
<path d="M13.7227 102.219V102.828L10.1895 110.75H9.04688L12.5742 103.109H7.95703V102.219H13.7227ZM16.3301 106.689L15.4629 106.467L15.8906 102.219H20.2676V103.221H16.8105L16.5527 105.541C16.709 105.451 16.9062 105.367 17.1445 105.289C17.3867 105.211 17.6641 105.172 17.9766 105.172C18.3711 105.172 18.7246 105.24 19.0371 105.377C19.3496 105.51 19.6152 105.701 19.834 105.951C20.0566 106.201 20.2266 106.502 20.3438 106.854C20.4609 107.205 20.5195 107.598 20.5195 108.031C20.5195 108.441 20.4629 108.818 20.3496 109.162C20.2402 109.506 20.0742 109.807 19.8516 110.064C19.6289 110.318 19.3477 110.516 19.0078 110.656C18.6719 110.797 18.2754 110.867 17.8184 110.867C17.4746 110.867 17.1484 110.82 16.8398 110.727C16.5352 110.629 16.2617 110.482 16.0195 110.287C15.7812 110.088 15.5859 109.842 15.4336 109.549C15.2852 109.252 15.1914 108.904 15.1523 108.506H16.1836C16.2305 108.826 16.3242 109.096 16.4648 109.314C16.6055 109.533 16.7891 109.699 17.0156 109.812C17.2461 109.922 17.5137 109.977 17.8184 109.977C18.0762 109.977 18.3047 109.932 18.5039 109.842C18.7031 109.752 18.8711 109.623 19.0078 109.455C19.1445 109.287 19.248 109.084 19.3184 108.846C19.3926 108.607 19.4297 108.34 19.4297 108.043C19.4297 107.773 19.3926 107.523 19.3184 107.293C19.2441 107.062 19.1328 106.861 18.9844 106.689C18.8398 106.518 18.6621 106.385 18.4512 106.291C18.2402 106.193 17.998 106.145 17.7246 106.145C17.3613 106.145 17.0859 106.193 16.8984 106.291C16.7148 106.389 16.5254 106.521 16.3301 106.689Z" fill="#333333"/>
<path d="M5.02148 2.42188V11H3.9375V3.77539L1.75195 4.57227V3.59375L4.85156 2.42188H5.02148ZM13.5645 6.05469V7.35547C13.5645 8.05469 13.502 8.64453 13.377 9.125C13.252 9.60547 13.0723 9.99219 12.8379 10.2852C12.6035 10.5781 12.3203 10.791 11.9883 10.9238C11.6602 11.0527 11.2891 11.1172 10.875 11.1172C10.5469 11.1172 10.2441 11.0762 9.9668 10.9941C9.68945 10.9121 9.43945 10.7812 9.2168 10.6016C8.99805 10.418 8.81055 10.1797 8.6543 9.88672C8.49805 9.59375 8.37891 9.23828 8.29688 8.82031C8.21484 8.40234 8.17383 7.91406 8.17383 7.35547V6.05469C8.17383 5.35547 8.23633 4.76953 8.36133 4.29688C8.49023 3.82422 8.67188 3.44531 8.90625 3.16016C9.14062 2.87109 9.42188 2.66406 9.75 2.53906C10.082 2.41406 10.4531 2.35156 10.8633 2.35156C11.1953 2.35156 11.5 2.39258 11.7773 2.47461C12.0586 2.55273 12.3086 2.67969 12.5273 2.85547C12.7461 3.02734 12.9316 3.25781 13.084 3.54688C13.2402 3.83203 13.3594 4.18164 13.4414 4.5957C13.5234 5.00977 13.5645 5.49609 13.5645 6.05469ZM12.4746 7.53125V5.87305C12.4746 5.49023 12.4512 5.1543 12.4043 4.86523C12.3613 4.57227 12.2969 4.32227 12.2109 4.11523C12.125 3.9082 12.0156 3.74023 11.8828 3.61133C11.7539 3.48242 11.6035 3.38867 11.4316 3.33008C11.2637 3.26758 11.0742 3.23633 10.8633 3.23633C10.6055 3.23633 10.377 3.28516 10.1777 3.38281C9.97852 3.47656 9.81055 3.62695 9.67383 3.83398C9.54102 4.04102 9.43945 4.3125 9.36914 4.64844C9.29883 4.98438 9.26367 5.39258 9.26367 5.87305V7.53125C9.26367 7.91406 9.28516 8.25195 9.32812 8.54492C9.375 8.83789 9.44336 9.0918 9.5332 9.30664C9.62305 9.51758 9.73242 9.69141 9.86133 9.82812C9.99023 9.96484 10.1387 10.0664 10.3066 10.1328C10.4785 10.1953 10.668 10.2266 10.875 10.2266C11.1406 10.2266 11.373 10.1758 11.5723 10.0742C11.7715 9.97266 11.9375 9.81445 12.0703 9.59961C12.207 9.38086 12.3086 9.10156 12.375 8.76172C12.4414 8.41797 12.4746 8.00781 12.4746 7.53125ZM20.3145 6.05469V7.35547C20.3145 8.05469 20.252 8.64453 20.127 9.125C20.002 9.60547 19.8223 9.99219 19.5879 10.2852C19.3535 10.5781 19.0703 10.791 18.7383 10.9238C18.4102 11.0527 18.0391 11.1172 17.625 11.1172C17.2969 11.1172 16.9941 11.0762 16.7168 10.9941C16.4395 10.9121 16.1895 10.7812 15.9668 10.6016C15.748 10.418 15.5605 10.1797 15.4043 9.88672C15.248 9.59375 15.1289 9.23828 15.0469 8.82031C14.9648 8.40234 14.9238 7.91406 14.9238 7.35547V6.05469C14.9238 5.35547 14.9863 4.76953 15.1113 4.29688C15.2402 3.82422 15.4219 3.44531 15.6562 3.16016C15.8906 2.87109 16.1719 2.66406 16.5 2.53906C16.832 2.41406 17.2031 2.35156 17.6133 2.35156C17.9453 2.35156 18.25 2.39258 18.5273 2.47461C18.8086 2.55273 19.0586 2.67969 19.2773 2.85547C19.4961 3.02734 19.6816 3.25781 19.834 3.54688C19.9902 3.83203 20.1094 4.18164 20.1914 4.5957C20.2734 5.00977 20.3145 5.49609 20.3145 6.05469ZM19.2246 7.53125V5.87305C19.2246 5.49023 19.2012 5.1543 19.1543 4.86523C19.1113 4.57227 19.0469 4.32227 18.9609 4.11523C18.875 3.9082 18.7656 3.74023 18.6328 3.61133C18.5039 3.48242 18.3535 3.38867 18.1816 3.33008C18.0137 3.26758 17.8242 3.23633 17.6133 3.23633C17.3555 3.23633 17.127 3.28516 16.9277 3.38281C16.7285 3.47656 16.5605 3.62695 16.4238 3.83398C16.291 4.04102 16.1895 4.3125 16.1191 4.64844C16.0488 4.98438 16.0137 5.39258 16.0137 5.87305V7.53125C16.0137 7.91406 16.0352 8.25195 16.0781 8.54492C16.125 8.83789 16.1934 9.0918 16.2832 9.30664C16.373 9.51758 16.4824 9.69141 16.6113 9.82812C16.7402 9.96484 16.8887 10.0664 17.0566 10.1328C17.2285 10.1953 17.418 10.2266 17.625 10.2266C17.8906 10.2266 18.123 10.1758 18.3223 10.0742C18.5215 9.97266 18.6875 9.81445 18.8203 9.59961C18.957 9.38086 19.0586 9.10156 19.125 8.76172C19.1914 8.41797 19.2246 8.00781 19.2246 7.53125Z" fill="#333333"/>
<path d="M11.4258 415.469H12.5215L15.3164 422.424L18.1055 415.469H19.207L15.7383 424H14.8828L11.4258 415.469ZM11.0684 415.469H12.0352L12.1934 420.672V424H11.0684V415.469ZM18.5918 415.469H19.5586V424H18.4336V420.672L18.5918 415.469ZM21.0938 420.9V420.766C21.0938 420.309 21.1602 419.885 21.293 419.494C21.4258 419.1 21.6172 418.758 21.8672 418.469C22.1172 418.176 22.4199 417.949 22.7754 417.789C23.1309 417.625 23.5293 417.543 23.9707 417.543C24.416 417.543 24.8164 417.625 25.1719 417.789C25.5312 417.949 25.8359 418.176 26.0859 418.469C26.3398 418.758 26.5332 419.1 26.666 419.494C26.7988 419.885 26.8652 420.309 26.8652 420.766V420.9C26.8652 421.357 26.7988 421.781 26.666 422.172C26.5332 422.562 26.3398 422.904 26.0859 423.197C25.8359 423.486 25.5332 423.713 25.1777 423.877C24.8262 424.037 24.4277 424.117 23.9824 424.117C23.5371 424.117 23.1367 424.037 22.7812 423.877C22.4258 423.713 22.1211 423.486 21.8672 423.197C21.6172 422.904 21.4258 422.562 21.293 422.172C21.1602 421.781 21.0938 421.357 21.0938 420.9ZM22.1777 420.766V420.9C22.1777 421.217 22.2148 421.516 22.2891 421.797C22.3633 422.074 22.4746 422.32 22.623 422.535C22.7754 422.75 22.9648 422.92 23.1914 423.045C23.418 423.166 23.6816 423.227 23.9824 423.227C24.2793 423.227 24.5391 423.166 24.7617 423.045C24.9883 422.92 25.1758 422.75 25.3242 422.535C25.4727 422.32 25.584 422.074 25.6582 421.797C25.7363 421.516 25.7754 421.217 25.7754 420.9V420.766C25.7754 420.453 25.7363 420.158 25.6582 419.881C25.584 419.6 25.4707 419.352 25.3184 419.137C25.1699 418.918 24.9824 418.746 24.7559 418.621C24.5332 418.496 24.2715 418.434 23.9707 418.434C23.6738 418.434 23.4121 418.496 23.1855 418.621C22.9629 418.746 22.7754 418.918 22.623 419.137C22.4746 419.352 22.3633 419.6 22.2891 419.881C22.2148 420.158 22.1777 420.453 22.1777 420.766ZM29.3086 419.014V424H28.2246V417.66H29.25L29.3086 419.014ZM29.0508 420.59L28.5996 420.572C28.6035 420.139 28.668 419.738 28.793 419.371C28.918 419 29.0938 418.678 29.3203 418.404C29.5469 418.131 29.8164 417.92 30.1289 417.771C30.4453 417.619 30.7949 417.543 31.1777 417.543C31.4902 417.543 31.7715 417.586 32.0215 417.672C32.2715 417.754 32.4844 417.887 32.6602 418.07C32.8398 418.254 32.9766 418.492 33.0703 418.785C33.1641 419.074 33.2109 419.428 33.2109 419.846V424H32.1211V419.834C32.1211 419.502 32.0723 419.236 31.9746 419.037C31.877 418.834 31.7344 418.688 31.5469 418.598C31.3594 418.504 31.1289 418.457 30.8555 418.457C30.5859 418.457 30.3398 418.514 30.1172 418.627C29.8984 418.74 29.709 418.896 29.5488 419.096C29.3926 419.295 29.2695 419.523 29.1797 419.781C29.0938 420.035 29.0508 420.305 29.0508 420.59ZM38.8535 422.77V415H39.9434V424H38.9473L38.8535 422.77ZM34.5879 420.9V420.777C34.5879 420.293 34.6465 419.854 34.7637 419.459C34.8848 419.061 35.0547 418.719 35.2734 418.434C35.4961 418.148 35.7598 417.93 36.0645 417.777C36.373 417.621 36.7168 417.543 37.0957 417.543C37.4941 417.543 37.8418 417.613 38.1387 417.754C38.4395 417.891 38.6934 418.092 38.9004 418.357C39.1113 418.619 39.2773 418.936 39.3984 419.307C39.5195 419.678 39.6035 420.098 39.6504 420.566V421.105C39.6074 421.57 39.5234 421.988 39.3984 422.359C39.2773 422.73 39.1113 423.047 38.9004 423.309C38.6934 423.57 38.4395 423.771 38.1387 423.912C37.8379 424.049 37.4863 424.117 37.084 424.117C36.7129 424.117 36.373 424.037 36.0645 423.877C35.7598 423.717 35.4961 423.492 35.2734 423.203C35.0547 422.914 34.8848 422.574 34.7637 422.184C34.6465 421.789 34.5879 421.361 34.5879 420.9ZM35.6777 420.777V420.9C35.6777 421.217 35.709 421.514 35.7715 421.791C35.8379 422.068 35.9395 422.312 36.0762 422.523C36.2129 422.734 36.3867 422.9 36.5977 423.021C36.8086 423.139 37.0605 423.197 37.3535 423.197C37.7129 423.197 38.0078 423.121 38.2383 422.969C38.4727 422.816 38.6602 422.615 38.8008 422.365C38.9414 422.115 39.0508 421.844 39.1289 421.551V420.139C39.082 419.924 39.0137 419.717 38.9238 419.518C38.8379 419.314 38.7246 419.135 38.584 418.979C38.4473 418.818 38.2773 418.691 38.0742 418.598C37.875 418.504 37.6387 418.457 37.3652 418.457C37.0684 418.457 36.8125 418.52 36.5977 418.645C36.3867 418.766 36.2129 418.934 36.0762 419.148C35.9395 419.359 35.8379 419.605 35.7715 419.887C35.709 420.164 35.6777 420.461 35.6777 420.777ZM45.3691 422.916V419.652C45.3691 419.402 45.3184 419.186 45.2168 419.002C45.1191 418.814 44.9707 418.67 44.7715 418.568C44.5723 418.467 44.3262 418.416 44.0332 418.416C43.7598 418.416 43.5195 418.463 43.3125 418.557C43.1094 418.65 42.9492 418.773 42.832 418.926C42.7188 419.078 42.6621 419.242 42.6621 419.418H41.5781C41.5781 419.191 41.6367 418.967 41.7539 418.744C41.8711 418.521 42.0391 418.32 42.2578 418.141C42.4805 417.957 42.7461 417.812 43.0547 417.707C43.3672 417.598 43.7148 417.543 44.0977 417.543C44.5586 417.543 44.9648 417.621 45.3164 417.777C45.6719 417.934 45.9492 418.17 46.1484 418.486C46.3516 418.799 46.4531 419.191 46.4531 419.664V422.617C46.4531 422.828 46.4707 423.053 46.5059 423.291C46.5449 423.529 46.6016 423.734 46.6758 423.906V424H45.5449C45.4902 423.875 45.4473 423.709 45.416 423.502C45.3848 423.291 45.3691 423.096 45.3691 422.916ZM45.5566 420.156L45.5684 420.918H44.4727C44.1641 420.918 43.8887 420.943 43.6465 420.994C43.4043 421.041 43.2012 421.113 43.0371 421.211C42.873 421.309 42.748 421.432 42.6621 421.58C42.5762 421.725 42.5332 421.895 42.5332 422.09C42.5332 422.289 42.5781 422.471 42.668 422.635C42.7578 422.799 42.8926 422.93 43.0723 423.027C43.2559 423.121 43.4805 423.168 43.7461 423.168C44.0781 423.168 44.3711 423.098 44.625 422.957C44.8789 422.816 45.0801 422.645 45.2285 422.441C45.3809 422.238 45.4629 422.041 45.4746 421.85L45.9375 422.371C45.9102 422.535 45.8359 422.717 45.7148 422.916C45.5938 423.115 45.4316 423.307 45.2285 423.49C45.0293 423.67 44.791 423.82 44.5137 423.941C44.2402 424.059 43.9316 424.117 43.5879 424.117C43.1582 424.117 42.7812 424.033 42.457 423.865C42.1367 423.697 41.8867 423.473 41.707 423.191C41.5312 422.906 41.4434 422.588 41.4434 422.236C41.4434 421.896 41.5098 421.598 41.6426 421.34C41.7754 421.078 41.9668 420.861 42.2168 420.689C42.4668 420.514 42.7676 420.381 43.1191 420.291C43.4707 420.201 43.8633 420.156 44.2969 420.156H45.5566ZM49.8457 423.344L51.6094 417.66H52.7695L50.2266 424.979C50.168 425.135 50.0898 425.303 49.9922 425.482C49.8984 425.666 49.7773 425.84 49.6289 426.004C49.4805 426.168 49.3008 426.301 49.0898 426.402C48.8828 426.508 48.6348 426.561 48.3457 426.561C48.2598 426.561 48.1504 426.549 48.0176 426.525C47.8848 426.502 47.791 426.482 47.7363 426.467L47.7305 425.588C47.7617 425.592 47.8105 425.596 47.877 425.6C47.9473 425.607 47.9961 425.611 48.0234 425.611C48.2695 425.611 48.4785 425.578 48.6504 425.512C48.8223 425.449 48.9668 425.342 49.084 425.189C49.2051 425.041 49.3086 424.836 49.3945 424.574L49.8457 423.344ZM48.5508 417.66L50.1973 422.582L50.4785 423.725L49.6992 424.123L47.3672 417.66H48.5508Z" fill="#333333"/>
<path d="M109.973 415.469V424H108.86V415.469H109.973ZM112.716 415.469V416.395H106.124V415.469H112.716ZM117.134 422.535V417.66H118.223V424H117.186L117.134 422.535ZM117.339 421.199L117.79 421.188C117.79 421.609 117.745 422 117.655 422.359C117.569 422.715 117.428 423.023 117.233 423.285C117.038 423.547 116.782 423.752 116.466 423.9C116.149 424.045 115.764 424.117 115.311 424.117C115.003 424.117 114.719 424.072 114.462 423.982C114.208 423.893 113.989 423.754 113.805 423.566C113.622 423.379 113.479 423.135 113.378 422.834C113.28 422.533 113.231 422.172 113.231 421.75V417.66H114.315V421.762C114.315 422.047 114.346 422.283 114.409 422.471C114.475 422.654 114.563 422.801 114.673 422.91C114.786 423.016 114.911 423.09 115.048 423.133C115.188 423.176 115.333 423.197 115.481 423.197C115.942 423.197 116.307 423.109 116.577 422.934C116.846 422.754 117.04 422.514 117.157 422.213C117.278 421.908 117.339 421.57 117.339 421.199ZM122.507 424.117C122.065 424.117 121.665 424.043 121.305 423.895C120.95 423.742 120.643 423.529 120.385 423.256C120.132 422.982 119.936 422.658 119.8 422.283C119.663 421.908 119.594 421.498 119.594 421.053V420.807C119.594 420.291 119.671 419.832 119.823 419.43C119.975 419.023 120.182 418.68 120.444 418.398C120.706 418.117 121.003 417.904 121.335 417.76C121.667 417.615 122.01 417.543 122.366 417.543C122.819 417.543 123.21 417.621 123.538 417.777C123.87 417.934 124.141 418.152 124.352 418.434C124.563 418.711 124.719 419.039 124.821 419.418C124.923 419.793 124.973 420.203 124.973 420.648V421.135H120.239V420.25H123.889V420.168C123.874 419.887 123.815 419.613 123.714 419.348C123.616 419.082 123.46 418.863 123.245 418.691C123.03 418.52 122.737 418.434 122.366 418.434C122.12 418.434 121.893 418.486 121.686 418.592C121.479 418.693 121.302 418.846 121.153 419.049C121.005 419.252 120.889 419.5 120.807 419.793C120.725 420.086 120.684 420.424 120.684 420.807V421.053C120.684 421.354 120.725 421.637 120.807 421.902C120.893 422.164 121.016 422.395 121.177 422.594C121.341 422.793 121.538 422.949 121.768 423.062C122.003 423.176 122.268 423.232 122.565 423.232C122.948 423.232 123.272 423.154 123.538 422.998C123.803 422.842 124.036 422.633 124.235 422.371L124.891 422.893C124.755 423.1 124.581 423.297 124.37 423.484C124.159 423.672 123.899 423.824 123.591 423.941C123.286 424.059 122.925 424.117 122.507 424.117ZM129.93 422.318C129.93 422.162 129.895 422.018 129.825 421.885C129.759 421.748 129.62 421.625 129.409 421.516C129.202 421.402 128.889 421.305 128.471 421.223C128.12 421.148 127.802 421.061 127.516 420.959C127.235 420.857 126.995 420.734 126.796 420.59C126.6 420.445 126.45 420.275 126.344 420.08C126.239 419.885 126.186 419.656 126.186 419.395C126.186 419.145 126.241 418.908 126.35 418.686C126.464 418.463 126.622 418.266 126.825 418.094C127.032 417.922 127.28 417.787 127.569 417.689C127.858 417.592 128.18 417.543 128.536 417.543C129.044 417.543 129.477 417.633 129.837 417.812C130.196 417.992 130.471 418.232 130.663 418.533C130.854 418.83 130.95 419.16 130.95 419.523H129.866C129.866 419.348 129.813 419.178 129.708 419.014C129.606 418.846 129.456 418.707 129.257 418.598C129.061 418.488 128.821 418.434 128.536 418.434C128.235 418.434 127.991 418.48 127.803 418.574C127.62 418.664 127.485 418.779 127.399 418.92C127.317 419.061 127.276 419.209 127.276 419.365C127.276 419.482 127.296 419.588 127.335 419.682C127.378 419.771 127.452 419.855 127.557 419.934C127.663 420.008 127.811 420.078 128.003 420.145C128.194 420.211 128.438 420.277 128.735 420.344C129.255 420.461 129.682 420.602 130.018 420.766C130.354 420.93 130.604 421.131 130.768 421.369C130.932 421.607 131.014 421.896 131.014 422.236C131.014 422.514 130.956 422.768 130.839 422.998C130.725 423.229 130.559 423.428 130.341 423.596C130.126 423.76 129.868 423.889 129.567 423.982C129.27 424.072 128.936 424.117 128.565 424.117C128.007 424.117 127.534 424.018 127.147 423.818C126.76 423.619 126.468 423.361 126.268 423.045C126.069 422.729 125.969 422.395 125.969 422.043H127.059C127.075 422.34 127.161 422.576 127.317 422.752C127.473 422.924 127.665 423.047 127.891 423.121C128.118 423.191 128.343 423.227 128.565 423.227C128.862 423.227 129.11 423.188 129.309 423.109C129.512 423.031 129.667 422.924 129.772 422.787C129.878 422.65 129.93 422.494 129.93 422.318ZM136.434 422.77V415H137.524V424H136.528L136.434 422.77ZM132.169 420.9V420.777C132.169 420.293 132.227 419.854 132.344 419.459C132.466 419.061 132.635 418.719 132.854 418.434C133.077 418.148 133.341 417.93 133.645 417.777C133.954 417.621 134.298 417.543 134.677 417.543C135.075 417.543 135.423 417.613 135.719 417.754C136.02 417.891 136.274 418.092 136.481 418.357C136.692 418.619 136.858 418.936 136.979 419.307C137.1 419.678 137.184 420.098 137.231 420.566V421.105C137.188 421.57 137.104 421.988 136.979 422.359C136.858 422.73 136.692 423.047 136.481 423.309C136.274 423.57 136.02 423.771 135.719 423.912C135.419 424.049 135.067 424.117 134.665 424.117C134.294 424.117 133.954 424.037 133.645 423.877C133.341 423.717 133.077 423.492 132.854 423.203C132.635 422.914 132.466 422.574 132.344 422.184C132.227 421.789 132.169 421.361 132.169 420.9ZM133.259 420.777V420.9C133.259 421.217 133.29 421.514 133.352 421.791C133.419 422.068 133.52 422.312 133.657 422.523C133.794 422.734 133.968 422.9 134.178 423.021C134.389 423.139 134.641 423.197 134.934 423.197C135.294 423.197 135.589 423.121 135.819 422.969C136.053 422.816 136.241 422.615 136.382 422.365C136.522 422.115 136.632 421.844 136.71 421.551V420.139C136.663 419.924 136.594 419.717 136.505 419.518C136.419 419.314 136.305 419.135 136.165 418.979C136.028 418.818 135.858 418.691 135.655 418.598C135.456 418.504 135.219 418.457 134.946 418.457C134.649 418.457 134.393 418.52 134.178 418.645C133.968 418.766 133.794 418.934 133.657 419.148C133.52 419.359 133.419 419.605 133.352 419.887C133.29 420.164 133.259 420.461 133.259 420.777ZM142.95 422.916V419.652C142.95 419.402 142.899 419.186 142.798 419.002C142.7 418.814 142.552 418.67 142.352 418.568C142.153 418.467 141.907 418.416 141.614 418.416C141.341 418.416 141.1 418.463 140.893 418.557C140.69 418.65 140.53 418.773 140.413 418.926C140.3 419.078 140.243 419.242 140.243 419.418H139.159C139.159 419.191 139.218 418.967 139.335 418.744C139.452 418.521 139.62 418.32 139.839 418.141C140.061 417.957 140.327 417.812 140.635 417.707C140.948 417.598 141.296 417.543 141.678 417.543C142.139 417.543 142.546 417.621 142.897 417.777C143.253 417.934 143.53 418.17 143.729 418.486C143.932 418.799 144.034 419.191 144.034 419.664V422.617C144.034 422.828 144.052 423.053 144.087 423.291C144.126 423.529 144.182 423.734 144.257 423.906V424H143.126C143.071 423.875 143.028 423.709 142.997 423.502C142.966 423.291 142.95 423.096 142.95 422.916ZM143.137 420.156L143.149 420.918H142.053C141.745 420.918 141.469 420.943 141.227 420.994C140.985 421.041 140.782 421.113 140.618 421.211C140.454 421.309 140.329 421.432 140.243 421.58C140.157 421.725 140.114 421.895 140.114 422.09C140.114 422.289 140.159 422.471 140.249 422.635C140.339 422.799 140.473 422.93 140.653 423.027C140.837 423.121 141.061 423.168 141.327 423.168C141.659 423.168 141.952 423.098 142.206 422.957C142.46 422.816 142.661 422.645 142.809 422.441C142.962 422.238 143.044 422.041 143.055 421.85L143.518 422.371C143.491 422.535 143.417 422.717 143.296 422.916C143.175 423.115 143.012 423.307 142.809 423.49C142.61 423.67 142.372 423.82 142.094 423.941C141.821 424.059 141.512 424.117 141.169 424.117C140.739 424.117 140.362 424.033 140.038 423.865C139.718 423.697 139.468 423.473 139.288 423.191C139.112 422.906 139.024 422.588 139.024 422.236C139.024 421.896 139.091 421.598 139.223 421.34C139.356 421.078 139.548 420.861 139.798 420.689C140.048 420.514 140.348 420.381 140.7 420.291C141.052 420.201 141.444 420.156 141.878 420.156H143.137ZM147.427 423.344L149.19 417.66H150.35L147.807 424.979C147.749 425.135 147.671 425.303 147.573 425.482C147.479 425.666 147.358 425.84 147.21 426.004C147.061 426.168 146.882 426.301 146.671 426.402C146.464 426.508 146.216 426.561 145.927 426.561C145.841 426.561 145.731 426.549 145.598 426.525C145.466 426.502 145.372 426.482 145.317 426.467L145.311 425.588C145.343 425.592 145.391 425.596 145.458 425.6C145.528 425.607 145.577 425.611 145.604 425.611C145.85 425.611 146.059 425.578 146.231 425.512C146.403 425.449 146.548 425.342 146.665 425.189C146.786 425.041 146.889 424.836 146.975 424.574L147.427 423.344ZM146.132 417.66L147.778 422.582L148.059 423.725L147.28 424.123L144.948 417.66H146.132Z" fill="#333333"/>
<path d="M196.224 421.422L197.917 415.469H198.738L198.263 417.783L196.441 424H195.626L196.224 421.422ZM194.472 415.469L195.82 421.305L196.224 424H195.415L193.347 415.469H194.472ZM200.929 421.299L202.247 415.469H203.378L201.316 424H200.507L200.929 421.299ZM198.861 415.469L200.507 421.422L201.105 424H200.29L198.532 417.783L198.052 415.469H198.861ZM206.911 424.117C206.47 424.117 206.07 424.043 205.71 423.895C205.355 423.742 205.048 423.529 204.79 423.256C204.536 422.982 204.341 422.658 204.204 422.283C204.068 421.908 203.999 421.498 203.999 421.053V420.807C203.999 420.291 204.075 419.832 204.228 419.43C204.38 419.023 204.587 418.68 204.849 418.398C205.111 418.117 205.407 417.904 205.74 417.76C206.072 417.615 206.415 417.543 206.771 417.543C207.224 417.543 207.615 417.621 207.943 417.777C208.275 417.934 208.546 418.152 208.757 418.434C208.968 418.711 209.124 419.039 209.226 419.418C209.327 419.793 209.378 420.203 209.378 420.648V421.135H204.644V420.25H208.294V420.168C208.279 419.887 208.22 419.613 208.118 419.348C208.021 419.082 207.865 418.863 207.65 418.691C207.435 418.52 207.142 418.434 206.771 418.434C206.525 418.434 206.298 418.486 206.091 418.592C205.884 418.693 205.706 418.846 205.558 419.049C205.409 419.252 205.294 419.5 205.212 419.793C205.13 420.086 205.089 420.424 205.089 420.807V421.053C205.089 421.354 205.13 421.637 205.212 421.902C205.298 422.164 205.421 422.395 205.581 422.594C205.745 422.793 205.943 422.949 206.173 423.062C206.407 423.176 206.673 423.232 206.97 423.232C207.353 423.232 207.677 423.154 207.943 422.998C208.208 422.842 208.441 422.633 208.64 422.371L209.296 422.893C209.159 423.1 208.986 423.297 208.775 423.484C208.564 423.672 208.304 423.824 207.995 423.941C207.691 424.059 207.329 424.117 206.911 424.117ZM214.64 422.77V415H215.73V424H214.734L214.64 422.77ZM210.374 420.9V420.777C210.374 420.293 210.433 419.854 210.55 419.459C210.671 419.061 210.841 418.719 211.06 418.434C211.282 418.148 211.546 417.93 211.851 417.777C212.159 417.621 212.503 417.543 212.882 417.543C213.281 417.543 213.628 417.613 213.925 417.754C214.226 417.891 214.48 418.092 214.687 418.357C214.898 418.619 215.064 418.936 215.185 419.307C215.306 419.678 215.39 420.098 215.437 420.566V421.105C215.394 421.57 215.31 421.988 215.185 422.359C215.064 422.73 214.898 423.047 214.687 423.309C214.48 423.57 214.226 423.771 213.925 423.912C213.624 424.049 213.273 424.117 212.87 424.117C212.499 424.117 212.159 424.037 211.851 423.877C211.546 423.717 211.282 423.492 211.06 423.203C210.841 422.914 210.671 422.574 210.55 422.184C210.433 421.789 210.374 421.361 210.374 420.9ZM211.464 420.777V420.9C211.464 421.217 211.495 421.514 211.558 421.791C211.624 422.068 211.726 422.312 211.863 422.523C211.999 422.734 212.173 422.9 212.384 423.021C212.595 423.139 212.847 423.197 213.14 423.197C213.499 423.197 213.794 423.121 214.025 422.969C214.259 422.816 214.447 422.615 214.587 422.365C214.728 422.115 214.837 421.844 214.915 421.551V420.139C214.868 419.924 214.8 419.717 214.71 419.518C214.624 419.314 214.511 419.135 214.37 418.979C214.234 418.818 214.064 418.691 213.861 418.598C213.661 418.504 213.425 418.457 213.152 418.457C212.855 418.457 212.599 418.52 212.384 418.645C212.173 418.766 211.999 418.934 211.863 419.148C211.726 419.359 211.624 419.605 211.558 419.887C211.495 420.164 211.464 420.461 211.464 420.777ZM218.501 419.014V424H217.417V417.66H218.443L218.501 419.014ZM218.243 420.59L217.792 420.572C217.796 420.139 217.861 419.738 217.986 419.371C218.111 419 218.286 418.678 218.513 418.404C218.74 418.131 219.009 417.92 219.322 417.771C219.638 417.619 219.988 417.543 220.37 417.543C220.683 417.543 220.964 417.586 221.214 417.672C221.464 417.754 221.677 417.887 221.853 418.07C222.032 418.254 222.169 418.492 222.263 418.785C222.357 419.074 222.404 419.428 222.404 419.846V424H221.314V419.834C221.314 419.502 221.265 419.236 221.167 419.037C221.07 418.834 220.927 418.688 220.74 418.598C220.552 418.504 220.322 418.457 220.048 418.457C219.779 418.457 219.532 418.514 219.31 418.627C219.091 418.74 218.902 418.896 218.741 419.096C218.585 419.295 218.462 419.523 218.372 419.781C218.286 420.035 218.243 420.305 218.243 420.59ZM226.681 424.117C226.24 424.117 225.839 424.043 225.48 423.895C225.124 423.742 224.818 423.529 224.56 423.256C224.306 422.982 224.111 422.658 223.974 422.283C223.837 421.908 223.769 421.498 223.769 421.053V420.807C223.769 420.291 223.845 419.832 223.997 419.43C224.15 419.023 224.357 418.68 224.618 418.398C224.88 418.117 225.177 417.904 225.509 417.76C225.841 417.615 226.185 417.543 226.54 417.543C226.993 417.543 227.384 417.621 227.712 417.777C228.044 417.934 228.316 418.152 228.527 418.434C228.738 418.711 228.894 419.039 228.995 419.418C229.097 419.793 229.148 420.203 229.148 420.648V421.135H224.413V420.25H228.064V420.168C228.048 419.887 227.99 419.613 227.888 419.348C227.79 419.082 227.634 418.863 227.419 418.691C227.204 418.52 226.911 418.434 226.54 418.434C226.294 418.434 226.068 418.486 225.861 418.592C225.654 418.693 225.476 418.846 225.327 419.049C225.179 419.252 225.064 419.5 224.982 419.793C224.9 420.086 224.859 420.424 224.859 420.807V421.053C224.859 421.354 224.9 421.637 224.982 421.902C225.068 422.164 225.191 422.395 225.351 422.594C225.515 422.793 225.712 422.949 225.943 423.062C226.177 423.176 226.443 423.232 226.74 423.232C227.122 423.232 227.447 423.154 227.712 422.998C227.978 422.842 228.21 422.633 228.409 422.371L229.066 422.893C228.929 423.1 228.755 423.297 228.544 423.484C228.333 423.672 228.073 423.824 227.765 423.941C227.46 424.059 227.099 424.117 226.681 424.117ZM234.105 422.318C234.105 422.162 234.07 422.018 233.999 421.885C233.933 421.748 233.794 421.625 233.583 421.516C233.376 421.402 233.064 421.305 232.646 421.223C232.294 421.148 231.976 421.061 231.691 420.959C231.409 420.857 231.169 420.734 230.97 420.59C230.775 420.445 230.624 420.275 230.519 420.08C230.413 419.885 230.361 419.656 230.361 419.395C230.361 419.145 230.415 418.908 230.525 418.686C230.638 418.463 230.796 418.266 230.999 418.094C231.206 417.922 231.454 417.787 231.743 417.689C232.032 417.592 232.355 417.543 232.71 417.543C233.218 417.543 233.652 417.633 234.011 417.812C234.37 417.992 234.646 418.232 234.837 418.533C235.029 418.83 235.124 419.16 235.124 419.523H234.04C234.04 419.348 233.988 419.178 233.882 419.014C233.781 418.846 233.63 418.707 233.431 418.598C233.236 418.488 232.995 418.434 232.71 418.434C232.409 418.434 232.165 418.48 231.978 418.574C231.794 418.664 231.659 418.779 231.573 418.92C231.491 419.061 231.45 419.209 231.45 419.365C231.45 419.482 231.47 419.588 231.509 419.682C231.552 419.771 231.626 419.855 231.732 419.934C231.837 420.008 231.986 420.078 232.177 420.145C232.368 420.211 232.613 420.277 232.909 420.344C233.429 420.461 233.857 420.602 234.193 420.766C234.529 420.93 234.779 421.131 234.943 421.369C235.107 421.607 235.189 421.896 235.189 422.236C235.189 422.514 235.13 422.768 235.013 422.998C234.9 423.229 234.734 423.428 234.515 423.596C234.3 423.76 234.042 423.889 233.741 423.982C233.445 424.072 233.111 424.117 232.74 424.117C232.181 424.117 231.708 424.018 231.322 423.818C230.935 423.619 230.642 423.361 230.443 423.045C230.243 422.729 230.144 422.395 230.144 422.043H231.234C231.249 422.34 231.335 422.576 231.491 422.752C231.648 422.924 231.839 423.047 232.066 423.121C232.292 423.191 232.517 423.227 232.74 423.227C233.036 423.227 233.284 423.188 233.484 423.109C233.687 423.031 233.841 422.924 233.947 422.787C234.052 422.65 234.105 422.494 234.105 422.318ZM240.609 422.77V415H241.698V424H240.702L240.609 422.77ZM236.343 420.9V420.777C236.343 420.293 236.402 419.854 236.519 419.459C236.64 419.061 236.81 418.719 237.029 418.434C237.251 418.148 237.515 417.93 237.82 417.777C238.128 417.621 238.472 417.543 238.851 417.543C239.249 417.543 239.597 417.613 239.894 417.754C240.195 417.891 240.448 418.092 240.656 418.357C240.866 418.619 241.032 418.936 241.154 419.307C241.275 419.678 241.359 420.098 241.406 420.566V421.105C241.363 421.57 241.279 421.988 241.154 422.359C241.032 422.73 240.866 423.047 240.656 423.309C240.448 423.57 240.195 423.771 239.894 423.912C239.593 424.049 239.241 424.117 238.839 424.117C238.468 424.117 238.128 424.037 237.82 423.877C237.515 423.717 237.251 423.492 237.029 423.203C236.81 422.914 236.64 422.574 236.519 422.184C236.402 421.789 236.343 421.361 236.343 420.9ZM237.433 420.777V420.9C237.433 421.217 237.464 421.514 237.527 421.791C237.593 422.068 237.695 422.312 237.831 422.523C237.968 422.734 238.142 422.9 238.353 423.021C238.564 423.139 238.816 423.197 239.109 423.197C239.468 423.197 239.763 423.121 239.993 422.969C240.228 422.816 240.415 422.615 240.556 422.365C240.697 422.115 240.806 421.844 240.884 421.551V420.139C240.837 419.924 240.769 419.717 240.679 419.518C240.593 419.314 240.48 419.135 240.339 418.979C240.202 418.818 240.032 418.691 239.829 418.598C239.63 418.504 239.394 418.457 239.12 418.457C238.823 418.457 238.568 418.52 238.353 418.645C238.142 418.766 237.968 418.934 237.831 419.148C237.695 419.359 237.593 419.605 237.527 419.887C237.464 420.164 237.433 420.461 237.433 420.777ZM247.124 422.916V419.652C247.124 419.402 247.073 419.186 246.972 419.002C246.874 418.814 246.726 418.67 246.527 418.568C246.327 418.467 246.081 418.416 245.788 418.416C245.515 418.416 245.275 418.463 245.068 418.557C244.865 418.65 244.704 418.773 244.587 418.926C244.474 419.078 244.417 419.242 244.417 419.418H243.333C243.333 419.191 243.392 418.967 243.509 418.744C243.626 418.521 243.794 418.32 244.013 418.141C244.236 417.957 244.501 417.812 244.81 417.707C245.122 417.598 245.47 417.543 245.853 417.543C246.314 417.543 246.72 417.621 247.072 417.777C247.427 417.934 247.704 418.17 247.904 418.486C248.107 418.799 248.208 419.191 248.208 419.664V422.617C248.208 422.828 248.226 423.053 248.261 423.291C248.3 423.529 248.357 423.734 248.431 423.906V424H247.3C247.245 423.875 247.202 423.709 247.171 423.502C247.14 423.291 247.124 423.096 247.124 422.916ZM247.312 420.156L247.323 420.918H246.228C245.919 420.918 245.644 420.943 245.402 420.994C245.159 421.041 244.956 421.113 244.792 421.211C244.628 421.309 244.503 421.432 244.417 421.58C244.331 421.725 244.288 421.895 244.288 422.09C244.288 422.289 244.333 422.471 244.423 422.635C244.513 422.799 244.648 422.93 244.827 423.027C245.011 423.121 245.236 423.168 245.501 423.168C245.833 423.168 246.126 423.098 246.38 422.957C246.634 422.816 246.835 422.645 246.984 422.441C247.136 422.238 247.218 422.041 247.23 421.85L247.693 422.371C247.665 422.535 247.591 422.717 247.47 422.916C247.349 423.115 247.187 423.307 246.984 423.49C246.784 423.67 246.546 423.82 246.269 423.941C245.995 424.059 245.687 424.117 245.343 424.117C244.913 424.117 244.536 424.033 244.212 423.865C243.892 423.697 243.642 423.473 243.462 423.191C243.286 422.906 243.198 422.588 243.198 422.236C243.198 421.896 243.265 421.598 243.398 421.34C243.531 421.078 243.722 420.861 243.972 420.689C244.222 420.514 244.523 420.381 244.874 420.291C245.226 420.201 245.618 420.156 246.052 420.156H247.312ZM251.601 423.344L253.365 417.66H254.525L251.982 424.979C251.923 425.135 251.845 425.303 251.747 425.482C251.654 425.666 251.532 425.84 251.384 426.004C251.236 426.168 251.056 426.301 250.845 426.402C250.638 426.508 250.39 426.561 250.101 426.561C250.015 426.561 249.906 426.549 249.773 426.525C249.64 426.502 249.546 426.482 249.491 426.467L249.486 425.588C249.517 425.592 249.566 425.596 249.632 425.6C249.702 425.607 249.751 425.611 249.779 425.611C250.025 425.611 250.234 425.578 250.406 425.512C250.577 425.449 250.722 425.342 250.839 425.189C250.96 425.041 251.064 424.836 251.15 424.574L251.601 423.344ZM250.306 417.66L251.952 422.582L252.234 423.725L251.454 424.123L249.122 417.66H250.306Z" fill="#333333"/>
<path d="M300.369 415.469V424H299.256V415.469H300.369ZM303.111 415.469V416.395H296.52V415.469H303.111ZM305.297 415V424H304.213V415H305.297ZM305.039 420.59L304.588 420.572C304.592 420.139 304.656 419.738 304.781 419.371C304.906 419 305.082 418.678 305.309 418.404C305.535 418.131 305.805 417.92 306.117 417.771C306.434 417.619 306.783 417.543 307.166 417.543C307.479 417.543 307.76 417.586 308.01 417.672C308.26 417.754 308.473 417.887 308.648 418.07C308.828 418.254 308.965 418.492 309.059 418.785C309.152 419.074 309.199 419.428 309.199 419.846V424H308.109V419.834C308.109 419.502 308.061 419.236 307.963 419.037C307.865 418.834 307.723 418.688 307.535 418.598C307.348 418.504 307.117 418.457 306.844 418.457C306.574 418.457 306.328 418.514 306.105 418.627C305.887 418.74 305.697 418.896 305.537 419.096C305.381 419.295 305.258 419.523 305.168 419.781C305.082 420.035 305.039 420.305 305.039 420.59ZM314.701 422.535V417.66H315.791V424H314.754L314.701 422.535ZM314.906 421.199L315.357 421.188C315.357 421.609 315.312 422 315.223 422.359C315.137 422.715 314.996 423.023 314.801 423.285C314.605 423.547 314.35 423.752 314.033 423.9C313.717 424.045 313.332 424.117 312.879 424.117C312.57 424.117 312.287 424.072 312.029 423.982C311.775 423.893 311.557 423.754 311.373 423.566C311.189 423.379 311.047 423.135 310.945 422.834C310.848 422.533 310.799 422.172 310.799 421.75V417.66H311.883V421.762C311.883 422.047 311.914 422.283 311.977 422.471C312.043 422.654 312.131 422.801 312.24 422.91C312.354 423.016 312.479 423.09 312.615 423.133C312.756 423.176 312.9 423.197 313.049 423.197C313.51 423.197 313.875 423.109 314.145 422.934C314.414 422.754 314.607 422.514 314.725 422.213C314.846 421.908 314.906 421.57 314.906 421.199ZM318.527 418.656V424H317.443V417.66H318.498L318.527 418.656ZM320.508 417.625L320.502 418.633C320.412 418.613 320.326 418.602 320.244 418.598C320.166 418.59 320.076 418.586 319.975 418.586C319.725 418.586 319.504 418.625 319.312 418.703C319.121 418.781 318.959 418.891 318.826 419.031C318.693 419.172 318.588 419.34 318.51 419.535C318.436 419.727 318.387 419.938 318.363 420.168L318.059 420.344C318.059 419.961 318.096 419.602 318.17 419.266C318.248 418.93 318.367 418.633 318.527 418.375C318.688 418.113 318.891 417.91 319.137 417.766C319.387 417.617 319.684 417.543 320.027 417.543C320.105 417.543 320.195 417.553 320.297 417.572C320.398 417.588 320.469 417.605 320.508 417.625ZM325.201 422.318C325.201 422.162 325.166 422.018 325.096 421.885C325.029 421.748 324.891 421.625 324.68 421.516C324.473 421.402 324.16 421.305 323.742 421.223C323.391 421.148 323.072 421.061 322.787 420.959C322.506 420.857 322.266 420.734 322.066 420.59C321.871 420.445 321.721 420.275 321.615 420.08C321.51 419.885 321.457 419.656 321.457 419.395C321.457 419.145 321.512 418.908 321.621 418.686C321.734 418.463 321.893 418.266 322.096 418.094C322.303 417.922 322.551 417.787 322.84 417.689C323.129 417.592 323.451 417.543 323.807 417.543C324.314 417.543 324.748 417.633 325.107 417.812C325.467 417.992 325.742 418.232 325.934 418.533C326.125 418.83 326.221 419.16 326.221 419.523H325.137C325.137 419.348 325.084 419.178 324.979 419.014C324.877 418.846 324.727 418.707 324.527 418.598C324.332 418.488 324.092 418.434 323.807 418.434C323.506 418.434 323.262 418.48 323.074 418.574C322.891 418.664 322.756 418.779 322.67 418.92C322.588 419.061 322.547 419.209 322.547 419.365C322.547 419.482 322.566 419.588 322.605 419.682C322.648 419.771 322.723 419.855 322.828 419.934C322.934 420.008 323.082 420.078 323.273 420.145C323.465 420.211 323.709 420.277 324.006 420.344C324.525 420.461 324.953 420.602 325.289 420.766C325.625 420.93 325.875 421.131 326.039 421.369C326.203 421.607 326.285 421.896 326.285 422.236C326.285 422.514 326.227 422.768 326.109 422.998C325.996 423.229 325.83 423.428 325.611 423.596C325.396 423.76 325.139 423.889 324.838 423.982C324.541 424.072 324.207 424.117 323.836 424.117C323.277 424.117 322.805 424.018 322.418 423.818C322.031 423.619 321.738 423.361 321.539 423.045C321.34 422.729 321.24 422.395 321.24 422.043H322.33C322.346 422.34 322.432 422.576 322.588 422.752C322.744 422.924 322.936 423.047 323.162 423.121C323.389 423.191 323.613 423.227 323.836 423.227C324.133 423.227 324.381 423.188 324.58 423.109C324.783 423.031 324.938 422.924 325.043 422.787C325.148 422.65 325.201 422.494 325.201 422.318ZM331.705 422.77V415H332.795V424H331.799L331.705 422.77ZM327.439 420.9V420.777C327.439 420.293 327.498 419.854 327.615 419.459C327.736 419.061 327.906 418.719 328.125 418.434C328.348 418.148 328.611 417.93 328.916 417.777C329.225 417.621 329.568 417.543 329.947 417.543C330.346 417.543 330.693 417.613 330.99 417.754C331.291 417.891 331.545 418.092 331.752 418.357C331.963 418.619 332.129 418.936 332.25 419.307C332.371 419.678 332.455 420.098 332.502 420.566V421.105C332.459 421.57 332.375 421.988 332.25 422.359C332.129 422.73 331.963 423.047 331.752 423.309C331.545 423.57 331.291 423.771 330.99 423.912C330.689 424.049 330.338 424.117 329.936 424.117C329.564 424.117 329.225 424.037 328.916 423.877C328.611 423.717 328.348 423.492 328.125 423.203C327.906 422.914 327.736 422.574 327.615 422.184C327.498 421.789 327.439 421.361 327.439 420.9ZM328.529 420.777V420.9C328.529 421.217 328.561 421.514 328.623 421.791C328.689 422.068 328.791 422.312 328.928 422.523C329.064 422.734 329.238 422.9 329.449 423.021C329.66 423.139 329.912 423.197 330.205 423.197C330.564 423.197 330.859 423.121 331.09 422.969C331.324 422.816 331.512 422.615 331.652 422.365C331.793 422.115 331.902 421.844 331.98 421.551V420.139C331.934 419.924 331.865 419.717 331.775 419.518C331.689 419.314 331.576 419.135 331.436 418.979C331.299 418.818 331.129 418.691 330.926 418.598C330.727 418.504 330.49 418.457 330.217 418.457C329.92 418.457 329.664 418.52 329.449 418.645C329.238 418.766 329.064 418.934 328.928 419.148C328.791 419.359 328.689 419.605 328.623 419.887C328.561 420.164 328.529 420.461 328.529 420.777ZM338.221 422.916V419.652C338.221 419.402 338.17 419.186 338.068 419.002C337.971 418.814 337.822 418.67 337.623 418.568C337.424 418.467 337.178 418.416 336.885 418.416C336.611 418.416 336.371 418.463 336.164 418.557C335.961 418.65 335.801 418.773 335.684 418.926C335.57 419.078 335.514 419.242 335.514 419.418H334.43C334.43 419.191 334.488 418.967 334.605 418.744C334.723 418.521 334.891 418.32 335.109 418.141C335.332 417.957 335.598 417.812 335.906 417.707C336.219 417.598 336.566 417.543 336.949 417.543C337.41 417.543 337.816 417.621 338.168 417.777C338.523 417.934 338.801 418.17 339 418.486C339.203 418.799 339.305 419.191 339.305 419.664V422.617C339.305 422.828 339.322 423.053 339.357 423.291C339.396 423.529 339.453 423.734 339.527 423.906V424H338.396C338.342 423.875 338.299 423.709 338.268 423.502C338.236 423.291 338.221 423.096 338.221 422.916ZM338.408 420.156L338.42 420.918H337.324C337.016 420.918 336.74 420.943 336.498 420.994C336.256 421.041 336.053 421.113 335.889 421.211C335.725 421.309 335.6 421.432 335.514 421.58C335.428 421.725 335.385 421.895 335.385 422.09C335.385 422.289 335.43 422.471 335.52 422.635C335.609 422.799 335.744 422.93 335.924 423.027C336.107 423.121 336.332 423.168 336.598 423.168C336.93 423.168 337.223 423.098 337.477 422.957C337.73 422.816 337.932 422.645 338.08 422.441C338.232 422.238 338.314 422.041 338.326 421.85L338.789 422.371C338.762 422.535 338.688 422.717 338.566 422.916C338.445 423.115 338.283 423.307 338.08 423.49C337.881 423.67 337.643 423.82 337.365 423.941C337.092 424.059 336.783 424.117 336.439 424.117C336.01 424.117 335.633 424.033 335.309 423.865C334.988 423.697 334.738 423.473 334.559 423.191C334.383 422.906 334.295 422.588 334.295 422.236C334.295 421.896 334.361 421.598 334.494 421.34C334.627 421.078 334.818 420.861 335.068 420.689C335.318 420.514 335.619 420.381 335.971 420.291C336.322 420.201 336.715 420.156 337.148 420.156H338.408ZM342.697 423.344L344.461 417.66H345.621L343.078 424.979C343.02 425.135 342.941 425.303 342.844 425.482C342.75 425.666 342.629 425.84 342.48 426.004C342.332 426.168 342.152 426.301 341.941 426.402C341.734 426.508 341.486 426.561 341.197 426.561C341.111 426.561 341.002 426.549 340.869 426.525C340.736 426.502 340.643 426.482 340.588 426.467L340.582 425.588C340.613 425.592 340.662 425.596 340.729 425.6C340.799 425.607 340.848 425.611 340.875 425.611C341.121 425.611 341.33 425.578 341.502 425.512C341.674 425.449 341.818 425.342 341.936 425.189C342.057 425.041 342.16 424.836 342.246 424.574L342.697 423.344ZM341.402 417.66L343.049 422.582L343.33 423.725L342.551 424.123L340.219 417.66H341.402Z" fill="#333333"/>
<path d="M403.61 415.469V424H402.479V415.469H403.61ZM407.184 419.307V420.232H403.364V419.307H407.184ZM407.764 415.469V416.395H403.364V415.469H407.764ZM409.88 418.656V424H408.796V417.66H409.85L409.88 418.656ZM411.86 417.625L411.854 418.633C411.764 418.613 411.678 418.602 411.596 418.598C411.518 418.59 411.428 418.586 411.327 418.586C411.077 418.586 410.856 418.625 410.665 418.703C410.473 418.781 410.311 418.891 410.178 419.031C410.046 419.172 409.94 419.34 409.862 419.535C409.788 419.727 409.739 419.938 409.716 420.168L409.411 420.344C409.411 419.961 409.448 419.602 409.522 419.266C409.6 418.93 409.719 418.633 409.88 418.375C410.04 418.113 410.243 417.91 410.489 417.766C410.739 417.617 411.036 417.543 411.38 417.543C411.458 417.543 411.548 417.553 411.649 417.572C411.751 417.588 411.821 417.605 411.86 417.625ZM414.04 417.66V424H412.95V417.66H414.04ZM412.868 415.979C412.868 415.803 412.921 415.654 413.026 415.533C413.135 415.412 413.296 415.352 413.507 415.352C413.714 415.352 413.872 415.412 413.981 415.533C414.094 415.654 414.151 415.803 414.151 415.979C414.151 416.146 414.094 416.291 413.981 416.412C413.872 416.529 413.714 416.588 413.507 416.588C413.296 416.588 413.135 416.529 413.026 416.412C412.921 416.291 412.868 416.146 412.868 415.979ZM419.776 422.77V415H420.866V424H419.87L419.776 422.77ZM415.51 420.9V420.777C415.51 420.293 415.569 419.854 415.686 419.459C415.807 419.061 415.977 418.719 416.196 418.434C416.419 418.148 416.682 417.93 416.987 417.777C417.296 417.621 417.639 417.543 418.018 417.543C418.417 417.543 418.764 417.613 419.061 417.754C419.362 417.891 419.616 418.092 419.823 418.357C420.034 418.619 420.2 418.936 420.321 419.307C420.442 419.678 420.526 420.098 420.573 420.566V421.105C420.53 421.57 420.446 421.988 420.321 422.359C420.2 422.73 420.034 423.047 419.823 423.309C419.616 423.57 419.362 423.771 419.061 423.912C418.76 424.049 418.409 424.117 418.007 424.117C417.635 424.117 417.296 424.037 416.987 423.877C416.682 423.717 416.419 423.492 416.196 423.203C415.977 422.914 415.807 422.574 415.686 422.184C415.569 421.789 415.51 421.361 415.51 420.9ZM416.6 420.777V420.9C416.6 421.217 416.632 421.514 416.694 421.791C416.76 422.068 416.862 422.312 416.999 422.523C417.135 422.734 417.309 422.9 417.52 423.021C417.731 423.139 417.983 423.197 418.276 423.197C418.635 423.197 418.93 423.121 419.161 422.969C419.395 422.816 419.583 422.615 419.723 422.365C419.864 422.115 419.973 421.844 420.052 421.551V420.139C420.005 419.924 419.936 419.717 419.846 419.518C419.76 419.314 419.647 419.135 419.507 418.979C419.37 418.818 419.2 418.691 418.997 418.598C418.798 418.504 418.561 418.457 418.288 418.457C417.991 418.457 417.735 418.52 417.52 418.645C417.309 418.766 417.135 418.934 416.999 419.148C416.862 419.359 416.76 419.605 416.694 419.887C416.632 420.164 416.6 420.461 416.6 420.777ZM426.292 422.916V419.652C426.292 419.402 426.241 419.186 426.139 419.002C426.042 418.814 425.893 418.67 425.694 418.568C425.495 418.467 425.249 418.416 424.956 418.416C424.682 418.416 424.442 418.463 424.235 418.557C424.032 418.65 423.872 418.773 423.755 418.926C423.641 419.078 423.585 419.242 423.585 419.418H422.501C422.501 419.191 422.559 418.967 422.677 418.744C422.794 418.521 422.962 418.32 423.18 418.141C423.403 417.957 423.669 417.812 423.977 417.707C424.29 417.598 424.637 417.543 425.02 417.543C425.481 417.543 425.887 417.621 426.239 417.777C426.594 417.934 426.872 418.17 427.071 418.486C427.274 418.799 427.376 419.191 427.376 419.664V422.617C427.376 422.828 427.393 423.053 427.428 423.291C427.468 423.529 427.524 423.734 427.598 423.906V424H426.468C426.413 423.875 426.37 423.709 426.339 423.502C426.307 423.291 426.292 423.096 426.292 422.916ZM426.479 420.156L426.491 420.918H425.395C425.087 420.918 424.811 420.943 424.569 420.994C424.327 421.041 424.124 421.113 423.96 421.211C423.796 421.309 423.671 421.432 423.585 421.58C423.499 421.725 423.456 421.895 423.456 422.09C423.456 422.289 423.501 422.471 423.591 422.635C423.68 422.799 423.815 422.93 423.995 423.027C424.178 423.121 424.403 423.168 424.669 423.168C425.001 423.168 425.294 423.098 425.548 422.957C425.802 422.816 426.003 422.645 426.151 422.441C426.303 422.238 426.385 422.041 426.397 421.85L426.86 422.371C426.833 422.535 426.759 422.717 426.637 422.916C426.516 423.115 426.354 423.307 426.151 423.49C425.952 423.67 425.714 423.82 425.436 423.941C425.163 424.059 424.854 424.117 424.51 424.117C424.081 424.117 423.704 424.033 423.38 423.865C423.059 423.697 422.809 423.473 422.63 423.191C422.454 422.906 422.366 422.588 422.366 422.236C422.366 421.896 422.432 421.598 422.565 421.34C422.698 421.078 422.889 420.861 423.139 420.689C423.389 420.514 423.69 420.381 424.042 420.291C424.393 420.201 424.786 420.156 425.219 420.156H426.479ZM430.768 423.344L432.532 417.66H433.692L431.149 424.979C431.091 425.135 431.012 425.303 430.915 425.482C430.821 425.666 430.7 425.84 430.552 426.004C430.403 426.168 430.223 426.301 430.012 426.402C429.805 426.508 429.557 426.561 429.268 426.561C429.182 426.561 429.073 426.549 428.94 426.525C428.807 426.502 428.714 426.482 428.659 426.467L428.653 425.588C428.684 425.592 428.733 425.596 428.8 425.6C428.87 425.607 428.919 425.611 428.946 425.611C429.192 425.611 429.401 425.578 429.573 425.512C429.745 425.449 429.889 425.342 430.007 425.189C430.128 425.041 430.231 424.836 430.317 424.574L430.768 423.344ZM429.473 417.66L431.12 422.582L431.401 423.725L430.622 424.123L428.29 417.66H429.473Z" fill="#333333"/>
<path d="M495.851 421.844C495.851 421.645 495.82 421.469 495.757 421.316C495.698 421.16 495.593 421.02 495.441 420.895C495.292 420.77 495.085 420.65 494.82 420.537C494.558 420.424 494.226 420.309 493.823 420.191C493.402 420.066 493.021 419.928 492.681 419.775C492.341 419.619 492.05 419.441 491.808 419.242C491.566 419.043 491.38 418.814 491.251 418.557C491.122 418.299 491.058 418.004 491.058 417.672C491.058 417.34 491.126 417.033 491.263 416.752C491.4 416.471 491.595 416.227 491.849 416.02C492.107 415.809 492.413 415.645 492.769 415.527C493.124 415.41 493.521 415.352 493.958 415.352C494.599 415.352 495.142 415.475 495.587 415.721C496.036 415.963 496.378 416.281 496.613 416.676C496.847 417.066 496.964 417.484 496.964 417.93H495.839C495.839 417.609 495.771 417.326 495.634 417.08C495.497 416.83 495.29 416.635 495.013 416.494C494.736 416.35 494.384 416.277 493.958 416.277C493.556 416.277 493.224 416.338 492.962 416.459C492.7 416.58 492.505 416.744 492.376 416.951C492.251 417.158 492.189 417.395 492.189 417.66C492.189 417.84 492.226 418.004 492.3 418.152C492.378 418.297 492.497 418.432 492.657 418.557C492.822 418.682 493.029 418.797 493.279 418.902C493.532 419.008 493.835 419.109 494.187 419.207C494.671 419.344 495.089 419.496 495.441 419.664C495.792 419.832 496.081 420.021 496.308 420.232C496.538 420.439 496.708 420.676 496.818 420.941C496.931 421.203 496.988 421.5 496.988 421.832C496.988 422.18 496.917 422.494 496.777 422.775C496.636 423.057 496.435 423.297 496.173 423.496C495.911 423.695 495.597 423.85 495.23 423.959C494.866 424.064 494.46 424.117 494.011 424.117C493.616 424.117 493.228 424.062 492.845 423.953C492.466 423.844 492.12 423.68 491.808 423.461C491.499 423.242 491.251 422.973 491.064 422.652C490.88 422.328 490.788 421.953 490.788 421.527H491.913C491.913 421.82 491.97 422.072 492.083 422.283C492.197 422.49 492.351 422.662 492.546 422.799C492.745 422.936 492.97 423.037 493.22 423.104C493.474 423.166 493.738 423.197 494.011 423.197C494.406 423.197 494.74 423.143 495.013 423.033C495.286 422.924 495.493 422.768 495.634 422.564C495.779 422.361 495.851 422.121 495.851 421.844ZM502.003 422.916V419.652C502.003 419.402 501.952 419.186 501.851 419.002C501.753 418.814 501.605 418.67 501.406 418.568C501.206 418.467 500.96 418.416 500.667 418.416C500.394 418.416 500.154 418.463 499.947 418.557C499.743 418.65 499.583 418.773 499.466 418.926C499.353 419.078 499.296 419.242 499.296 419.418H498.212C498.212 419.191 498.271 418.967 498.388 418.744C498.505 418.521 498.673 418.32 498.892 418.141C499.115 417.957 499.38 417.812 499.689 417.707C500.001 417.598 500.349 417.543 500.732 417.543C501.193 417.543 501.599 417.621 501.95 417.777C502.306 417.934 502.583 418.17 502.782 418.486C502.986 418.799 503.087 419.191 503.087 419.664V422.617C503.087 422.828 503.105 423.053 503.14 423.291C503.179 423.529 503.236 423.734 503.31 423.906V424H502.179C502.124 423.875 502.081 423.709 502.05 423.502C502.019 423.291 502.003 423.096 502.003 422.916ZM502.191 420.156L502.202 420.918H501.107C500.798 420.918 500.523 420.943 500.281 420.994C500.038 421.041 499.835 421.113 499.671 421.211C499.507 421.309 499.382 421.432 499.296 421.58C499.21 421.725 499.167 421.895 499.167 422.09C499.167 422.289 499.212 422.471 499.302 422.635C499.392 422.799 499.527 422.93 499.706 423.027C499.89 423.121 500.115 423.168 500.38 423.168C500.712 423.168 501.005 423.098 501.259 422.957C501.513 422.816 501.714 422.645 501.863 422.441C502.015 422.238 502.097 422.041 502.109 421.85L502.572 422.371C502.544 422.535 502.47 422.717 502.349 422.916C502.228 423.115 502.066 423.307 501.863 423.49C501.663 423.67 501.425 423.82 501.148 423.941C500.874 424.059 500.566 424.117 500.222 424.117C499.792 424.117 499.415 424.033 499.091 423.865C498.771 423.697 498.521 423.473 498.341 423.191C498.165 422.906 498.077 422.588 498.077 422.236C498.077 421.896 498.144 421.598 498.277 421.34C498.409 421.078 498.601 420.861 498.851 420.689C499.101 420.514 499.402 420.381 499.753 420.291C500.105 420.201 500.497 420.156 500.931 420.156H502.191ZM507.447 417.66V418.492H504.019V417.66H507.447ZM505.179 416.119H506.263V422.43C506.263 422.645 506.296 422.807 506.363 422.916C506.429 423.025 506.515 423.098 506.62 423.133C506.726 423.168 506.839 423.186 506.96 423.186C507.05 423.186 507.144 423.178 507.241 423.162C507.343 423.143 507.419 423.127 507.47 423.115L507.476 424C507.39 424.027 507.277 424.053 507.136 424.076C506.999 424.104 506.833 424.117 506.638 424.117C506.372 424.117 506.128 424.064 505.906 423.959C505.683 423.854 505.505 423.678 505.372 423.432C505.243 423.182 505.179 422.846 505.179 422.424V416.119ZM512.597 422.535V417.66H513.687V424H512.65L512.597 422.535ZM512.802 421.199L513.253 421.188C513.253 421.609 513.208 422 513.118 422.359C513.032 422.715 512.892 423.023 512.697 423.285C512.501 423.547 512.245 423.752 511.929 423.9C511.613 424.045 511.228 424.117 510.775 424.117C510.466 424.117 510.183 424.072 509.925 423.982C509.671 423.893 509.452 423.754 509.269 423.566C509.085 423.379 508.943 423.135 508.841 422.834C508.743 422.533 508.695 422.172 508.695 421.75V417.66H509.779V421.762C509.779 422.047 509.81 422.283 509.872 422.471C509.939 422.654 510.027 422.801 510.136 422.91C510.249 423.016 510.374 423.09 510.511 423.133C510.652 423.176 510.796 423.197 510.945 423.197C511.406 423.197 511.771 423.109 512.04 422.934C512.31 422.754 512.503 422.514 512.62 422.213C512.741 421.908 512.802 421.57 512.802 421.199ZM516.423 418.656V424H515.339V417.66H516.394L516.423 418.656ZM518.404 417.625L518.398 418.633C518.308 418.613 518.222 418.602 518.14 418.598C518.062 418.59 517.972 418.586 517.87 418.586C517.62 418.586 517.4 418.625 517.208 418.703C517.017 418.781 516.855 418.891 516.722 419.031C516.589 419.172 516.484 419.34 516.406 419.535C516.331 419.727 516.282 419.938 516.259 420.168L515.954 420.344C515.954 419.961 515.991 419.602 516.066 419.266C516.144 418.93 516.263 418.633 516.423 418.375C516.583 418.113 516.786 417.91 517.032 417.766C517.282 417.617 517.579 417.543 517.923 417.543C518.001 417.543 518.091 417.553 518.193 417.572C518.294 417.588 518.365 417.605 518.404 417.625ZM523.284 422.77V415H524.374V424H523.378L523.284 422.77ZM519.019 420.9V420.777C519.019 420.293 519.077 419.854 519.195 419.459C519.316 419.061 519.486 418.719 519.704 418.434C519.927 418.148 520.191 417.93 520.495 417.777C520.804 417.621 521.148 417.543 521.527 417.543C521.925 417.543 522.273 417.613 522.57 417.754C522.87 417.891 523.124 418.092 523.331 418.357C523.542 418.619 523.708 418.936 523.829 419.307C523.95 419.678 524.034 420.098 524.081 420.566V421.105C524.038 421.57 523.954 421.988 523.829 422.359C523.708 422.73 523.542 423.047 523.331 423.309C523.124 423.57 522.87 423.771 522.57 423.912C522.269 424.049 521.917 424.117 521.515 424.117C521.144 424.117 520.804 424.037 520.495 423.877C520.191 423.717 519.927 423.492 519.704 423.203C519.486 422.914 519.316 422.574 519.195 422.184C519.077 421.789 519.019 421.361 519.019 420.9ZM520.109 420.777V420.9C520.109 421.217 520.14 421.514 520.202 421.791C520.269 422.068 520.37 422.312 520.507 422.523C520.644 422.734 520.818 422.9 521.029 423.021C521.24 423.139 521.491 423.197 521.784 423.197C522.144 423.197 522.439 423.121 522.669 422.969C522.904 422.816 523.091 422.615 523.232 422.365C523.372 422.115 523.482 421.844 523.56 421.551V420.139C523.513 419.924 523.445 419.717 523.355 419.518C523.269 419.314 523.156 419.135 523.015 418.979C522.878 418.818 522.708 418.691 522.505 418.598C522.306 418.504 522.07 418.457 521.796 418.457C521.499 418.457 521.243 418.52 521.029 418.645C520.818 418.766 520.644 418.934 520.507 419.148C520.37 419.359 520.269 419.605 520.202 419.887C520.14 420.164 520.109 420.461 520.109 420.777ZM529.8 422.916V419.652C529.8 419.402 529.749 419.186 529.648 419.002C529.55 418.814 529.402 418.67 529.202 418.568C529.003 418.467 528.757 418.416 528.464 418.416C528.191 418.416 527.95 418.463 527.743 418.557C527.54 418.65 527.38 418.773 527.263 418.926C527.15 419.078 527.093 419.242 527.093 419.418H526.009C526.009 419.191 526.068 418.967 526.185 418.744C526.302 418.521 526.47 418.32 526.689 418.141C526.911 417.957 527.177 417.812 527.486 417.707C527.798 417.598 528.146 417.543 528.529 417.543C528.99 417.543 529.396 417.621 529.747 417.777C530.103 417.934 530.38 418.17 530.579 418.486C530.782 418.799 530.884 419.191 530.884 419.664V422.617C530.884 422.828 530.902 423.053 530.937 423.291C530.976 423.529 531.032 423.734 531.107 423.906V424H529.976C529.921 423.875 529.878 423.709 529.847 423.502C529.816 423.291 529.8 423.096 529.8 422.916ZM529.988 420.156L529.999 420.918H528.904C528.595 420.918 528.32 420.943 528.077 420.994C527.835 421.041 527.632 421.113 527.468 421.211C527.304 421.309 527.179 421.432 527.093 421.58C527.007 421.725 526.964 421.895 526.964 422.09C526.964 422.289 527.009 422.471 527.099 422.635C527.189 422.799 527.323 422.93 527.503 423.027C527.687 423.121 527.911 423.168 528.177 423.168C528.509 423.168 528.802 423.098 529.056 422.957C529.31 422.816 529.511 422.645 529.659 422.441C529.812 422.238 529.894 422.041 529.906 421.85L530.368 422.371C530.341 422.535 530.267 422.717 530.146 422.916C530.025 423.115 529.863 423.307 529.659 423.49C529.46 423.67 529.222 423.82 528.945 423.941C528.671 424.059 528.363 424.117 528.019 424.117C527.589 424.117 527.212 424.033 526.888 423.865C526.568 423.697 526.318 423.473 526.138 423.191C525.962 422.906 525.874 422.588 525.874 422.236C525.874 421.896 525.941 421.598 526.073 421.34C526.206 421.078 526.398 420.861 526.648 420.689C526.898 420.514 527.198 420.381 527.55 420.291C527.902 420.201 528.294 420.156 528.728 420.156H529.988ZM534.277 423.344L536.04 417.66H537.2L534.657 424.979C534.599 425.135 534.521 425.303 534.423 425.482C534.329 425.666 534.208 425.84 534.06 426.004C533.911 426.168 533.732 426.301 533.521 426.402C533.314 426.508 533.066 426.561 532.777 426.561C532.691 426.561 532.581 426.549 532.448 426.525C532.316 426.502 532.222 426.482 532.167 426.467L532.161 425.588C532.193 425.592 532.241 425.596 532.308 425.6C532.378 425.607 532.427 425.611 532.454 425.611C532.7 425.611 532.909 425.578 533.081 425.512C533.253 425.449 533.398 425.342 533.515 425.189C533.636 425.041 533.74 424.836 533.825 424.574L534.277 423.344ZM532.982 417.66L534.628 422.582L534.909 423.725L534.13 424.123L531.798 417.66H532.982Z" fill="#333333"/>
<path d="M596.402 421.844C596.402 421.645 596.371 421.469 596.309 421.316C596.25 421.16 596.145 421.02 595.992 420.895C595.844 420.77 595.637 420.65 595.371 420.537C595.109 420.424 594.777 420.309 594.375 420.191C593.953 420.066 593.572 419.928 593.232 419.775C592.893 419.619 592.602 419.441 592.359 419.242C592.117 419.043 591.932 418.814 591.803 418.557C591.674 418.299 591.609 418.004 591.609 417.672C591.609 417.34 591.678 417.033 591.814 416.752C591.951 416.471 592.146 416.227 592.4 416.02C592.658 415.809 592.965 415.645 593.32 415.527C593.676 415.41 594.072 415.352 594.51 415.352C595.15 415.352 595.693 415.475 596.139 415.721C596.588 415.963 596.93 416.281 597.164 416.676C597.398 417.066 597.516 417.484 597.516 417.93H596.391C596.391 417.609 596.322 417.326 596.186 417.08C596.049 416.83 595.842 416.635 595.564 416.494C595.287 416.35 594.936 416.277 594.51 416.277C594.107 416.277 593.775 416.338 593.514 416.459C593.252 416.58 593.057 416.744 592.928 416.951C592.803 417.158 592.74 417.395 592.74 417.66C592.74 417.84 592.777 418.004 592.852 418.152C592.93 418.297 593.049 418.432 593.209 418.557C593.373 418.682 593.58 418.797 593.83 418.902C594.084 419.008 594.387 419.109 594.738 419.207C595.223 419.344 595.641 419.496 595.992 419.664C596.344 419.832 596.633 420.021 596.859 420.232C597.09 420.439 597.26 420.676 597.369 420.941C597.482 421.203 597.539 421.5 597.539 421.832C597.539 422.18 597.469 422.494 597.328 422.775C597.188 423.057 596.986 423.297 596.725 423.496C596.463 423.695 596.148 423.85 595.781 423.959C595.418 424.064 595.012 424.117 594.562 424.117C594.168 424.117 593.779 424.062 593.396 423.953C593.018 423.844 592.672 423.68 592.359 423.461C592.051 423.242 591.803 422.973 591.615 422.652C591.432 422.328 591.34 421.953 591.34 421.527H592.465C592.465 421.82 592.521 422.072 592.635 422.283C592.748 422.49 592.902 422.662 593.098 422.799C593.297 422.936 593.521 423.037 593.771 423.104C594.025 423.166 594.289 423.197 594.562 423.197C594.957 423.197 595.291 423.143 595.564 423.033C595.838 422.924 596.045 422.768 596.186 422.564C596.33 422.361 596.402 422.121 596.402 421.844ZM602.695 422.535V417.66H603.785V424H602.748L602.695 422.535ZM602.9 421.199L603.352 421.188C603.352 421.609 603.307 422 603.217 422.359C603.131 422.715 602.99 423.023 602.795 423.285C602.6 423.547 602.344 423.752 602.027 423.9C601.711 424.045 601.326 424.117 600.873 424.117C600.564 424.117 600.281 424.072 600.023 423.982C599.77 423.893 599.551 423.754 599.367 423.566C599.184 423.379 599.041 423.135 598.939 422.834C598.842 422.533 598.793 422.172 598.793 421.75V417.66H599.877V421.762C599.877 422.047 599.908 422.283 599.971 422.471C600.037 422.654 600.125 422.801 600.234 422.91C600.348 423.016 600.473 423.09 600.609 423.133C600.75 423.176 600.895 423.197 601.043 423.197C601.504 423.197 601.869 423.109 602.139 422.934C602.408 422.754 602.602 422.514 602.719 422.213C602.84 421.908 602.9 421.57 602.9 421.199ZM606.521 419.014V424H605.438V417.66H606.463L606.521 419.014ZM606.264 420.59L605.812 420.572C605.816 420.139 605.881 419.738 606.006 419.371C606.131 419 606.307 418.678 606.533 418.404C606.76 418.131 607.029 417.92 607.342 417.771C607.658 417.619 608.008 417.543 608.391 417.543C608.703 417.543 608.984 417.586 609.234 417.672C609.484 417.754 609.697 417.887 609.873 418.07C610.053 418.254 610.189 418.492 610.283 418.785C610.377 419.074 610.424 419.428 610.424 419.846V424H609.334V419.834C609.334 419.502 609.285 419.236 609.188 419.037C609.09 418.834 608.947 418.688 608.76 418.598C608.572 418.504 608.342 418.457 608.068 418.457C607.799 418.457 607.553 418.514 607.33 418.627C607.111 418.74 606.922 418.896 606.762 419.096C606.605 419.295 606.482 419.523 606.393 419.781C606.307 420.035 606.264 420.305 606.264 420.59ZM616.066 422.77V415H617.156V424H616.16L616.066 422.77ZM611.801 420.9V420.777C611.801 420.293 611.859 419.854 611.977 419.459C612.098 419.061 612.268 418.719 612.486 418.434C612.709 418.148 612.973 417.93 613.277 417.777C613.586 417.621 613.93 417.543 614.309 417.543C614.707 417.543 615.055 417.613 615.352 417.754C615.652 417.891 615.906 418.092 616.113 418.357C616.324 418.619 616.49 418.936 616.611 419.307C616.732 419.678 616.816 420.098 616.863 420.566V421.105C616.82 421.57 616.736 421.988 616.611 422.359C616.49 422.73 616.324 423.047 616.113 423.309C615.906 423.57 615.652 423.771 615.352 423.912C615.051 424.049 614.699 424.117 614.297 424.117C613.926 424.117 613.586 424.037 613.277 423.877C612.973 423.717 612.709 423.492 612.486 423.203C612.268 422.914 612.098 422.574 611.977 422.184C611.859 421.789 611.801 421.361 611.801 420.9ZM612.891 420.777V420.9C612.891 421.217 612.922 421.514 612.984 421.791C613.051 422.068 613.152 422.312 613.289 422.523C613.426 422.734 613.6 422.9 613.811 423.021C614.021 423.139 614.273 423.197 614.566 423.197C614.926 423.197 615.221 423.121 615.451 422.969C615.686 422.816 615.873 422.615 616.014 422.365C616.154 422.115 616.264 421.844 616.342 421.551V420.139C616.295 419.924 616.227 419.717 616.137 419.518C616.051 419.314 615.938 419.135 615.797 418.979C615.66 418.818 615.49 418.691 615.287 418.598C615.088 418.504 614.852 418.457 614.578 418.457C614.281 418.457 614.025 418.52 613.811 418.645C613.6 418.766 613.426 418.934 613.289 419.148C613.152 419.359 613.051 419.605 612.984 419.887C612.922 420.164 612.891 420.461 612.891 420.777ZM622.582 422.916V419.652C622.582 419.402 622.531 419.186 622.43 419.002C622.332 418.814 622.184 418.67 621.984 418.568C621.785 418.467 621.539 418.416 621.246 418.416C620.973 418.416 620.732 418.463 620.525 418.557C620.322 418.65 620.162 418.773 620.045 418.926C619.932 419.078 619.875 419.242 619.875 419.418H618.791C618.791 419.191 618.85 418.967 618.967 418.744C619.084 418.521 619.252 418.32 619.471 418.141C619.693 417.957 619.959 417.812 620.268 417.707C620.58 417.598 620.928 417.543 621.311 417.543C621.771 417.543 622.178 417.621 622.529 417.777C622.885 417.934 623.162 418.17 623.361 418.486C623.564 418.799 623.666 419.191 623.666 419.664V422.617C623.666 422.828 623.684 423.053 623.719 423.291C623.758 423.529 623.814 423.734 623.889 423.906V424H622.758C622.703 423.875 622.66 423.709 622.629 423.502C622.598 423.291 622.582 423.096 622.582 422.916ZM622.77 420.156L622.781 420.918H621.686C621.377 420.918 621.102 420.943 620.859 420.994C620.617 421.041 620.414 421.113 620.25 421.211C620.086 421.309 619.961 421.432 619.875 421.58C619.789 421.725 619.746 421.895 619.746 422.09C619.746 422.289 619.791 422.471 619.881 422.635C619.971 422.799 620.105 422.93 620.285 423.027C620.469 423.121 620.693 423.168 620.959 423.168C621.291 423.168 621.584 423.098 621.838 422.957C622.092 422.816 622.293 422.645 622.441 422.441C622.594 422.238 622.676 422.041 622.688 421.85L623.15 422.371C623.123 422.535 623.049 422.717 622.928 422.916C622.807 423.115 622.645 423.307 622.441 423.49C622.242 423.67 622.004 423.82 621.727 423.941C621.453 424.059 621.145 424.117 620.801 424.117C620.371 424.117 619.994 424.033 619.67 423.865C619.35 423.697 619.1 423.473 618.92 423.191C618.744 422.906 618.656 422.588 618.656 422.236C618.656 421.896 618.723 421.598 618.855 421.34C618.988 421.078 619.18 420.861 619.43 420.689C619.68 420.514 619.98 420.381 620.332 420.291C620.684 420.201 621.076 420.156 621.51 420.156H622.77ZM627.059 423.344L628.822 417.66H629.982L627.439 424.979C627.381 425.135 627.303 425.303 627.205 425.482C627.111 425.666 626.99 425.84 626.842 426.004C626.693 426.168 626.514 426.301 626.303 426.402C626.096 426.508 625.848 426.561 625.559 426.561C625.473 426.561 625.363 426.549 625.23 426.525C625.098 426.502 625.004 426.482 624.949 426.467L624.943 425.588C624.975 425.592 625.023 425.596 625.09 425.6C625.16 425.607 625.209 425.611 625.236 425.611C625.482 425.611 625.691 425.578 625.863 425.512C626.035 425.449 626.18 425.342 626.297 425.189C626.418 425.041 626.521 424.836 626.607 424.574L627.059 423.344ZM625.764 417.66L627.41 422.582L627.691 423.725L626.912 424.123L624.58 417.66H625.764Z" fill="#333333"/>
<path opacity="0.3" fill-rule="evenodd" clip-rule="evenodd" d="M31 367L127.667 287L224.333 207L321 127L417.667 327L514.333 247L611 167V407H31V367Z" fill="#FF404D"/>
<path d="M31 367L127.667 287L224.333 207L321 127L417.667 327L514.333 247L611 167" stroke="#ABAB98" stroke-width="2" stroke-linejoin="round"/>
<circle cx="31" cy="367" r="3.5" fill="white" stroke="#41413E" stroke-width="2"/>
<circle cx="127.667" cy="287" r="3.5" fill="white" stroke="#41413E" stroke-width="2"/>
<circle cx="224.333" cy="207" r="3.5" fill="white" stroke="#41413E" stroke-width="2"/>
<circle cx="321" cy="127" r="3.5" fill="white" stroke="#41413E" stroke-width="2"/>
<circle cx="417.667" cy="327" r="3.5" fill="white" stroke="#41413E" stroke-width="2"/>
<circle cx="514.333" cy="247" r="3.5" fill="white" stroke="#41413E" stroke-width="2"/>
<circle cx="611" cy="167" r="3.5" fill="white" stroke="#41413E" stroke-width="2"/>
</svg>
