<svg xmlns="http://www.w3.org/2000/svg" viewBox="0 0 300 180"><defs><style>.a{fill:#fff;}.b{fill:#888;}</style></defs><title></title><rect class="a" x="3.51" y="41.13" width="1.31" height="43.05"/><rect class="a" x="11.17" y="38.34" width="1.31" height="45.83"/><rect class="a" x="18.84" y="36.49" width="1.31" height="47.69"/><rect class="a" x="26.5" y="24.1" width="1.31" height="60.08"/><rect class="a" x="34.16" y="11.13" width="1.31" height="73.04"/><rect class="a" x="41.82" y="8.35" width="1.31" height="75.83"/><rect class="a" x="49.49" y="12.99" width="1.31" height="71.19"/><rect class="a" x="57.15" y="2.32" width="1.31" height="81.86"/><rect class="a" x="64.81" width="1.31" height="84.18"/><rect class="a" x="72.48" y="4.17" width="1.31" height="80"/><rect class="a" x="80.14" y="42.98" width="1.31" height="41.2"/><rect class="a" x="87.8" y="48.09" width="1.31" height="36.09"/><rect class="a" x="95.46" y="44.84" width="1.31" height="39.34"/><rect class="a" x="103.13" y="30.36" width="1.31" height="53.82"/><rect class="a" x="110.79" y="16.44" width="1.31" height="67.74"/><rect class="a" x="118.45" y="5.1" width="1.31" height="79.07"/><rect class="a" x="126.11" y="9.74" width="1.31" height="74.44"/><rect class="a" x="133.78" y="14.38" width="1.31" height="69.8"/><rect class="a" x="141.44" y="28.3" width="1.31" height="55.88"/><rect class="a" x="149.1" y="23.19" width="1.31" height="60.98"/><rect class="a" x="156.76" y="15.77" width="1.31" height="68.41"/><rect class="a" x="164.42" y="7.42" width="1.31" height="76.76"/><rect class="a" x="172.09" y="9.74" width="1.31" height="74.44"/><rect class="a" x="179.75" y="7.12" width="1.31" height="77.06"/><rect class="a" x="195.39" y="17.34" width="1.31" height="66.84"/><rect class="a" x="203.05" y="39.63" width="1.31" height="44.54"/><rect class="a" x="210.71" y="34.69" width="1.31" height="49.49"/><rect class="a" x="218.38" y="31.44" width="1.31" height="52.74"/><rect class="a" x="226.04" y="14.07" width="1.31" height="70.1"/><rect class="a" x="233.7" y="11.41" width="1.31" height="72.76"/><rect class="a" x="241.37" y="9.9" width="1.31" height="74.28"/><rect class="a" x="249.03" y="9.43" width="1.31" height="74.74"/><rect class="a" x="256.69" y="14.07" width="1.31" height="70.1"/><rect class="a" x="264.36" y="17.42" width="1.31" height="66.76"/><rect class="a" x="272.02" y="12.78" width="1.31" height="71.39"/><rect class="a" x="279.68" y="29.69" width="1.31" height="54.49"/><rect class="a" x="287.35" y="27.37" width="1.31" height="56.81"/><rect class="a" x="295.01" y="40.82" width="1.31" height="43.36"/><path class="a" d="M187.57,4.8h1.31V84.18h-1.31Z"/><polygon class="a" points="18.91 107.5 3.76 87.39 3.71 87.33 3.36 87.33 3.36 110.2 4.6 110.2 4.6 90.58 19.75 110.7 19.79 110.76 20.14 110.76 20.14 87.88 18.91 87.88 18.91 107.5"/><polygon class="a" points="27.59 99.61 38.05 99.61 38.05 98.41 27.59 98.41 27.59 89.09 39.25 89.09 39.25 87.88 26.26 87.88 26.26 110.2 39.71 110.2 39.71 109 27.59 109 27.59 99.61"/><polygon class="a" points="63.39 107.33 56.6 87.43 56.57 87.33 56.23 87.33 49.41 107.33 43.59 87.99 43.55 87.88 42.21 87.88 49.13 110.65 49.16 110.76 49.51 110.76 56.4 90.7 63.26 110.76 63.6 110.76 70.56 87.88 69.24 87.88 63.39 107.33"/><polygon class="a" points="93.08 100.52 83.16 87.49 83.11 87.43 82.76 87.43 82.76 110.2 84.03 110.2 84.03 90.74 92.86 102.34 92.91 102.4 93.15 102.4 102.13 90.74 102.13 110.2 103.4 110.2 103.4 87.43 103.04 87.43 93.08 100.52"/><polygon class="a" points="110.85 99.61 121.31 99.61 121.31 98.41 110.85 98.41 110.85 89.09 122.5 89.09 122.5 87.88 109.51 87.88 109.51 110.2 122.96 110.2 122.96 109 110.85 109 110.85 99.61"/><path class="a" d="M132.62,87.88h-5.07v22.33h5.07c7.29,0,11.81-4.28,11.81-11.17S139.8,87.88,132.62,87.88Zm-.16,1.24c6.64,0,10.6,3.71,10.6,9.92s-4,9.93-10.6,9.93h-3.57V89.12Z"/><rect class="a" x="149.06" y="87.88" width="1.33" height="22.32"/><path class="a" d="M164,87.33h-.33l-9.09,22.88H156l2.56-6.51h10.61l2.59,6.51h1.39l-9-22.78Zm4.64,15.16H159l4.87-12.21Z"/><path class="a" d="M202.54,105.27a10,10,0,0,1-8.11,4,10.19,10.19,0,0,1-.19-20.37,9.58,9.58,0,0,1,7.65,3.61l.09.11,1-.76-.1-.13A11.24,11.24,0,0,0,183,99a11.48,11.48,0,0,0,20.54,7l.1-.12-1-.76Z"/><polygon class="a" points="209.09 99.61 219.55 99.61 219.55 98.41 209.09 98.41 209.09 89.09 220.75 89.09 220.75 87.88 207.76 87.88 207.76 110.2 221.2 110.2 221.2 109 209.09 109 209.09 99.61"/><polygon class="a" points="241.34 107.5 226.19 87.39 226.15 87.33 225.8 87.33 225.8 110.2 227.03 110.2 227.03 90.58 242.18 110.7 242.23 110.76 242.58 110.76 242.58 87.88 241.34 87.88 241.34 107.5"/><polygon class="a" points="246.33 89.09 253.39 89.09 253.39 110.2 254.72 110.2 254.72 89.09 261.79 89.09 261.79 87.88 246.33 87.88 246.33 89.09"/><polygon class="a" points="266.87 99.61 277.33 99.61 277.33 98.41 266.87 98.41 266.87 89.09 278.53 89.09 278.53 87.88 265.54 87.88 265.54 110.2 278.98 110.2 278.98 109 266.87 109 266.87 99.61"/><path class="a" d="M291.68,100.32a6,6,0,0,0,5.12-6.07c0-3.87-2.71-6.37-6.89-6.37h-6.34v22.33h1.34v-9.72h5.37l6.11,9.65,0,.07H298Zm-6.77-11.23h4.87c3.5,0,5.68,2,5.68,5.16s-2.18,5-5.68,5h-4.87Z"/><rect class="b" x="2.49" y="117.58" width="295.47" height="1.31"/><path class="a" d="M16.4,179.5h-.14a1.36,1.36,0,0,1-1.36-1.36V165.7a1.35,1.35,0,0,0-2.43-.82,61.27,61.27,0,0,1-7.68,8.26,1.35,1.35,0,0,1-1.66.12h0A1.36,1.36,0,0,1,3,171.1a58.43,58.43,0,0,0,7.18-7.35c1.15-1.54,2.26-3.14,3.3-4.81a1.36,1.36,0,0,0-1.15-2.09H3a1.36,1.36,0,0,1-1.36-1.36v-.09A1.36,1.36,0,0,1,3,154H13.54a1.35,1.35,0,0,0,1.36-1.35v-3.95a1.36,1.36,0,0,0-1.36-1.36H3.25A1.35,1.35,0,0,1,1.89,146v-.15a1.36,1.36,0,0,1,1.36-1.36H18.47a1.37,1.37,0,0,0,1.23-.77,73.08,73.08,0,0,0,4-9.62,1.35,1.35,0,0,1,1.72-.86l.17.06a1.36,1.36,0,0,1,.86,1.68,62,62,0,0,1-3,7.59,1.35,1.35,0,0,0,1.23,1.92h4.56a1.36,1.36,0,0,1,1.36,1.36V146a1.35,1.35,0,0,1-1.36,1.35H19.12a1.36,1.36,0,0,0-1.36,1.36v3.95A1.35,1.35,0,0,0,19.12,154H29.29a1.36,1.36,0,0,1,1.36,1.36v.09a1.36,1.36,0,0,1-1.36,1.36H20.92a.76.76,0,0,0-.57,1.27c2.59,2.89,5.11,5.86,7.54,8.94a1.37,1.37,0,0,1-.2,1.9l0,0a1.34,1.34,0,0,1-1.95-.24Q23,165.16,19.55,161a1,1,0,0,0-1.79.65v16.46A1.36,1.36,0,0,1,16.4,179.5Zm.85-57.2h.15a1.36,1.36,0,0,1,1.36,1.36v3A1.36,1.36,0,0,0,20.12,128H29a1.35,1.35,0,0,1,1.36,1.35v.09A1.36,1.36,0,0,1,29,130.83H4a1.36,1.36,0,0,1-1.35-1.36v-.09A1.35,1.35,0,0,1,4,128H14.54a1.35,1.35,0,0,0,1.35-1.36v-3A1.36,1.36,0,0,1,17.25,122.3ZM9.44,133.86a53.11,53.11,0,0,1,2.11,7.89,1.36,1.36,0,0,1-1,1.58l-.16,0a1.37,1.37,0,0,1-1.66-1.06,57.2,57.2,0,0,0-2-7.48,1.36,1.36,0,0,1,.9-1.74l.15,0A1.36,1.36,0,0,1,9.44,133.86Zm29.66,7.92a1.36,1.36,0,0,0-1.36,1.36v11a31.51,31.51,0,0,1-2.05,11.45,39.16,39.16,0,0,1-6.84,11.06,1.38,1.38,0,0,1-2,.1l-.32-.3a1.37,1.37,0,0,1-.07-1.89c3.48-4,5.74-7.61,6.78-10.77a29.8,29.8,0,0,0,1.62-9.65V127.28c-.06-.62.19-.93.68-.93a129.85,129.85,0,0,0,17.57-1.9,1.36,1.36,0,0,1,1.52.84l.06.16a1.37,1.37,0,0,1-1,1.83,118.14,118.14,0,0,1-15.58,1.8c-.32,0-.44.19-.38.5v8a1.36,1.36,0,0,0,1.36,1.36H58.23a1.36,1.36,0,0,1,1.36,1.36v.14a1.36,1.36,0,0,1-1.36,1.36H52.17a1.36,1.36,0,0,0-1.36,1.36v35.5A1.35,1.35,0,0,1,49.46,180h-.09A1.36,1.36,0,0,1,48,178.64v-35.5a1.36,1.36,0,0,0-1.36-1.36Z"/><path class="a" d="M63.48,156.91a1.77,1.77,0,0,1-.38-2.06,119.18,119.18,0,0,0,4.75-17.51,1,1,0,0,0-.94-1.16H63.38a1.4,1.4,0,0,1-1.4-1.4h0a1.4,1.4,0,0,1,1.4-1.4h4.37a1,1,0,0,0,1-.83l1-7.5a1.4,1.4,0,0,1,1.63-1.19h0a1.4,1.4,0,0,1,1.14,1.57l-1,6.85a1,1,0,0,0,1,1.09h7.92c.44,0,.62.25.5.87v.13c-.37,11-2.21,20.59-5.52,28.56A.94.94,0,0,0,75.7,164l3.83,3.34a1.39,1.39,0,0,1,.24,1.84l0,0a1.4,1.4,0,0,1-2.08.26L74.8,167a.94.94,0,0,0-1.44.24,51,51,0,0,1-8.5,10.43,1.42,1.42,0,0,1-1.76.14l-.06,0a1.41,1.41,0,0,1-.14-2.21,42.34,42.34,0,0,0,6.22-6.8.21.21,0,0,0,0-.06l2.24-3.64a1,1,0,0,0-.18-1.22Zm13.73-20.73H71.74a1,1,0,0,0-.94.77,169.62,169.62,0,0,1-4.65,18c-.12.31,0,.62.44.93l6.47,5.79.44-1.06a58,58,0,0,0,3.17-10.52,95.67,95.67,0,0,0,1.5-12.91A1,1,0,0,0,77.21,136.18Zm4.19,20.76v-.06a1.4,1.4,0,0,1,1.4-1.4H97.37a1,1,0,0,0,1-1v-4a1,1,0,0,0-1-1H88.25a1.27,1.27,0,0,1-1.37-1.43V131.79a1,1,0,0,0-1-1H82.06a1.4,1.4,0,0,1-1.4-1.4h0a1.39,1.39,0,0,1,1.4-1.4h3.86a1,1,0,0,0,1-1V124a1.4,1.4,0,0,1,1.4-1.4h.06a1.4,1.4,0,0,1,1.4,1.4v3.06a1,1,0,0,0,1,1h17.57a1,1,0,0,0,1-1V124a1.4,1.4,0,0,1,1.4-1.4h.06a1.4,1.4,0,0,1,1.4,1.4v3.06a1,1,0,0,0,1,1h4.24a1.4,1.4,0,0,1,1.4,1.4h0a1.4,1.4,0,0,1-1.4,1.4h-4.24a1,1,0,0,0-1,1v15.38a2.39,2.39,0,0,1-2.39,2.39h-7.61a1,1,0,0,0-1,1v4a1,1,0,0,0,1,1h15a1.4,1.4,0,0,1,1.4,1.4v.06a1.4,1.4,0,0,1-1.4,1.4H104.11a1,1,0,0,0-.79,1.51,58.64,58.64,0,0,0,14.79,13.69,1.39,1.39,0,0,1,.19,2.19l0,0a1.42,1.42,0,0,1-1.74.13c-4.83-3.27-8.79-7.45-12.94-11.39-1.75-1.66-2.45-.37-2.45.92V178.6a1.4,1.4,0,0,1-1.4,1.4h0a1.4,1.4,0,0,1-1.4-1.4V162.76a.46.46,0,0,0-.81-.29,58.93,58.93,0,0,1-16.75,14,1.41,1.41,0,0,1-1.71-.34l-.09-.11a1.39,1.39,0,0,1,.38-2.12,59.86,59.86,0,0,0,16.7-14,1,1,0,0,0-.76-1.56H82.8A1.4,1.4,0,0,1,81.4,156.94Zm26.87-26.11H90.7a1,1,0,0,0-1,1v4.74a1,1,0,0,0,1,1h17.57a1,1,0,0,0,1-1v-4.74A1,1,0,0,0,108.27,130.83ZM89.74,145.24a1.46,1.46,0,0,0,1.46,1.46h16.57a1.46,1.46,0,0,0,1.46-1.46v-3.93a1,1,0,0,0-1-1H90.7a1,1,0,0,0-1,1Z"/><path class="a" d="M126.25,127a2.38,2.38,0,0,1,2.38-2.38H141a2.45,2.45,0,0,1,2.45,2.45v12.23a1.38,1.38,0,0,0,1.38,1.38h.92c.44,0,.56.31.56.94a47.46,47.46,0,0,1-.72,6.31A1.38,1.38,0,0,1,144,149l-.23-.05a1.38,1.38,0,0,1-1.08-1.46l.28-3.59c.06-.25-.06-.37-.38-.37H128.32a1.63,1.63,0,0,0-1.64,1.63v2.64a1.38,1.38,0,0,1-1.38,1.39h-.1a1.38,1.38,0,0,1-1.38-1.39v-6.64c0-.31.19-.5.56-.5h1.87Zm3,52h-.09a1.38,1.38,0,0,1-1.39-1.38V150.45a2,2,0,0,1,2-2h12c.49,0,.74.25.74.62v26.83a3,3,0,0,1-1.37,2.68c-.91.59-2.51.67-4.72.21a1.41,1.41,0,0,1-1.13-1.37v-.08a1.39,1.39,0,0,1,1.8-1.32,2.43,2.43,0,0,0,1.75.07,1.48,1.48,0,0,0,.81-1.31v-4.84a1.38,1.38,0,0,0-1.39-1.38H132a1.38,1.38,0,0,0-1.39,1.38v7.63A1.38,1.38,0,0,1,129.22,178.94Zm2.49-38.28a1.38,1.38,0,0,0,1.38-1.38V132c0-.44.19-.62.56-.62h5.59a1.39,1.39,0,0,0,1.39-1.39v-.71a1.82,1.82,0,0,0-1.82-1.82h-7.88a1.82,1.82,0,0,0-1.82,1.82v10a1.38,1.38,0,0,0,1.38,1.38Zm6.53,16.5a1.39,1.39,0,0,0,1.39-1.39v-4.28l-.25-.18h-8.65l-.13.18v4.28a1.39,1.39,0,0,0,1.39,1.39Zm1.39,7.14v-2.9a1.38,1.38,0,0,0-1.39-1.38H132a1.38,1.38,0,0,0-1.39,1.38v2.9a1.38,1.38,0,0,0,1.39,1.38h6.25A1.38,1.38,0,0,0,139.63,164.3Zm1-25v-3.64a1.39,1.39,0,0,0-1.39-1.39h-1.46a1.82,1.82,0,0,0-1.82,1.82v3.21a1.38,1.38,0,0,0,1.38,1.38h1.9A1.38,1.38,0,0,0,140.63,139.28Zm14,29.79a1.36,1.36,0,0,0-1.24-.77h-2.95c-.25,0-.37-.13-.37-.44v-8.7a1.75,1.75,0,0,1,1.75-1.75h23.77c.31,0,.43.12.43.37v8.7a1.82,1.82,0,0,1-1.82,1.82h-1a1.38,1.38,0,0,0-1.31.91l-1,2.88-.53,1.43a1.38,1.38,0,0,0,1.29,1.87h6a1.39,1.39,0,0,1,1.39,1.39v.09a1.39,1.39,0,0,1-1.39,1.39H148.42a1.38,1.38,0,0,1-1.38-1.39v-.09a1.38,1.38,0,0,1,1.38-1.39h6.79a1.38,1.38,0,0,0,1.29-1.87Q155.45,170.69,154.65,169.07Zm24.57-17.31v.09a1.39,1.39,0,0,1-1.39,1.39H148.67a1.39,1.39,0,0,1-1.39-1.39v-.09a1.39,1.39,0,0,1,1.39-1.39h29.16A1.39,1.39,0,0,1,179.22,151.76ZM176,127a1.76,1.76,0,0,1,1.76,1.76v17c0,.31-.12.43-.37.43H149.22c-.25,0-.32-.12-.32-.43v-17a1.76,1.76,0,0,1,1.76-1.76H156a1.38,1.38,0,0,0,1.39-1.38v-1a1.38,1.38,0,0,1,1.38-1.39h.1a1.38,1.38,0,0,1,1.38,1.39v1a1.38,1.38,0,0,0,1.39,1.38h2.64a1.38,1.38,0,0,0,1.39-1.38v-1a1.38,1.38,0,0,1,1.38-1.39h.1a1.38,1.38,0,0,1,1.38,1.39v1A1.38,1.38,0,0,0,169.9,127Zm-18.59,4.25a1.39,1.39,0,0,0-1.39-1.39h-4.15l-.13.13v3.65a1.39,1.39,0,0,0,1.39,1.39H156a1.39,1.39,0,0,0,1.39-1.39ZM156,137.92h-2.89a1.39,1.39,0,0,0-1.39,1.39v3.84l.13.19H156a1.39,1.39,0,0,0,1.39-1.39v-2.64A1.39,1.39,0,0,0,156,137.92Zm-2.91,22.35-.12.12v4.86l.12.18H173l.19-.18v-4.86l-.19-.12Zm13.85,14.23,1.63-4.33a1.39,1.39,0,0,0-1.3-1.87h-7.89a1.39,1.39,0,0,0-1.29,1.9l1.75,4.33a1.38,1.38,0,0,0,1.28.86h4.52A1.39,1.39,0,0,0,166.92,174.5Zm-2.66-44.61h-2.64a1.39,1.39,0,0,0-1.39,1.39v2.39a1.39,1.39,0,0,0,1.39,1.39h2.64a1.39,1.39,0,0,0,1.39-1.39v-2.39A1.39,1.39,0,0,0,164.26,129.89Zm0,8h-2.64a1.39,1.39,0,0,0-1.39,1.39V142a1.39,1.39,0,0,0,1.39,1.39h2.64a1.39,1.39,0,0,0,1.39-1.39v-2.64A1.39,1.39,0,0,0,164.26,137.92Zm5.64-2.86h3.64a1.38,1.38,0,0,0,1.38-1.39V130l-.19-.13H169.9a1.39,1.39,0,0,0-1.39,1.39v2.39A1.39,1.39,0,0,0,169.9,135.06ZM168.51,142a1.39,1.39,0,0,0,1.39,1.39h4.83l.19-.19v-3.84a1.38,1.38,0,0,0-1.38-1.39H169.9a1.39,1.39,0,0,0-1.39,1.39Z"/><path class="a" d="M187.23,166.87h0a1.56,1.56,0,0,1-1.56-1.56V136.68a2.62,2.62,0,0,1,2.62-2.62h19.17a1.55,1.55,0,0,0,1.56-1.55v-7.22a1.55,1.55,0,0,1,1.55-1.56h0a1.56,1.56,0,0,1,1.56,1.56v7.22a1.54,1.54,0,0,0,1.55,1.55h21.17a1,1,0,0,1,1.12,1.06v30.19a1.56,1.56,0,0,1-1.56,1.56h0a1.56,1.56,0,0,1-1.56-1.56v-1.56a1.54,1.54,0,0,0-1.55-1.55H213.68a1.54,1.54,0,0,0-1.55,1.55v14.44a1.56,1.56,0,0,1-1.56,1.56h0a1.55,1.55,0,0,1-1.55-1.56V163.75a1.55,1.55,0,0,0-1.56-1.55H190.34a1.54,1.54,0,0,0-1.55,1.55v1.56A1.56,1.56,0,0,1,187.23,166.87Zm21.79-9V138.48a1.55,1.55,0,0,0-1.56-1.55H189.22c-.31,0-.5.12-.43.43v20.48a1.55,1.55,0,0,0,1.55,1.56h17.12A1.56,1.56,0,0,0,209,157.84Zm23.83,0V139a2,2,0,0,0-2-2H213.68a1.54,1.54,0,0,0-1.55,1.55v19.36a1.55,1.55,0,0,0,1.55,1.56H231.3A1.55,1.55,0,0,0,232.85,157.84Z"/><path class="a" d="M249.64,134.67c-.12,10.23-1.65,22.25-4.68,36.1a1.44,1.44,0,0,1-1.63,1.11l-.31,0a1.42,1.42,0,0,1-1.16-1.7c2.93-14.39,4.5-26.26,4.71-35.52a1.41,1.41,0,0,1,1.57-1.38l.21,0A1.42,1.42,0,0,1,249.64,134.67Zm9.29-7.95a1.43,1.43,0,0,1,1.42,1.42v44.52a1.48,1.48,0,0,0,1.81,1.92h20.41a2.16,2.16,0,0,0,1.87-.8c.86-1.32,1.35-5.5,1.47-12.23a1.42,1.42,0,0,1,1.76-1.35h0a1.43,1.43,0,0,1,1.09,1.36c.17,8.18-.46,13.09-1.83,14.58a4.23,4.23,0,0,1-3.49,1.31H260.91a3.18,3.18,0,0,1-2-.56,3.89,3.89,0,0,1-1.43-3.74v-45a1.43,1.43,0,0,1,1.42-1.42Zm12.64-2a172.15,172.15,0,0,1,5.84,32.72,1.43,1.43,0,0,1-1.17,1.54l-.31.06a1.43,1.43,0,0,1-1.67-1.26c-1.39-13.34-3.26-24-5.68-32.17a1.42,1.42,0,0,1,1.05-1.8l.25-.06A1.44,1.44,0,0,1,271.57,124.68ZM290.83,132c3.3,10.11,5.79,22.5,7.52,37.06a1.43,1.43,0,0,1-1.17,1.58l-.31.06a1.43,1.43,0,0,1-1.66-1.24c-1.93-15.16-4.38-27.27-7.37-36.51a1.42,1.42,0,0,1,1-1.82l.27-.06A1.42,1.42,0,0,1,290.83,132Z"/></svg>