<svg xmlns="http://www.w3.org/2000/svg" viewBox="0 0 279 108"><defs><style>.a{fill:#fff;}</style></defs><title>工作區域 5</title><rect class="a" x="0.29" y="38.7" width="1.32" height="40.68"/><rect class="a" x="7.54" y="36.06" width="1.32" height="43.32"/><rect class="a" x="14.8" y="34.52" width="1.32" height="45.07"/><rect class="a" x="21.84" y="22.65" width="1.32" height="56.73"/><rect class="a" x="29.09" y="10.55" width="1.32" height="68.82"/><rect class="a" x="36.35" y="7.92" width="1.32" height="71.46"/><rect class="a" x="43.6" y="12.31" width="1.32" height="67.06"/><rect class="a" x="50.86" y="2.2" width="1.32" height="77.18"/><rect class="a" x="58.11" width="1.32" height="79.37"/><rect class="a" x="65.37" y="3.96" width="1.32" height="75.42"/><rect class="a" x="72.63" y="40.46" width="1.32" height="38.92"/><rect class="a" x="79.66" y="45.29" width="1.32" height="34.08"/><rect class="a" x="86.92" y="42.22" width="1.32" height="37.16"/><rect class="a" x="94.17" y="28.58" width="1.32" height="50.79"/><rect class="a" x="101.43" y="15.61" width="1.32" height="63.98"/><rect class="a" x="108.69" y="4.84" width="1.32" height="74.54"/><rect class="a" x="115.94" y="9.23" width="1.32" height="70.14"/><rect class="a" x="123.2" y="13.63" width="1.32" height="65.74"/><rect class="a" x="130.23" y="26.61" width="1.32" height="52.77"/><rect class="a" x="137.49" y="21.99" width="1.32" height="57.61"/><rect class="a" x="144.75" y="14.95" width="1.32" height="64.42"/><rect class="a" x="152" y="7.04" width="1.32" height="72.34"/><rect class="a" x="159.26" y="9.23" width="1.32" height="70.14"/><rect class="a" x="166.51" y="6.82" width="1.32" height="72.78"/><rect class="a" x="181.24" y="16.27" width="1.32" height="63.1"/><rect class="a" x="188.5" y="37.38" width="1.32" height="42"/><rect class="a" x="195.76" y="32.76" width="1.32" height="46.61"/><rect class="a" x="202.79" y="29.68" width="1.32" height="49.69"/><rect class="a" x="210.05" y="13.19" width="1.32" height="66.18"/><rect class="a" x="217.3" y="10.77" width="1.32" height="68.6"/><rect class="a" x="224.56" y="9.23" width="1.32" height="70.14"/><rect class="a" x="231.82" y="9.02" width="1.32" height="70.58"/><rect class="a" x="239.07" y="13.19" width="1.32" height="66.18"/><rect class="a" x="246.33" y="16.49" width="1.32" height="62.88"/><rect class="a" x="253.36" y="12.09" width="1.32" height="67.28"/><rect class="a" x="260.62" y="27.92" width="1.32" height="51.45"/><rect class="a" x="267.87" y="25.73" width="1.32" height="53.65"/><rect class="a" x="275.13" y="38.48" width="1.32" height="40.9"/><path class="a" d="M173.77,4.62h1.32V79.37h-1.32Z"/><polygon class="a" points="15.52 104.92 1.23 86.01 1.23 86.01 0.79 86.01 0.79 107.56 2.11 107.56 2.11 89.09 16.4 108 16.4 108 16.62 108 16.62 86.45 15.52 86.45 15.52 104.92"/><polygon class="a" points="23.66 97.45 33.55 97.45 33.55 96.35 23.66 96.35 23.66 87.55 34.65 87.55 34.65 86.45 22.34 86.45 22.34 107.56 35.09 107.56 35.09 106.46 23.66 106.46 23.66 97.45"/><polygon class="a" points="57.52 104.7 51.14 86.01 50.92 86.01 50.7 86.01 44.33 104.7 38.83 86.45 38.83 86.45 37.51 86.45 44.11 108 44.11 108 44.33 108 50.92 89.09 57.3 108 57.74 108 64.11 86.45 63.02 86.45 57.52 104.7"/><polygon class="a" points="85.44 98.33 75.99 86.01 75.99 86.01 75.77 86.01 75.77 107.56 76.87 107.56 76.87 89.09 85.22 100.08 85.22 100.08 85.44 100.08 94.02 89.09 94.02 107.56 95.12 107.56 95.12 86.01 94.9 86.01 85.44 98.33"/><polygon class="a" points="102.15 97.45 112.05 97.45 112.05 96.35 102.15 96.35 102.15 87.55 113.15 87.55 113.15 86.45 101.05 86.45 101.05 107.56 113.59 107.56 113.59 106.46 102.15 106.46 102.15 97.45"/><path class="a" d="M122.82,86.45H118v21.11h4.84c6.82,0,11.21-4,11.21-10.55C133.81,90.63,129.42,86.45,122.82,86.45Zm-.22,1.1c6.16,0,9.9,3.52,9.9,9.46s-3.74,9.45-9.9,9.45h-3.3V87.77h3.3Z"/><rect class="a" x="138.21" y="86.45" width="1.32" height="21.11"/><path class="a" d="M152.28,86h-.22l-8.57,21.55h1.32l2.42-6.16h10.11l2.42,6.16h1.32L152.28,86Zm4.4,14.29h-9l4.61-11.43Z"/><path class="a" d="M188.56,102.94A9.56,9.56,0,0,1,171.41,97c0-5.5,4-9.68,9.24-9.68a9.07,9.07,0,0,1,7.25,3.3h0l.88-.66v-.22A10.22,10.22,0,0,0,180.65,86a10.48,10.48,0,0,0-10.56,10.78,10.61,10.61,0,0,0,3.08,7.69,11,11,0,0,0,7.7,3.08,10.51,10.51,0,0,0,8.57-4.18v-.22l-.88-.22Z"/><polygon class="a" points="194.94 97.45 204.61 97.45 204.61 96.35 194.94 96.35 194.94 87.55 205.93 87.55 205.93 86.45 193.62 86.45 193.62 107.56 206.37 107.56 206.37 106.46 194.94 106.46 194.94 97.45"/><polygon class="a" points="225.28 104.92 210.99 86.01 210.99 86.01 210.55 86.01 210.55 107.56 211.87 107.56 211.87 89.09 225.94 108 226.16 108 226.38 108 226.38 86.45 225.28 86.45 225.28 104.92"/><polygon class="a" points="229.9 87.55 236.72 87.55 236.72 107.56 237.81 107.56 237.81 87.55 244.63 87.55 244.63 86.45 229.9 86.45 229.9 87.55"/><polygon class="a" points="249.25 97.45 259.14 97.45 259.14 96.35 249.25 96.35 249.25 87.55 260.24 87.55 260.24 86.45 248.15 86.45 248.15 107.56 260.68 107.56 260.68 106.46 249.25 106.46 249.25 97.45"/><path class="a" d="M272.78,98.11a5.66,5.66,0,0,0,4.83-5.72c0-3.74-2.64-5.94-6.59-5.94h-5.94v21.11h1.32V98.33h5.06l5.71,9h1.54ZM266.4,87.55H271c3.29,0,5.27,1.76,5.27,4.84,0,2.86-2,4.84-5.27,4.84H266.4Z"/></svg>