<svg width="620" height="420" viewBox="0 0 620 420" fill="none" xmlns="http://www.w3.org/2000/svg">
<rect width="620" height="420" fill="#FAFAFA"/>
<path d="M108.465 35.152C107.481 37.96 105.873 41.056 104.289 43C104.985 43.288 106.233 43.96 106.785 44.368C108.297 42.256 110.025 38.944 111.201 35.896L108.465 35.152ZM119.577 36.256C121.161 38.752 123.057 42.16 123.921 44.272L126.393 42.808C125.457 40.72 123.537 37.528 121.905 35.056L119.577 36.256ZM120.945 44.056C117.969 48.952 111.897 50.704 103.833 51.376C104.361 52.096 104.937 53.272 105.177 54.112C113.769 53.152 120.177 50.944 123.585 45.208L120.945 44.056ZM113.529 31.648V46.648H116.409V31.648H113.529ZM133.233 31.528C132.201 34.648 130.329 37.72 128.169 39.592C128.865 40 130.089 40.96 130.641 41.464C132.777 39.304 134.889 35.848 136.161 32.272L133.233 31.528ZM133.737 34.264L132.345 37.048H149.001V34.264H133.737ZM132.033 39.928V47.656H134.937V42.616H148.449V39.928H132.033ZM128.241 46.24V49.024H150.321V46.24H128.241ZM139.089 35.704V54.16H142.065V35.704H139.089ZM161.097 35.248V37.288H174.249V35.248H161.097ZM171.489 31.624C169.161 32.2 164.961 32.488 161.409 32.584C161.649 33.088 161.937 33.904 162.033 34.432C165.729 34.408 170.241 34.096 173.289 33.352L171.489 31.624ZM170.217 35.896L168.369 36.544C169.401 38.512 171.225 40.48 173.193 41.464C173.553 40.84 174.297 40 174.825 39.544C172.977 38.848 171.129 37.36 170.217 35.896ZM161.025 43.936V54.112H163.497V46.024H172.137V43.936H161.025ZM164.577 46.864V52.48H166.593V46.864H164.577ZM171.537 43.936V51.496C171.537 51.736 171.441 51.808 171.153 51.832C170.913 51.832 170.001 51.832 169.185 51.808C169.521 52.432 169.905 53.416 170.025 54.112C171.393 54.112 172.401 54.064 173.145 53.704C173.913 53.32 174.129 52.648 174.129 51.544V43.936H171.537ZM165.657 46.864V48.472H168.537V49.792H165.657V51.376H170.505V46.864H165.657ZM165.705 40.096H169.473V41.344H165.705V40.096ZM163.425 38.296V43.096H171.897V38.296H163.425ZM165.537 33.28C164.961 35.872 163.257 38.44 160.497 39.736C160.929 40.144 161.601 41.008 161.937 41.536C165.081 39.976 167.097 36.928 168.033 33.688L165.537 33.28ZM155.673 35.848V40.264C155.673 43.792 155.313 48.664 151.833 52.048C152.361 52.384 153.417 53.392 153.801 53.92C157.593 50.224 158.265 44.248 158.265 40.288V35.848H155.673ZM154.329 34.384V37H160.665V34.384H154.329ZM152.289 40.6V43.264H161.073V40.6H152.289ZM157.713 43.96L156.033 45.448C156.921 46.744 158.649 49.504 159.441 51.112L161.313 48.76C160.785 48.016 158.409 44.704 157.713 43.96ZM153.681 31.624C153.345 34.288 152.769 37.024 151.785 38.8C152.361 39.112 153.417 39.856 153.897 40.24C154.977 38.248 155.769 35.128 156.201 32.08L153.681 31.624ZM177.153 33.184V35.992H197.577V33.184H177.153ZM187.881 41.272V44.104H196.353V41.272H187.881ZM176.337 50.44V53.248H198.273V50.44H176.337ZM186.465 34.312V51.808H189.537V34.312H186.465ZM179.289 39.712V51.952H182.289V39.712H179.289ZM200.361 47.464V49.768H222.129V47.464H200.361ZM205.041 43.36V45.4H215.553V43.36H205.041ZM210.105 46.792V51.376C210.105 51.688 210.009 51.76 209.625 51.76C209.241 51.76 207.801 51.76 206.649 51.712C207.009 52.408 207.417 53.392 207.561 54.136C209.361 54.136 210.681 54.136 211.665 53.776C212.673 53.392 212.937 52.768 212.937 51.472V46.792H210.105ZM214.833 43.36V43.84C213.873 44.752 211.809 46.072 210.105 46.792C210.465 47.128 211.113 47.824 211.401 48.256C213.609 47.344 215.961 46 217.761 44.704L216.129 43.216L215.529 43.36H214.833ZM200.769 40.264V45.208H203.505V42.352H218.985V45.208H221.841V40.264H200.769ZM217.833 32.416C217.737 35.296 217.473 38.944 217.161 41.296H219.921C220.185 39.016 220.425 35.368 220.569 32.416H217.833ZM214.521 32.416V34.216H218.961V32.416H214.521ZM207.009 31.744C205.713 32.176 203.577 32.824 202.137 33.064L203.145 34.648C204.609 34.408 206.697 33.976 208.209 33.4L207.009 31.744ZM203.529 35.032V36.808H208.017V35.032H203.529ZM203.601 37.648V39.424H208.089V37.648H203.601ZM214.665 35.032V36.808H218.721V35.032H214.665ZM214.545 37.648V39.424H218.577V37.648H214.545ZM212.169 31.768C211.281 32.944 209.673 34.024 208.017 34.744C208.473 35.032 209.193 35.68 209.529 36.016C211.161 35.176 212.961 33.784 214.041 32.296L212.169 31.768ZM208.521 33.04C210.009 33.808 211.857 34.984 212.721 35.824L214.113 34.6C213.153 33.76 211.305 32.632 209.841 31.936L208.521 33.04ZM212.193 35.824C211.257 37.072 209.529 38.224 207.825 38.968C208.233 39.28 208.953 40.024 209.265 40.384C211.017 39.472 212.913 37.984 214.065 36.376L212.193 35.824ZM208.401 37.144C209.985 37.984 211.929 39.28 212.841 40.192L214.257 38.944C213.273 38.032 211.281 36.808 209.745 36.04L208.401 37.144ZM202.137 33.064L202.617 41.176H205.305L204.873 33.76L202.137 33.064ZM232.953 34.96V37.624H246.297V34.96H232.953ZM235.785 37.648C234.873 39.232 233.289 41.176 231.777 42.328C232.401 42.784 233.313 43.576 233.769 44.128C235.353 42.808 237.081 40.768 238.329 38.824L235.785 37.648ZM240.297 38.992C241.833 40.456 243.609 42.544 244.329 43.984L246.441 42.136C245.649 40.744 243.777 38.776 242.241 37.36L240.297 38.992ZM237.009 42.016L234.513 42.64C236.433 48.184 239.577 52.144 244.929 54.016C245.361 53.2 246.225 52 246.873 51.424C241.833 49.96 238.569 46.528 237.009 42.016ZM236.865 32.32C237.561 33.256 238.281 34.6 238.593 35.464L241.257 34.336C240.921 33.472 240.153 32.272 239.409 31.36L236.865 32.32ZM224.481 36.352V39.016H232.353V36.352H224.481ZM227.337 31.624V54.16H229.953V31.624H227.337ZM227.025 38.176C226.473 41.272 225.177 45.184 223.689 47.248C224.145 48.016 224.793 49.312 225.033 50.128C226.617 47.584 227.937 42.76 228.561 38.776L227.025 38.176ZM229.929 39.736L228.657 40.888C229.353 42.184 230.769 45.136 231.321 46.696L232.953 44.56C232.521 43.792 230.481 40.456 229.929 39.736ZM241.065 41.992C239.721 46.672 236.505 50.08 231.609 51.928C232.185 52.432 233.049 53.56 233.409 54.184C238.761 52 242.145 48.256 243.825 42.712L241.065 41.992ZM261.633 39.568V42.232H270.489V39.568H261.633ZM248.553 34V36.352H259.353V34H248.553ZM248.313 43.552V45.976H259.329V43.552H248.313ZM248.169 39.352V41.728H259.737V39.352H248.169ZM265.449 40.744V54.04H268.257V40.744H265.449ZM249.825 36.808C250.137 37.648 250.425 38.8 250.545 39.52L252.921 38.848C252.801 38.152 252.465 37.072 252.105 36.256L249.825 36.808ZM255.705 36.232C255.441 37.24 254.937 38.68 254.529 39.616L256.857 40.12C257.313 39.256 257.793 38.008 258.321 36.736L255.705 36.232ZM267.849 31.84C266.097 32.656 263.193 33.424 260.553 33.904C260.865 34.504 261.273 35.488 261.393 36.088C264.249 35.656 267.561 34.936 270.081 33.952L267.849 31.84ZM251.937 32.08C252.393 33.16 252.897 34.6 253.089 35.488L256.113 34.672C255.897 33.784 255.321 32.416 254.841 31.384L251.937 32.08ZM260.553 33.904V42.52C260.553 45.64 260.409 49.648 258.633 52.384C259.233 52.696 260.385 53.584 260.841 54.088C262.905 51.016 263.217 46.048 263.217 42.52V33.904H260.553ZM256.113 47.512C256.785 48.616 257.601 50.152 257.985 51.112L259.929 49.888C259.545 48.976 258.729 47.56 257.985 46.456L256.113 47.512ZM250.017 46.744C249.513 48.232 248.721 49.912 247.881 51.016C248.433 51.328 249.369 51.976 249.777 52.336C250.617 51.088 251.625 49.096 252.225 47.392L250.017 46.744ZM252.801 40.672V53.992H255.609V40.672H252.801ZM276.777 32.968V35.896H283.569V32.968H276.777ZM282.153 32.968C282.153 37.864 283.209 48.592 292.353 54.088C292.857 53.368 294.009 52.096 294.681 51.568C285.777 46.36 285.129 37.528 285.129 32.968H282.153ZM281.121 38.224C279.825 44.584 276.945 49.24 271.929 51.784C272.673 52.312 274.017 53.512 274.545 54.136C279.561 51.112 282.753 45.952 284.433 38.824L281.121 38.224ZM304.953 34.96V37.624H318.297V34.96H304.953ZM307.785 37.648C306.873 39.232 305.289 41.176 303.777 42.328C304.401 42.784 305.313 43.576 305.769 44.128C307.353 42.808 309.081 40.768 310.329 38.824L307.785 37.648ZM312.297 38.992C313.833 40.456 315.609 42.544 316.329 43.984L318.441 42.136C317.649 40.744 315.777 38.776 314.241 37.36L312.297 38.992ZM309.009 42.016L306.513 42.64C308.433 48.184 311.577 52.144 316.929 54.016C317.361 53.2 318.225 52 318.873 51.424C313.833 49.96 310.569 46.528 309.009 42.016ZM308.865 32.32C309.561 33.256 310.281 34.6 310.593 35.464L313.257 34.336C312.921 33.472 312.153 32.272 311.409 31.36L308.865 32.32ZM296.481 36.352V39.016H304.353V36.352H296.481ZM299.337 31.624V54.16H301.953V31.624H299.337ZM299.025 38.176C298.473 41.272 297.177 45.184 295.689 47.248C296.145 48.016 296.793 49.312 297.033 50.128C298.617 47.584 299.937 42.76 300.561 38.776L299.025 38.176ZM301.929 39.736L300.657 40.888C301.353 42.184 302.769 45.136 303.321 46.696L304.953 44.56C304.521 43.792 302.481 40.456 301.929 39.736ZM313.065 41.992C311.721 46.672 308.505 50.08 303.609 51.928C304.185 52.432 305.049 53.56 305.409 54.184C310.761 52 314.145 48.256 315.825 42.712L313.065 41.992ZM329.385 31.648C329.265 35.752 329.721 46.528 319.953 51.784C320.889 52.432 321.825 53.344 322.353 54.112C332.385 48.208 332.529 36.616 332.673 31.648H329.385ZM332.409 34.576L329.625 34.888C329.985 37.288 330.777 49.288 340.617 53.968C341.049 53.152 341.865 52.168 342.729 51.496C333.369 47.32 332.601 36.52 332.409 34.576ZM358.617 36.064V38.584H366.537V36.064H358.617ZM359.145 31.6C358.473 35.752 357.345 40.024 355.785 42.712C356.313 43.12 357.249 44.056 357.633 44.536C359.337 41.416 360.705 36.616 361.521 32.056L359.145 31.6ZM362.553 37.696C361.953 45.088 360.057 49.696 354.633 52.12C355.089 52.624 355.785 53.704 356.025 54.256C361.929 51.256 364.161 46.168 365.001 37.888L362.553 37.696ZM359.985 38.392L357.969 38.68C358.953 45.64 360.705 51.28 365.025 54.112C365.409 53.392 366.249 52.36 366.825 51.88C362.721 49.6 360.849 44.392 359.985 38.392ZM349.593 31.624V44.44H351.753V31.624H349.593ZM347.865 34.864H353.625V38.416H347.865V34.864ZM345.705 33.064V40.24H355.881V33.064H345.705ZM347.673 42.544H353.721V43.6H347.673V42.544ZM345.297 40.936V45.232H356.217V40.936H345.297ZM344.025 35.56V37.6H346.425V37.456H354.465V37.6H357.153V35.56H354.465V35.704H346.425V35.56H344.025ZM345.513 50.08L347.817 50.608C348.921 49.144 350.409 46.864 351.369 44.8L349.089 44.296C348.249 46.216 346.737 48.568 345.513 50.08ZM345.513 50.08C348.633 50.824 352.401 52.288 354.489 53.464L356.289 51.856C354.081 50.728 350.385 49.312 347.337 48.592L345.513 50.08ZM352.761 45.592V46.696C352.761 48.472 351.897 51.04 343.785 52.288C344.193 52.744 344.721 53.608 344.913 54.136C353.841 52.648 355.017 49.312 355.017 46.792V45.592H352.761ZM344.289 46.288V48.208H357.009V46.288H344.289ZM374.111 50.92V53.464H395.375V50.92H374.111ZM376.079 46.48V48.88H393.335V46.48H376.079ZM379.919 35.08H389.351V38.416H379.919V35.08ZM377.087 32.536V40.96H392.351V32.536H377.087ZM383.159 43.48V52.288H386.207V43.48H383.159ZM391.703 41.44C387.743 42.208 380.927 42.592 375.023 42.688C375.263 43.216 375.551 44.248 375.599 44.872C381.623 44.824 388.703 44.44 393.743 43.504L391.703 41.44ZM397.703 32.872V35.536H406.151V32.872H397.703ZM397.919 39.736V42.376H405.887V39.736H397.919ZM397.127 48.064L397.847 50.8C400.343 50.056 403.607 49.12 406.631 48.208L406.247 45.688C402.935 46.6 399.455 47.536 397.127 48.064ZM409.751 38.536H416.063V40.024H409.751V38.536ZM409.751 42.232H416.063V43.696H409.751V42.232ZM409.751 34.888H416.063V36.352H409.751V34.888ZM407.087 32.536V46.072H418.871V32.536H407.087ZM413.135 45.016V50.8C413.135 53.224 413.615 54.04 415.847 54.04C416.255 54.04 417.239 54.04 417.671 54.04C419.423 54.04 420.095 53.128 420.335 49.84C419.615 49.672 418.463 49.216 417.911 48.784C417.863 51.184 417.767 51.568 417.359 51.568C417.143 51.568 416.519 51.568 416.351 51.568C415.967 51.568 415.895 51.496 415.895 50.776V45.016H413.135ZM408.887 45.712C408.575 48.76 407.951 50.8 403.391 51.952C403.967 52.504 404.687 53.608 404.975 54.328C410.303 52.72 411.335 49.816 411.695 45.712H408.887ZM400.607 33.928V48.448L403.391 48.04V33.928H400.607ZM421.943 33.376V36.28H443.495V33.376H421.943ZM430.655 35.992V54.112H433.751V35.992H430.655ZM432.287 41.8C434.999 43.264 438.647 45.52 440.351 47.032L442.487 44.392C440.639 42.904 436.871 40.816 434.255 39.52L432.287 41.8ZM458.375 33.64V35.776H464.759V33.64H458.375ZM455.015 48.376V50.872H467.807V48.376H455.015ZM464.279 33.64V34.024C462.647 37.552 458.231 39.808 453.335 40.696C453.839 41.272 454.439 42.328 454.727 43C460.103 41.752 464.879 39.184 467.039 34.384L465.263 33.544L464.807 33.64H464.279ZM458.375 35.536L456.071 36.28C458.255 39.736 461.855 41.992 466.655 42.928C466.991 42.232 467.735 41.152 468.311 40.6C463.799 39.928 460.127 38.152 458.375 35.536ZM459.911 42.232V54.136H462.695V42.232H459.911ZM458.567 31.648C457.559 33.448 455.831 35.536 453.335 37.096C453.935 37.504 454.775 38.464 455.159 39.088C457.991 37.072 459.959 34.72 461.375 32.2L458.567 31.648ZM446.279 32.56V54.088H448.775V35.128H451.919V32.56H446.279ZM451.391 32.56V33.352C450.983 34.912 450.095 38.008 449.303 40.096C450.911 41.8 451.295 43.36 451.295 44.512C451.319 45.232 451.175 45.76 450.839 45.976C450.647 46.12 450.383 46.168 450.095 46.168C449.783 46.192 449.399 46.192 448.919 46.12C449.327 46.84 449.567 47.92 449.591 48.616C450.191 48.616 450.791 48.616 451.271 48.544C451.823 48.472 452.303 48.304 452.687 48.016C453.503 47.44 453.863 46.384 453.863 44.824C453.863 43.408 453.503 41.704 451.823 39.808C452.615 37.96 453.479 35.584 454.199 33.544L452.279 32.464L451.871 32.56H451.391ZM455.255 45.352C454.895 47.128 454.319 49.384 453.839 50.872H456.503C456.911 49.528 457.439 47.344 457.823 45.616L455.255 45.352ZM454.391 43.528V46H467.135V43.528H454.391ZM481.175 40.192C480.479 41.752 479.279 43.312 477.911 44.32C478.511 44.656 479.519 45.352 480.023 45.76C481.391 44.584 482.783 42.712 483.623 40.816L481.175 40.192ZM481.943 41.608L480.575 43.528H489.527V41.608H481.943ZM488.927 41.608V41.968C488.759 46.192 488.567 47.704 488.255 48.112C488.087 48.328 487.919 48.376 487.607 48.376C487.319 48.376 486.719 48.352 485.975 48.28C486.263 48.784 486.503 49.6 486.527 50.152C487.463 50.176 488.351 50.176 488.855 50.104C489.455 50.056 489.959 49.888 490.343 49.384C490.895 48.736 491.135 47.008 491.327 42.472C491.351 42.184 491.351 41.608 491.351 41.608H488.927ZM482.735 44.08V46.384C482.735 47.368 482.111 48.544 478.919 49.096C479.375 49.48 479.879 50.104 480.143 50.536C483.911 49.672 484.727 48.16 484.727 46.408V44.08H482.735ZM479.759 44.416V47.68H487.799V44.416H485.903V46H481.607V44.416H479.759ZM481.367 31.48C480.695 33.184 479.495 34.864 478.127 35.944C478.703 36.28 479.711 36.952 480.191 37.336C481.559 36.112 482.951 34.096 483.767 32.08L481.367 31.48ZM482.087 32.824L480.719 34.744H489.575V32.824H482.087ZM488.831 32.824V33.184C488.687 36.952 488.495 38.344 488.231 38.704C488.063 38.896 487.919 38.944 487.631 38.944C487.343 38.944 486.743 38.944 486.071 38.872C486.335 39.328 486.551 40.072 486.575 40.6C487.487 40.648 488.351 40.624 488.831 40.576C489.431 40.504 489.911 40.36 490.295 39.88C490.799 39.256 491.015 37.72 491.183 33.664C491.207 33.4 491.231 32.824 491.231 32.824H488.831ZM482.903 35.248V37.888C482.903 38.8 482.135 39.616 479.135 39.952C479.519 40.312 479.951 40.888 480.143 41.32C483.743 40.744 484.727 39.568 484.727 37.888V35.248H482.903ZM480.023 35.56V38.68H487.727V35.56H485.879V37.096H481.799V35.56H480.023ZM470.303 34.096V36.568H478.559V34.096H470.303ZM469.727 38.536V41.08H479.063V38.536H469.727ZM474.791 43.456V45.952H478.799V43.456H474.791ZM473.279 31.624V40.144H475.847V31.624H473.279ZM473.975 40.192V50.872H476.495V40.192H473.975ZM472.799 44.992L470.735 45.616C472.535 52.36 475.823 53.536 482.111 53.536H491.015C491.183 52.672 491.663 51.352 492.119 50.68C490.031 50.8 483.887 50.776 482.159 50.776C477.095 50.776 474.191 50.032 472.799 44.992ZM470.543 42.616C470.663 45.88 470.543 49.672 468.983 52.456C469.559 52.72 470.447 53.56 470.807 54.136C472.751 50.872 472.967 46.576 472.871 42.76L470.543 42.616ZM497.927 39.472V44.608L500.519 44.44V39.472H497.927ZM493.871 35.392V37.216H504.719V35.392H493.871ZM494.663 32.824V34.552H503.879V32.824H494.663ZM497.927 31.624V36.568H500.519V31.624H497.927ZM493.751 43.528L493.871 45.544C496.655 45.352 500.519 45.112 504.263 44.848L504.287 42.976C500.423 43.216 496.415 43.432 493.751 43.528ZM496.535 36.808C496.271 37.936 495.167 38.512 493.607 38.824C493.967 39.208 494.495 40.048 494.663 40.48C496.799 39.88 498.167 38.776 498.575 36.928L496.535 36.808ZM494.687 40.528V42.232H503.927V40.528H494.687ZM495.407 46.624V48.808H511.607V46.624H495.407ZM511.007 46.624V46.984C510.743 49.816 510.407 51.112 509.975 51.472C509.735 51.664 509.471 51.688 509.015 51.688C508.487 51.688 507.215 51.664 505.991 51.568C506.447 52.264 506.783 53.344 506.831 54.136C508.199 54.184 509.495 54.184 510.263 54.112C511.151 54.04 511.775 53.848 512.375 53.296C513.071 52.6 513.503 51.016 513.839 47.728C513.911 47.368 513.959 46.624 513.959 46.624H511.007ZM503.087 45.4C502.655 49.168 501.695 51.04 494.015 51.88C494.495 52.456 495.119 53.512 495.311 54.208C503.927 53.032 505.439 50.32 506.015 45.4H503.087ZM504.623 39.424C506.447 40.504 509.063 42.04 510.335 43L511.583 40.936C510.239 40.048 507.599 38.608 505.799 37.624L504.623 39.424ZM505.175 34.216V36.52H512.375V34.216H505.175ZM511.367 34.216C511.391 40.696 511.439 45.88 514.271 45.88C515.807 45.88 516.191 44.728 516.383 42.256C515.903 41.872 515.303 41.224 514.847 40.624C514.823 42.208 514.727 43.408 514.487 43.384C513.839 43.384 513.887 39.232 513.935 34.216H511.367ZM507.503 31.624C507.431 37.6 507.311 41.32 504.095 43.528C504.623 43.936 505.343 44.8 505.631 45.352C509.447 42.76 509.831 38.32 509.951 31.624H507.503ZM499.799 36.424V37.672C499.799 39.136 500.087 39.88 501.695 39.88C502.079 39.88 502.823 39.88 503.159 39.88C503.615 39.88 504.167 39.832 504.455 39.736C504.383 39.208 504.335 38.68 504.311 38.152C504.023 38.248 503.399 38.296 503.111 38.296C502.895 38.296 502.463 38.296 502.295 38.296C501.959 38.296 501.911 38.104 501.911 37.696V36.424H499.799Z" fill="#404040"/>
<path opacity="0.5" d="M69 367H588" stroke="#404040" stroke-linecap="round"/>
<g opacity="0.5">
<path d="M68.8574 302H588.121" stroke="#404040" stroke-linecap="round" stroke-dasharray="1 3"/>
<path d="M68.8574 237H588.121" stroke="#404040" stroke-linecap="round" stroke-dasharray="1 3"/>
<path d="M68.8574 172H588.121" stroke="#404040" stroke-linecap="round" stroke-dasharray="1 3"/>
<path d="M68.8574 107H588.121" stroke="#404040" stroke-linecap="round" stroke-dasharray="1 3"/>
</g>
<path d="M80 127L203.266 213H327.511H450.777L576 250" stroke="#FFC235" stroke-width="4" stroke-linecap="round"/>
<path d="M69.8584 114H72.2424C72.4504 109.376 72.8024 106.944 75.5544 103.584V102.16H67.6984V104.128H73.0264C70.7544 107.264 70.0824 109.904 69.8584 114ZM80.7039 114.224C82.9759 114.224 84.8799 112.976 84.8799 110.8C84.8799 109.232 83.8559 108.256 82.5119 107.872V107.792C83.7759 107.312 84.4799 106.368 84.4799 105.104C84.4799 103.072 82.9279 101.952 80.6399 101.952C79.2639 101.952 78.1279 102.512 77.1039 103.392L78.3039 104.848C79.0079 104.192 79.6959 103.792 80.5439 103.792C81.5519 103.792 82.1279 104.352 82.1279 105.28C82.1279 106.336 81.4239 107.072 79.2479 107.072V108.768C81.8239 108.768 82.5119 109.488 82.5119 110.656C82.5119 111.712 81.6959 112.32 80.4799 112.32C79.4079 112.32 78.5599 111.776 77.8559 111.088L76.7359 112.576C77.5679 113.536 78.8319 114.224 80.7039 114.224ZM90.4774 114.224C92.8614 114.224 94.4614 112.864 94.4614 111.072C94.4614 109.44 93.5654 108.496 92.4774 107.904V107.824C93.2454 107.264 93.9974 106.288 93.9974 105.104C93.9974 103.216 92.6534 101.968 90.5574 101.968C88.4934 101.968 86.9734 103.184 86.9734 105.088C86.9734 106.336 87.6454 107.248 88.5414 107.904V107.968C87.4534 108.544 86.5254 109.552 86.5254 111.072C86.5254 112.928 88.2054 114.224 90.4774 114.224ZM91.2294 107.248C89.9814 106.752 89.0534 106.192 89.0534 105.088C89.0534 104.144 89.6934 103.616 90.5094 103.616C91.4854 103.616 92.0774 104.288 92.0774 105.264C92.0774 105.968 91.8054 106.64 91.2294 107.248ZM90.5254 112.56C89.4214 112.56 88.5414 111.872 88.5414 110.8C88.5414 109.92 88.9894 109.12 89.6454 108.608C91.1654 109.248 92.2694 109.744 92.2694 110.976C92.2694 112 91.5494 112.56 90.5254 112.56Z" fill="#404040"/>
<path d="M198.661 198H200.853V186.16H198.021L193.621 193.328V194.944H202.261V193.136H195.909L197.733 190.192C198.069 189.552 198.389 188.896 198.693 188.256H198.757C198.725 188.96 198.661 190.032 198.661 190.72V198ZM205.683 198H208.067C208.275 193.376 208.627 190.944 211.379 187.584V186.16H203.523V188.128H208.851C206.579 191.264 205.907 193.904 205.683 198ZM216.576 198.224C218.752 198.224 220.72 196.704 220.72 194.08C220.72 191.488 219.056 190.32 217.072 190.32C216.528 190.32 216.112 190.432 215.648 190.64L215.872 188.128H220.176V186.16H213.84L213.504 191.904L214.592 192.608C215.28 192.16 215.664 191.984 216.368 191.984C217.552 191.984 218.352 192.752 218.352 194.128C218.352 195.536 217.504 196.32 216.256 196.32C215.168 196.32 214.32 195.776 213.664 195.12L212.56 196.608C213.456 197.488 214.704 198.224 216.576 198.224Z" fill="#404040"/>
<path d="M319.169 198H321.361V186.16H318.529L314.129 193.328V194.944H322.769V193.136H316.417L318.241 190.192C318.577 189.552 318.897 188.896 319.201 188.256H319.265C319.233 188.96 319.169 190.032 319.169 190.72V198ZM326.19 198H328.574C328.782 193.376 329.134 190.944 331.886 187.584V186.16H324.03V188.128H329.358C327.086 191.264 326.414 193.904 326.19 198ZM337.036 198.224C339.308 198.224 341.212 196.976 341.212 194.8C341.212 193.232 340.188 192.256 338.844 191.872V191.792C340.108 191.312 340.812 190.368 340.812 189.104C340.812 187.072 339.26 185.952 336.972 185.952C335.596 185.952 334.46 186.512 333.436 187.392L334.636 188.848C335.34 188.192 336.028 187.792 336.876 187.792C337.884 187.792 338.46 188.352 338.46 189.28C338.46 190.336 337.756 191.072 335.58 191.072V192.768C338.156 192.768 338.844 193.488 338.844 194.656C338.844 195.712 338.028 196.32 336.812 196.32C335.74 196.32 334.892 195.776 334.188 195.088L333.068 196.576C333.9 197.536 335.164 198.224 337.036 198.224Z" fill="#404040"/>
<path d="M441.638 198H443.83V186.16H440.998L436.598 193.328V194.944H445.238V193.136H438.886L440.71 190.192C441.046 189.552 441.366 188.896 441.67 188.256H441.734C441.702 188.96 441.638 190.032 441.638 190.72V198ZM448.659 198H451.043C451.251 193.376 451.603 190.944 454.355 187.584V186.16H446.499V188.128H451.827C449.555 191.264 448.883 193.904 448.659 198ZM459.553 198.224C461.729 198.224 463.697 196.704 463.697 194.08C463.697 191.488 462.033 190.32 460.049 190.32C459.505 190.32 459.089 190.432 458.625 190.64L458.849 188.128H463.153V186.16H456.817L456.481 191.904L457.569 192.608C458.257 192.16 458.641 191.984 459.345 191.984C460.529 191.984 461.329 192.752 461.329 194.128C461.329 195.536 460.481 196.32 459.233 196.32C458.145 196.32 457.297 195.776 456.641 195.12L455.537 196.608C456.433 197.488 457.681 198.224 459.553 198.224Z" fill="#404040"/>
<path d="M564.077 229.224C566.349 229.224 568.253 227.976 568.253 225.8C568.253 224.232 567.229 223.256 565.885 222.872V222.792C567.149 222.312 567.853 221.368 567.853 220.104C567.853 218.072 566.301 216.952 564.013 216.952C562.637 216.952 561.501 217.512 560.477 218.392L561.677 219.848C562.381 219.192 563.069 218.792 563.917 218.792C564.925 218.792 565.501 219.352 565.501 220.28C565.501 221.336 564.797 222.072 562.621 222.072V223.768C565.197 223.768 565.885 224.488 565.885 225.656C565.885 226.712 565.069 227.32 563.853 227.32C562.781 227.32 561.933 226.776 561.229 226.088L560.109 227.576C560.941 228.536 562.205 229.224 564.077 229.224ZM574.186 229.224C576.202 229.224 577.914 227.704 577.914 225.272C577.914 222.728 576.49 221.56 574.506 221.56C573.706 221.56 572.602 222.072 571.978 222.952L572.074 224.552C572.666 223.576 573.418 223.224 574.074 223.224C575.082 223.224 575.754 223.864 575.754 225.272C575.754 226.712 575.034 227.448 574.154 227.448C572.986 227.448 572.09 226.312 572.09 223.24C572.09 219.944 573.226 218.84 574.666 218.84C575.338 218.84 576.074 219.224 576.474 219.688L577.738 218.296C577.018 217.544 575.962 216.952 574.522 216.952C572.122 216.952 569.93 218.84 569.93 223.24C569.93 227.416 571.946 229.224 574.186 229.224ZM579.256 229H587.192V227.016H584.632C584.072 227.016 583.288 227.096 582.696 227.16C584.856 225.048 586.648 222.744 586.648 220.584C586.648 218.376 585.144 216.952 582.92 216.952C581.304 216.952 580.232 217.576 579.144 218.744L580.44 220.024C581.048 219.352 581.736 218.792 582.616 218.792C583.752 218.792 584.376 219.528 584.376 220.712C584.376 222.536 582.488 224.76 579.256 227.656V229Z" fill="#404040"/>
<path d="M62.704 394H70.064V392.752H66.816C66.224 392.752 65.52 392.8 64.896 392.864C67.664 390.256 69.504 387.872 69.504 385.52C69.504 383.424 68.192 382.064 66.096 382.064C64.608 382.064 63.584 382.752 62.624 383.792L63.472 384.608C64.128 383.84 64.96 383.248 65.92 383.248C67.376 383.248 68.064 384.24 68.064 385.584C68.064 387.584 66.384 389.936 62.704 393.152V394ZM75.323 394.224C77.531 394.224 78.955 392.192 78.955 388.096C78.955 384.032 77.531 382.064 75.323 382.064C73.083 382.064 71.659 384.032 71.659 388.096C71.659 392.192 73.083 394.224 75.323 394.224ZM75.323 393.04C73.979 393.04 73.067 391.552 73.067 388.096C73.067 384.688 73.979 383.232 75.323 383.232C76.651 383.232 77.547 384.688 77.547 388.096C77.547 391.552 76.651 393.04 75.323 393.04ZM81.158 394H87.59V392.784H85.222V382.272H84.102C83.478 382.656 82.726 382.928 81.67 383.104V384.048H83.766V392.784H81.158V394ZM91.777 394H93.297C93.489 389.424 93.985 386.688 96.737 383.152V382.272H89.409V383.52H95.089C92.785 386.72 91.985 389.568 91.777 394ZM101.932 380.512C101.148 382.672 99.82 384.752 98.3 386.08C98.604 386.24 99.1 386.64 99.34 386.848C100.828 385.408 102.252 383.184 103.132 380.816L101.932 380.512ZM101.676 382.496L101.1 383.664H111.996V382.496H101.676ZM100.892 386.128V391.04H102.092V387.248H111.644V386.128H100.892ZM98.252 390.432V391.6H112.748V390.432H98.252ZM105.692 383.104V395.296H106.924V383.104H105.692Z" fill="#404040"/>
<path d="M183.212 394H190.572V392.752H187.324C186.732 392.752 186.028 392.8 185.404 392.864C188.172 390.256 190.012 387.872 190.012 385.52C190.012 383.424 188.7 382.064 186.604 382.064C185.116 382.064 184.092 382.752 183.132 383.792L183.98 384.608C184.636 383.84 185.468 383.248 186.428 383.248C187.884 383.248 188.572 384.24 188.572 385.584C188.572 387.584 186.892 389.936 183.212 393.152V394ZM195.831 394.224C198.039 394.224 199.463 392.192 199.463 388.096C199.463 384.032 198.039 382.064 195.831 382.064C193.591 382.064 192.167 384.032 192.167 388.096C192.167 392.192 193.591 394.224 195.831 394.224ZM195.831 393.04C194.487 393.04 193.575 391.552 193.575 388.096C193.575 384.688 194.487 383.232 195.831 383.232C197.159 383.232 198.055 384.688 198.055 388.096C198.055 391.552 197.159 393.04 195.831 393.04ZM201.666 394H208.098V392.784H205.73V382.272H204.61C203.986 382.656 203.234 382.928 202.178 383.104V384.048H204.274V392.784H201.666V394ZM213.597 394.224C215.789 394.224 217.277 392.896 217.277 391.184C217.277 389.584 216.317 388.688 215.293 388.096V388.016C215.997 387.472 216.861 386.432 216.861 385.184C216.861 383.392 215.645 382.112 213.645 382.112C211.805 382.112 210.413 383.296 210.413 385.072C210.413 386.304 211.149 387.2 212.013 387.792V387.856C210.941 388.432 209.853 389.52 209.853 391.104C209.853 392.912 211.437 394.224 213.597 394.224ZM214.397 387.648C213.021 387.104 211.757 386.48 211.757 385.072C211.757 383.952 212.541 383.184 213.613 383.184C214.877 383.184 215.613 384.112 215.613 385.264C215.613 386.144 215.197 386.944 214.397 387.648ZM213.629 393.12C212.221 393.12 211.165 392.208 211.165 390.96C211.165 389.84 211.821 388.912 212.781 388.304C214.429 388.976 215.869 389.568 215.869 391.136C215.869 392.304 214.973 393.12 213.629 393.12Z" fill="#404040"/>
<path d="M311.559 394H318.919V392.752H315.671C315.079 392.752 314.375 392.8 313.751 392.864C316.519 390.256 318.359 387.872 318.359 385.52C318.359 383.424 317.047 382.064 314.951 382.064C313.463 382.064 312.439 382.752 311.479 383.792L312.327 384.608C312.983 383.84 313.815 383.248 314.775 383.248C316.231 383.248 316.919 384.24 316.919 385.584C316.919 387.584 315.239 389.936 311.559 393.152V394ZM324.178 394.224C326.386 394.224 327.81 392.192 327.81 388.096C327.81 384.032 326.386 382.064 324.178 382.064C321.938 382.064 320.514 384.032 320.514 388.096C320.514 392.192 321.938 394.224 324.178 394.224ZM324.178 393.04C322.834 393.04 321.922 391.552 321.922 388.096C321.922 384.688 322.834 383.232 324.178 383.232C325.506 383.232 326.402 384.688 326.402 388.096C326.402 391.552 325.506 393.04 324.178 393.04ZM330.013 394H336.445V392.784H334.077V382.272H332.957C332.333 382.656 331.581 382.928 330.525 383.104V384.048H332.621V392.784H330.013V394ZM341.224 394.224C343.432 394.224 345.48 392.4 345.48 387.632C345.48 383.904 343.8 382.064 341.544 382.064C339.72 382.064 338.184 383.6 338.184 385.872C338.184 388.304 339.448 389.552 341.416 389.552C342.424 389.552 343.464 388.944 344.2 388.016L344.12 386.848C343.352 388.016 342.44 388.48 341.656 388.48C340.264 388.48 339.56 387.44 339.56 385.872C339.56 384.256 340.424 383.2 341.544 383.2C343.192 383.2 344.104 384.752 344.104 387.632C344.104 391.648 342.744 393.008 341.176 393.008C340.424 393.008 339.704 392.672 339.208 392.096L338.392 393.024C339.048 393.712 339.944 394.224 341.224 394.224Z" fill="#404040"/>
<path d="M435.007 394H442.367V392.752H439.119C438.527 392.752 437.823 392.8 437.199 392.864C439.967 390.256 441.807 387.872 441.807 385.52C441.807 383.424 440.495 382.064 438.399 382.064C436.911 382.064 435.887 382.752 434.927 383.792L435.775 384.608C436.431 383.84 437.263 383.248 438.223 383.248C439.679 383.248 440.367 384.24 440.367 385.584C440.367 387.584 438.687 389.936 435.007 393.152V394ZM447.626 394.224C449.834 394.224 451.258 392.192 451.258 388.096C451.258 384.032 449.834 382.064 447.626 382.064C445.386 382.064 443.962 384.032 443.962 388.096C443.962 392.192 445.386 394.224 447.626 394.224ZM447.626 393.04C446.282 393.04 445.37 391.552 445.37 388.096C445.37 384.688 446.282 383.232 447.626 383.232C448.954 383.232 449.85 384.688 449.85 388.096C449.85 391.552 448.954 393.04 447.626 393.04ZM452.757 394H460.117V392.752H456.869C456.277 392.752 455.573 392.8 454.949 392.864C457.717 390.256 459.557 387.872 459.557 385.52C459.557 383.424 458.245 382.064 456.149 382.064C454.661 382.064 453.637 382.752 452.677 383.792L453.525 384.608C454.181 383.84 455.013 383.248 455.973 383.248C457.429 383.248 458.117 384.24 458.117 385.584C458.117 387.584 456.437 389.936 452.757 393.152V394ZM465.376 394.224C467.584 394.224 469.008 392.192 469.008 388.096C469.008 384.032 467.584 382.064 465.376 382.064C463.136 382.064 461.712 384.032 461.712 388.096C461.712 392.192 463.136 394.224 465.376 394.224ZM465.376 393.04C464.032 393.04 463.12 391.552 463.12 388.096C463.12 384.688 464.032 383.232 465.376 383.232C466.704 383.232 467.6 384.688 467.6 388.096C467.6 391.552 466.704 393.04 465.376 393.04Z" fill="#404040"/>
<path d="M559.433 394H566.793V392.752H563.545C562.953 392.752 562.249 392.8 561.625 392.864C564.393 390.256 566.233 387.872 566.233 385.52C566.233 383.424 564.921 382.064 562.825 382.064C561.337 382.064 560.313 382.752 559.353 383.792L560.201 384.608C560.857 383.84 561.689 383.248 562.649 383.248C564.105 383.248 564.793 384.24 564.793 385.584C564.793 387.584 563.113 389.936 559.433 393.152V394ZM572.052 394.224C574.26 394.224 575.684 392.192 575.684 388.096C575.684 384.032 574.26 382.064 572.052 382.064C569.812 382.064 568.388 384.032 568.388 388.096C568.388 392.192 569.812 394.224 572.052 394.224ZM572.052 393.04C570.708 393.04 569.796 391.552 569.796 388.096C569.796 384.688 570.708 383.232 572.052 383.232C573.38 383.232 574.276 384.688 574.276 388.096C574.276 391.552 573.38 393.04 572.052 393.04ZM577.183 394H584.543V392.752H581.295C580.703 392.752 579.999 392.8 579.375 392.864C582.143 390.256 583.983 387.872 583.983 385.52C583.983 383.424 582.671 382.064 580.575 382.064C579.087 382.064 578.063 382.752 577.103 383.792L577.951 384.608C578.607 383.84 579.439 383.248 580.399 383.248C581.855 383.248 582.543 384.24 582.543 385.584C582.543 387.584 580.863 389.936 577.183 393.152V394ZM586.762 394H593.194V392.784H590.826V382.272H589.706C589.082 382.656 588.33 382.928 587.274 383.104V384.048H589.37V392.784H586.762V394Z" fill="#404040"/>
<path d="M47.573 374.224C49.781 374.224 51.205 372.192 51.205 368.096C51.205 364.032 49.781 362.064 47.573 362.064C45.333 362.064 43.909 364.032 43.909 368.096C43.909 372.192 45.333 374.224 47.573 374.224ZM47.573 373.04C46.229 373.04 45.317 371.552 45.317 368.096C45.317 364.688 46.229 363.232 47.573 363.232C48.901 363.232 49.797 364.688 49.797 368.096C49.797 371.552 48.901 373.04 47.573 373.04Z" fill="#404040"/>
<path d="M26.079 309H33.439V307.752H30.191C29.599 307.752 28.895 307.8 28.271 307.864C31.039 305.256 32.879 302.872 32.879 300.52C32.879 298.424 31.567 297.064 29.471 297.064C27.983 297.064 26.959 297.752 25.999 298.792L26.847 299.608C27.503 298.84 28.335 298.248 29.295 298.248C30.751 298.248 31.439 299.24 31.439 300.584C31.439 302.584 29.759 304.936 26.079 308.152V309ZM38.698 309.224C40.906 309.224 42.33 307.192 42.33 303.096C42.33 299.032 40.906 297.064 38.698 297.064C36.458 297.064 35.034 299.032 35.034 303.096C35.034 307.192 36.458 309.224 38.698 309.224ZM38.698 308.04C37.354 308.04 36.442 306.552 36.442 303.096C36.442 299.688 37.354 298.232 38.698 298.232C40.026 298.232 40.922 299.688 40.922 303.096C40.922 306.552 40.026 308.04 38.698 308.04ZM47.573 309.224C49.781 309.224 51.205 307.192 51.205 303.096C51.205 299.032 49.781 297.064 47.573 297.064C45.333 297.064 43.909 299.032 43.909 303.096C43.909 307.192 45.333 309.224 47.573 309.224ZM47.573 308.04C46.229 308.04 45.317 306.552 45.317 303.096C45.317 299.688 46.229 298.232 47.573 298.232C48.901 298.232 49.797 299.688 49.797 303.096C49.797 306.552 48.901 308.04 47.573 308.04Z" fill="#404040"/>
<path d="M30.799 244H32.175V232.272H30.559L25.679 239.808V240.768H33.743V239.616H27.215L29.887 235.616C30.207 235.04 30.527 234.448 30.815 233.872H30.895C30.847 234.48 30.799 235.424 30.799 236.016V244ZM38.698 244.224C40.906 244.224 42.33 242.192 42.33 238.096C42.33 234.032 40.906 232.064 38.698 232.064C36.458 232.064 35.034 234.032 35.034 238.096C35.034 242.192 36.458 244.224 38.698 244.224ZM38.698 243.04C37.354 243.04 36.442 241.552 36.442 238.096C36.442 234.688 37.354 233.232 38.698 233.232C40.026 233.232 40.922 234.688 40.922 238.096C40.922 241.552 40.026 243.04 38.698 243.04ZM47.573 244.224C49.781 244.224 51.205 242.192 51.205 238.096C51.205 234.032 49.781 232.064 47.573 232.064C45.333 232.064 43.909 234.032 43.909 238.096C43.909 242.192 45.333 244.224 47.573 244.224ZM47.573 243.04C46.229 243.04 45.317 241.552 45.317 238.096C45.317 234.688 46.229 233.232 47.573 233.232C48.901 233.232 49.797 234.688 49.797 238.096C49.797 241.552 48.901 243.04 47.573 243.04Z" fill="#404040"/>
<path d="M30.191 179.224C31.999 179.224 33.551 177.688 33.551 175.416C33.551 172.952 32.271 171.736 30.287 171.736C29.343 171.736 28.255 172.312 27.535 173.256L27.583 174.424C28.367 173.256 29.311 172.808 30.063 172.808C31.471 172.808 32.175 173.816 32.175 175.416C32.175 177 31.311 178.072 30.191 178.072C28.543 178.072 27.631 176.424 27.631 173.416C27.631 169.576 29.007 168.28 30.655 168.28C31.359 168.28 32.079 168.616 32.527 169.16L33.343 168.264C32.703 167.576 31.807 167.064 30.591 167.064C28.319 167.064 26.255 168.824 26.255 173.416C26.255 177.288 27.935 179.224 30.191 179.224ZM38.698 179.224C40.906 179.224 42.33 177.192 42.33 173.096C42.33 169.032 40.906 167.064 38.698 167.064C36.458 167.064 35.034 169.032 35.034 173.096C35.034 177.192 36.458 179.224 38.698 179.224ZM38.698 178.04C37.354 178.04 36.442 176.552 36.442 173.096C36.442 169.688 37.354 168.232 38.698 168.232C40.026 168.232 40.922 169.688 40.922 173.096C40.922 176.552 40.026 178.04 38.698 178.04ZM47.573 179.224C49.781 179.224 51.205 177.192 51.205 173.096C51.205 169.032 49.781 167.064 47.573 167.064C45.333 167.064 43.909 169.032 43.909 173.096C43.909 177.192 45.333 179.224 47.573 179.224ZM47.573 178.04C46.229 178.04 45.317 176.552 45.317 173.096C45.317 169.688 46.229 168.232 47.573 168.232C48.901 168.232 49.797 169.688 49.797 173.096C49.797 176.552 48.901 178.04 47.573 178.04Z" fill="#404040"/>
<path d="M29.839 114.224C32.031 114.224 33.519 112.896 33.519 111.184C33.519 109.584 32.559 108.688 31.535 108.096V108.016C32.239 107.472 33.103 106.432 33.103 105.184C33.103 103.392 31.887 102.112 29.887 102.112C28.047 102.112 26.655 103.296 26.655 105.072C26.655 106.304 27.391 107.2 28.255 107.792V107.856C27.183 108.432 26.095 109.52 26.095 111.104C26.095 112.912 27.679 114.224 29.839 114.224ZM30.639 107.648C29.263 107.104 27.999 106.48 27.999 105.072C27.999 103.952 28.783 103.184 29.855 103.184C31.119 103.184 31.855 104.112 31.855 105.264C31.855 106.144 31.439 106.944 30.639 107.648ZM29.871 113.12C28.463 113.12 27.407 112.208 27.407 110.96C27.407 109.84 28.063 108.912 29.023 108.304C30.671 108.976 32.111 109.568 32.111 111.136C32.111 112.304 31.215 113.12 29.871 113.12ZM38.698 114.224C40.906 114.224 42.33 112.192 42.33 108.096C42.33 104.032 40.906 102.064 38.698 102.064C36.458 102.064 35.034 104.032 35.034 108.096C35.034 112.192 36.458 114.224 38.698 114.224ZM38.698 113.04C37.354 113.04 36.442 111.552 36.442 108.096C36.442 104.688 37.354 103.232 38.698 103.232C40.026 103.232 40.922 104.688 40.922 108.096C40.922 111.552 40.026 113.04 38.698 113.04ZM47.573 114.224C49.781 114.224 51.205 112.192 51.205 108.096C51.205 104.032 49.781 102.064 47.573 102.064C45.333 102.064 43.909 104.032 43.909 108.096C43.909 112.192 45.333 114.224 47.573 114.224ZM47.573 113.04C46.229 113.04 45.317 111.552 45.317 108.096C45.317 104.688 46.229 103.232 47.573 103.232C48.901 103.232 49.797 104.688 49.797 108.096C49.797 111.552 48.901 113.04 47.573 113.04Z" fill="#404040"/>
<path d="M28.632 72.536V73.752H33.16V72.536H28.632ZM32.552 72.536C32.552 75.544 33.08 82.36 39.48 86.232C39.704 85.944 40.184 85.432 40.456 85.224C34.136 81.48 33.784 75.4 33.784 72.536H32.552ZM32.104 75.672C31.128 80.2 29.128 83.432 25.576 85.288C25.896 85.512 26.44 86.008 26.664 86.264C30.2 84.184 32.312 80.808 33.464 75.928L32.104 75.672ZM47.384 73.928V75.048H56.184V73.928H47.384ZM49.528 75.464C48.968 76.584 47.928 77.944 46.888 78.792C47.144 78.984 47.528 79.304 47.72 79.528C48.808 78.584 49.88 77.224 50.6 75.944L49.528 75.464ZM52.488 76.008C53.544 77.016 54.744 78.472 55.256 79.432L56.152 78.696C55.608 77.752 54.376 76.36 53.336 75.352L52.488 76.008ZM49.704 78.344L48.664 78.616C49.944 82.2 52.264 84.936 55.624 86.184C55.8 85.848 56.168 85.368 56.44 85.128C53.192 84.072 50.84 81.528 49.704 78.344ZM50.168 71.912C50.696 72.52 51.224 73.384 51.464 73.944L52.536 73.432C52.28 72.872 51.736 72.072 51.192 71.48L50.168 71.912ZM41.992 74.952V76.088H46.984V74.952H41.992ZM44.088 71.56V86.264H45.192V71.56H44.088ZM43.96 75.624C43.528 77.928 42.504 80.744 41.464 82.184C41.688 82.488 41.976 83 42.104 83.336C43.192 81.704 44.216 78.488 44.696 75.896L43.96 75.624ZM45.16 76.68L44.584 77.176C44.984 77.88 46.024 79.928 46.36 80.792L47.096 79.88C46.808 79.352 45.496 77.16 45.16 76.68ZM53.16 78.264C52.28 81.56 50.104 83.944 46.776 85.4C47.016 85.608 47.384 86.04 47.544 86.296C51.048 84.728 53.272 82.184 54.328 78.552L53.16 78.264ZM64.312 71.624C64.248 74.088 64.344 81.912 57.672 85.288C58.04 85.544 58.44 85.912 58.648 86.232C65.448 82.584 65.576 74.456 65.64 71.624H64.312ZM65.496 73.592L64.344 73.72C64.568 75.112 65.224 83.208 71.56 86.168C71.736 85.832 72.088 85.416 72.44 85.144C66.296 82.408 65.64 74.744 65.496 73.592ZM83.288 74.728V75.816H88.36V74.728H83.288ZM83.832 71.56C83.352 74.264 82.552 76.984 81.432 78.744C81.672 78.904 82.104 79.288 82.28 79.48C83.416 77.56 84.312 74.664 84.856 71.768L83.832 71.56ZM86.104 75.384C85.592 80.472 84.232 83.656 80.568 85.4C80.76 85.608 81.08 86.072 81.192 86.312C85.048 84.296 86.552 80.968 87.176 75.48L86.104 75.384ZM83.752 75.848L82.872 75.976C83.544 80.648 84.84 84.44 87.704 86.216C87.88 85.912 88.232 85.496 88.488 85.288C85.704 83.768 84.36 80.12 83.752 75.848ZM77.448 71.56V79.96H78.408V71.56H77.448ZM75.736 73.448H80.232V76.168H75.736V73.448ZM74.792 72.6V77H81.224V72.6H74.792ZM75.448 78.472H80.488V79.544H75.448V78.472ZM74.424 77.704V80.312H81.544V77.704H74.424ZM73.688 74.264V75.192H75.192V75.144H80.536V75.192H82.136V74.264H80.536V74.312H75.192V74.264H73.688ZM74.792 83.64L75.832 83.832C76.504 82.904 77.432 81.4 77.992 80.104L76.984 79.88C76.472 81.128 75.544 82.648 74.792 83.64ZM74.792 83.64C76.696 84.136 79.016 85.112 80.264 85.864L81.048 85.144C79.752 84.424 77.448 83.464 75.592 82.968L74.792 83.64ZM79.4 80.696V81.224C79.4 82.504 78.952 84.408 73.576 85.464C73.768 85.672 74.008 86.04 74.104 86.264C79.8 85.096 80.392 82.904 80.392 81.256V80.696H79.4ZM73.704 81.336V82.216H82.008V81.336H73.704Z" fill="#404040"/>
</svg>
