<svg width="362" height="246" viewBox="0 0 362 246" fill="none" xmlns="http://www.w3.org/2000/svg">
<rect width="362" height="246" fill="#FAFAFA"/>
<path d="M29.3138 22.0066C28.5758 24.1126 27.3698 26.4346 26.1818 27.8926C26.7038 28.1086 27.6398 28.6126 28.0538 28.9186C29.1878 27.3346 30.4838 24.8506 31.3658 22.5646L29.3138 22.0066ZM37.6478 22.8346C38.8358 24.7066 40.2578 27.2626 40.9058 28.8466L42.7598 27.7486C42.0578 26.1826 40.6178 23.7886 39.3938 21.9346L37.6478 22.8346ZM38.6738 28.6846C36.4418 32.3566 31.8878 33.6706 25.8398 34.1746C26.2358 34.7146 26.6678 35.5966 26.8478 36.2266C33.2918 35.5066 38.0978 33.8506 40.6538 29.5486L38.6738 28.6846ZM33.1118 19.3786V30.6286H35.2718V19.3786H33.1118ZM47.8898 19.2886C47.1158 21.6286 45.7118 23.9326 44.0918 25.3366C44.6138 25.6426 45.5318 26.3626 45.9458 26.7406C47.5478 25.1206 49.1318 22.5286 50.0858 19.8466L47.8898 19.2886ZM48.2678 21.3406L47.2238 23.4286H59.7158V21.3406H48.2678ZM46.9898 25.5886V31.3846H49.1678V27.6046H59.3018V25.5886H46.9898ZM44.1458 30.3226V32.4106H60.7058V30.3226H44.1458ZM52.2818 22.4206V36.2626H54.5138V22.4206H52.2818ZM68.7878 22.0786V23.6086H78.6518V22.0786H68.7878ZM76.5818 19.3606C74.8358 19.7926 71.6858 20.0086 69.0218 20.0806C69.2018 20.4586 69.4178 21.0706 69.4898 21.4666C72.2618 21.4486 75.6458 21.2146 77.9318 20.6566L76.5818 19.3606ZM75.6278 22.5646L74.2418 23.0506C75.0158 24.5266 76.3838 26.0026 77.8598 26.7406C78.1298 26.2726 78.6878 25.6426 79.0838 25.3006C77.6978 24.7786 76.3118 23.6626 75.6278 22.5646ZM68.7338 28.5946V36.2266H70.5878V30.1606H77.0678V28.5946H68.7338ZM71.3978 30.7906V35.0026H72.9098V30.7906H71.3978ZM76.6178 28.5946V34.2646C76.6178 34.4446 76.5458 34.4986 76.3298 34.5166C76.1498 34.5166 75.4658 34.5166 74.8538 34.4986C75.1058 34.9666 75.3938 35.7046 75.4838 36.2266C76.5098 36.2266 77.2658 36.1906 77.8238 35.9206C78.3998 35.6326 78.5618 35.1286 78.5618 34.3006V28.5946H76.6178ZM72.2078 30.7906V31.9966H74.3678V32.9866H72.2078V34.1746H75.8438V30.7906H72.2078ZM72.2438 25.7146H75.0698V26.6506H72.2438V25.7146ZM70.5338 24.3646V27.9646H76.8878V24.3646H70.5338ZM72.1178 20.6026C71.6858 22.5466 70.4078 24.4726 68.3378 25.4446C68.6618 25.7506 69.1658 26.3986 69.4178 26.7946C71.7758 25.6246 73.2878 23.3386 73.9898 20.9086L72.1178 20.6026ZM64.7198 22.5286V25.8406C64.7198 28.4866 64.4498 32.1406 61.8398 34.6786C62.2358 34.9306 63.0278 35.6866 63.3158 36.0826C66.1598 33.3106 66.6638 28.8286 66.6638 25.8586V22.5286H64.7198ZM63.7118 21.4306V23.3926H68.4638V21.4306H63.7118ZM62.1818 26.0926V28.0906H68.7698V26.0926H62.1818ZM66.2498 28.6126L64.9898 29.7286C65.6558 30.7006 66.9518 32.7706 67.5458 33.9766L68.9498 32.2126C68.5538 31.6546 66.7718 29.1706 66.2498 28.6126ZM63.2258 19.3606C62.9738 21.3586 62.5418 23.4106 61.8038 24.7426C62.2358 24.9766 63.0278 25.5346 63.3878 25.8226C64.1978 24.3286 64.7918 21.9886 65.1158 19.7026L63.2258 19.3606ZM80.8298 20.5306V22.6366H96.1478V20.5306H80.8298ZM88.8758 26.5966V28.7206H95.2298V26.5966H88.8758ZM80.2178 33.4726V35.5786H96.6698V33.4726H80.2178ZM87.8138 21.3766V34.4986H90.1178V21.3766H87.8138ZM82.4318 25.4266V34.6066H84.6818V25.4266H82.4318ZM98.2358 31.2406V32.9686H114.562V31.2406H98.2358ZM101.746 28.1626V29.6926H109.63V28.1626H101.746ZM105.544 30.7366V34.1746C105.544 34.4086 105.472 34.4626 105.184 34.4626C104.896 34.4626 103.816 34.4626 102.952 34.4266C103.222 34.9486 103.528 35.6866 103.636 36.2446C104.986 36.2446 105.976 36.2446 106.714 35.9746C107.47 35.6866 107.668 35.2186 107.668 34.2466V30.7366H105.544ZM109.09 28.1626V28.5226C108.37 29.2066 106.822 30.1966 105.544 30.7366C105.814 30.9886 106.3 31.5106 106.516 31.8346C108.172 31.1506 109.936 30.1426 111.286 29.1706L110.062 28.0546L109.612 28.1626H109.09ZM98.5418 25.8406V29.5486H100.594V27.4066H112.204V29.5486H114.346V25.8406H98.5418ZM111.34 19.9546C111.268 22.1146 111.07 24.8506 110.836 26.6146H112.906C113.104 24.9046 113.284 22.1686 113.392 19.9546H111.34ZM108.856 19.9546V21.3046H112.186V19.9546H108.856ZM103.222 19.4506C102.25 19.7746 100.648 20.2606 99.5678 20.4406L100.324 21.6286C101.422 21.4486 102.988 21.1246 104.122 20.6926L103.222 19.4506ZM100.612 21.9166V23.2486H103.978V21.9166H100.612ZM100.666 23.8786V25.2106H104.032V23.8786H100.666ZM108.964 21.9166V23.2486H112.006V21.9166H108.964ZM108.874 23.8786V25.2106H111.898V23.8786H108.874ZM107.092 19.4686C106.426 20.3506 105.22 21.1606 103.978 21.7006C104.32 21.9166 104.86 22.4026 105.112 22.6546C106.336 22.0246 107.686 20.9806 108.496 19.8646L107.092 19.4686ZM104.356 20.4226C105.472 20.9986 106.858 21.8806 107.506 22.5106L108.55 21.5926C107.83 20.9626 106.444 20.1166 105.346 19.5946L104.356 20.4226ZM107.11 22.5106C106.408 23.4466 105.112 24.3106 103.834 24.8686C104.14 25.1026 104.68 25.6606 104.914 25.9306C106.228 25.2466 107.65 24.1306 108.514 22.9246L107.11 22.5106ZM104.266 23.5006C105.454 24.1306 106.912 25.1026 107.596 25.7866L108.658 24.8506C107.92 24.1666 106.426 23.2486 105.274 22.6726L104.266 23.5006ZM99.5678 20.4406L99.9278 26.5246H101.944L101.62 20.9626L99.5678 20.4406ZM122.68 21.8626V23.8606H132.688V21.8626H122.68ZM124.804 23.8786C124.12 25.0666 122.932 26.5246 121.798 27.3886C122.266 27.7306 122.95 28.3246 123.292 28.7386C124.48 27.7486 125.776 26.2186 126.712 24.7606L124.804 23.8786ZM128.188 24.8866C129.34 25.9846 130.672 27.5506 131.212 28.6306L132.796 27.2446C132.202 26.2006 130.798 24.7246 129.646 23.6626L128.188 24.8866ZM125.722 27.1546L123.85 27.6226C125.29 31.7806 127.648 34.7506 131.662 36.1546C131.986 35.5426 132.634 34.6426 133.12 34.2106C129.34 33.1126 126.892 30.5386 125.722 27.1546ZM125.614 19.8826C126.136 20.5846 126.676 21.5926 126.91 22.2406L128.908 21.3946C128.656 20.7466 128.08 19.8466 127.522 19.1626L125.614 19.8826ZM116.326 22.9066V24.9046H122.23V22.9066H116.326ZM118.468 19.3606V36.2626H120.43V19.3606H118.468ZM118.234 24.2746C117.82 26.5966 116.848 29.5306 115.732 31.0786C116.074 31.6546 116.56 32.6266 116.74 33.2386C117.928 31.3306 118.918 27.7126 119.386 24.7246L118.234 24.2746ZM120.412 25.4446L119.458 26.3086C119.98 27.2806 121.042 29.4946 121.456 30.6646L122.68 29.0626C122.356 28.4866 120.826 25.9846 120.412 25.4446ZM128.764 27.1366C127.756 30.6466 125.344 33.2026 121.672 34.5886C122.104 34.9666 122.752 35.8126 123.022 36.2806C127.036 34.6426 129.574 31.8346 130.834 27.6766L128.764 27.1366ZM144.19 25.3186V27.3166H150.832V25.3186H144.19ZM134.38 21.1426V22.9066H142.48V21.1426H134.38ZM134.2 28.3066V30.1246H142.462V28.3066H134.2ZM134.092 25.1566V26.9386H142.768V25.1566H134.092ZM147.052 26.2006V36.1726H149.158V26.2006H147.052ZM135.334 23.2486C135.568 23.8786 135.784 24.7426 135.874 25.2826L137.656 24.7786C137.566 24.2566 137.314 23.4466 137.044 22.8346L135.334 23.2486ZM139.744 22.8166C139.546 23.5726 139.168 24.6526 138.862 25.3546L140.608 25.7326C140.95 25.0846 141.31 24.1486 141.706 23.1946L139.744 22.8166ZM148.852 19.5226C147.538 20.1346 145.36 20.7106 143.38 21.0706C143.614 21.5206 143.92 22.2586 144.01 22.7086C146.152 22.3846 148.636 21.8446 150.526 21.1066L148.852 19.5226ZM136.918 19.7026C137.26 20.5126 137.638 21.5926 137.782 22.2586L140.05 21.6466C139.888 20.9806 139.456 19.9546 139.096 19.1806L136.918 19.7026ZM143.38 21.0706V27.5326C143.38 29.8726 143.272 32.8786 141.94 34.9306C142.39 35.1646 143.254 35.8306 143.596 36.2086C145.144 33.9046 145.378 30.1786 145.378 27.5326V21.0706H143.38ZM140.05 31.2766C140.554 32.1046 141.166 33.2566 141.454 33.9766L142.912 33.0586C142.624 32.3746 142.012 31.3126 141.454 30.4846L140.05 31.2766ZM135.478 30.7006C135.1 31.8166 134.506 33.0766 133.876 33.9046C134.29 34.1386 134.992 34.6246 135.298 34.8946C135.928 33.9586 136.684 32.4646 137.134 31.1866L135.478 30.7006ZM137.566 26.1466V36.1366H139.672V26.1466H137.566ZM155.548 20.3686V22.5646H160.642V20.3686H155.548ZM159.58 20.3686C159.58 24.0406 160.372 32.0866 167.23 36.2086C167.608 35.6686 168.472 34.7146 168.976 34.3186C162.298 30.4126 161.812 23.7886 161.812 20.3686H159.58ZM158.806 24.3106C157.834 29.0806 155.674 32.5726 151.912 34.4806C152.47 34.8766 153.478 35.7766 153.874 36.2446C157.636 33.9766 160.03 30.1066 161.29 24.7606L158.806 24.3106ZM176.68 21.8626V23.8606H186.688V21.8626H176.68ZM178.804 23.8786C178.12 25.0666 176.932 26.5246 175.798 27.3886C176.266 27.7306 176.95 28.3246 177.292 28.7386C178.48 27.7486 179.776 26.2186 180.712 24.7606L178.804 23.8786ZM182.188 24.8866C183.34 25.9846 184.672 27.5506 185.212 28.6306L186.796 27.2446C186.202 26.2006 184.798 24.7246 183.646 23.6626L182.188 24.8866ZM179.722 27.1546L177.85 27.6226C179.29 31.7806 181.648 34.7506 185.662 36.1546C185.986 35.5426 186.634 34.6426 187.12 34.2106C183.34 33.1126 180.892 30.5386 179.722 27.1546ZM179.614 19.8826C180.136 20.5846 180.676 21.5926 180.91 22.2406L182.908 21.3946C182.656 20.7466 182.08 19.8466 181.522 19.1626L179.614 19.8826ZM170.326 22.9066V24.9046H176.23V22.9066H170.326ZM172.468 19.3606V36.2626H174.43V19.3606H172.468ZM172.234 24.2746C171.82 26.5966 170.848 29.5306 169.732 31.0786C170.074 31.6546 170.56 32.6266 170.74 33.2386C171.928 31.3306 172.918 27.7126 173.386 24.7246L172.234 24.2746ZM174.412 25.4446L173.458 26.3086C173.98 27.2806 175.042 29.4946 175.456 30.6646L176.68 29.0626C176.356 28.4866 174.826 25.9846 174.412 25.4446ZM182.764 27.1366C181.756 30.6466 179.344 33.2026 175.672 34.5886C176.104 34.9666 176.752 35.8126 177.022 36.2806C181.036 34.6426 183.574 31.8346 184.834 27.6766L182.764 27.1366ZM195.004 19.3786C194.914 22.4566 195.256 30.5386 187.93 34.4806C188.632 34.9666 189.334 35.6506 189.73 36.2266C197.254 31.7986 197.362 23.1046 197.47 19.3786H195.004ZM197.272 21.5746L195.184 21.8086C195.454 23.6086 196.048 32.6086 203.428 36.1186C203.752 35.5066 204.364 34.7686 205.012 34.2646C197.992 31.1326 197.416 23.0326 197.272 21.5746ZM216.928 22.6906V24.5806H222.868V22.6906H216.928ZM217.324 19.3426C216.82 22.4566 215.974 25.6606 214.804 27.6766C215.2 27.9826 215.902 28.6846 216.19 29.0446C217.468 26.7046 218.494 23.1046 219.106 19.6846L217.324 19.3426ZM219.88 23.9146C219.43 29.4586 218.008 32.9146 213.94 34.7326C214.282 35.1106 214.804 35.9206 214.984 36.3346C219.412 34.0846 221.086 30.2686 221.716 24.0586L219.88 23.9146ZM217.954 24.4366L216.442 24.6526C217.18 29.8726 218.494 34.1026 221.734 36.2266C222.022 35.6866 222.652 34.9126 223.084 34.5526C220.006 32.8426 218.602 28.9366 217.954 24.4366ZM210.16 19.3606V28.9726H211.78V19.3606H210.16ZM208.864 21.7906H213.184V24.4546H208.864V21.7906ZM207.244 20.4406V25.8226H214.876V20.4406H207.244ZM208.72 27.5506H213.256V28.3426H208.72V27.5506ZM206.938 26.3446V29.5666H215.128V26.3446H206.938ZM205.984 22.3126V23.8426H207.784V23.7346H213.814V23.8426H215.83V22.3126H213.814V22.4206H207.784V22.3126H205.984ZM207.1 33.2026L208.828 33.5986C209.656 32.5006 210.772 30.7906 211.492 29.2426L209.782 28.8646C209.152 30.3046 208.018 32.0686 207.1 33.2026ZM207.1 33.2026C209.44 33.7606 212.266 34.8586 213.832 35.7406L215.182 34.5346C213.526 33.6886 210.754 32.6266 208.468 32.0866L207.1 33.2026ZM212.536 29.8366V30.6646C212.536 31.9966 211.888 33.9226 205.804 34.8586C206.11 35.2006 206.506 35.8486 206.65 36.2446C213.346 35.1286 214.228 32.6266 214.228 30.7366V29.8366H212.536ZM206.182 30.3586V31.7986H215.722V30.3586H206.182ZM228.548 33.8326V35.7406H244.496V33.8326H228.548ZM230.024 30.5026V32.3026H242.966V30.5026H230.024ZM232.904 21.9526H239.978V24.4546H232.904V21.9526ZM230.78 20.0446V26.3626H242.228V20.0446H230.78ZM235.334 28.2526V34.8586H237.62V28.2526H235.334ZM241.742 26.7226C238.772 27.2986 233.66 27.5866 229.232 27.6586C229.412 28.0546 229.628 28.8286 229.664 29.2966C234.182 29.2606 239.492 28.9726 243.272 28.2706L241.742 26.7226ZM246.242 20.2966V22.2946H252.578V20.2966H246.242ZM246.404 25.4446V27.4246H252.38V25.4446H246.404ZM245.81 31.6906L246.35 33.7426C248.222 33.1846 250.67 32.4826 252.938 31.7986L252.65 29.9086C250.166 30.5926 247.556 31.2946 245.81 31.6906ZM255.278 24.5446H260.012V25.6606H255.278V24.5446ZM255.278 27.3166H260.012V28.4146H255.278V27.3166ZM255.278 21.8086H260.012V22.9066H255.278V21.8086ZM253.28 20.0446V30.1966H262.118V20.0446H253.28ZM257.816 29.4046V33.7426C257.816 35.5606 258.176 36.1726 259.85 36.1726C260.156 36.1726 260.894 36.1726 261.218 36.1726C262.532 36.1726 263.036 35.4886 263.216 33.0226C262.676 32.8966 261.812 32.5546 261.398 32.2306C261.362 34.0306 261.29 34.3186 260.984 34.3186C260.822 34.3186 260.354 34.3186 260.228 34.3186C259.94 34.3186 259.886 34.2646 259.886 33.7246V29.4046H257.816ZM254.63 29.9266C254.396 32.2126 253.928 33.7426 250.508 34.6066C250.94 35.0206 251.48 35.8486 251.696 36.3886C255.692 35.1826 256.466 33.0046 256.736 29.9266H254.63ZM248.42 21.0886V31.9786L250.508 31.6726V21.0886H248.42ZM264.422 20.6746V22.8526H280.586V20.6746H264.422ZM270.956 22.6366V36.2266H273.278V22.6366H270.956ZM272.18 26.9926C274.214 28.0906 276.95 29.7826 278.228 30.9166L279.83 28.9366C278.444 27.8206 275.618 26.2546 273.656 25.2826L272.18 26.9926ZM291.746 20.8726V22.4746H296.534V20.8726H291.746ZM289.226 31.9246V33.7966H298.82V31.9246H289.226ZM296.174 20.8726V21.1606C294.95 23.8066 291.638 25.4986 287.966 26.1646C288.344 26.5966 288.794 27.3886 289.01 27.8926C293.042 26.9566 296.624 25.0306 298.244 21.4306L296.912 20.8006L296.57 20.8726H296.174ZM291.746 22.2946L290.018 22.8526C291.656 25.4446 294.356 27.1366 297.956 27.8386C298.208 27.3166 298.766 26.5066 299.198 26.0926C295.814 25.5886 293.06 24.2566 291.746 22.2946ZM292.898 27.3166V36.2446H294.986V27.3166H292.898ZM291.89 19.3786C291.134 20.7286 289.838 22.2946 287.966 23.4646C288.416 23.7706 289.046 24.4906 289.334 24.9586C291.458 23.4466 292.934 21.6826 293.996 19.7926L291.89 19.3786ZM282.674 20.0626V36.2086H284.546V21.9886H286.904V20.0626H282.674ZM286.508 20.0626V20.6566C286.202 21.8266 285.536 24.1486 284.942 25.7146C286.148 26.9926 286.436 28.1626 286.436 29.0266C286.454 29.5666 286.346 29.9626 286.094 30.1246C285.95 30.2326 285.752 30.2686 285.536 30.2686C285.302 30.2866 285.014 30.2866 284.654 30.2326C284.96 30.7726 285.14 31.5826 285.158 32.1046C285.608 32.1046 286.058 32.1046 286.418 32.0506C286.832 31.9966 287.192 31.8706 287.48 31.6546C288.092 31.2226 288.362 30.4306 288.362 29.2606C288.362 28.1986 288.092 26.9206 286.832 25.4986C287.426 24.1126 288.074 22.3306 288.614 20.8006L287.174 19.9906L286.868 20.0626H286.508ZM289.406 29.6566C289.136 30.9886 288.704 32.6806 288.344 33.7966H290.342C290.648 32.7886 291.044 31.1506 291.332 29.8546L289.406 29.6566ZM288.758 28.2886V30.1426H298.316V28.2886H288.758ZM308.846 25.7866C308.324 26.9566 307.424 28.1266 306.398 28.8826C306.848 29.1346 307.604 29.6566 307.982 29.9626C309.008 29.0806 310.052 27.6766 310.682 26.2546L308.846 25.7866ZM309.422 26.8486L308.396 28.2886H315.11V26.8486H309.422ZM314.66 26.8486V27.1186C314.534 30.2866 314.39 31.4206 314.156 31.7266C314.03 31.8886 313.904 31.9246 313.67 31.9246C313.454 31.9246 313.004 31.9066 312.446 31.8526C312.662 32.2306 312.842 32.8426 312.86 33.2566C313.562 33.2746 314.228 33.2746 314.606 33.2206C315.056 33.1846 315.434 33.0586 315.722 32.6806C316.136 32.1946 316.316 30.8986 316.46 27.4966C316.478 27.2806 316.478 26.8486 316.478 26.8486H314.66ZM310.016 28.7026V30.4306C310.016 31.1686 309.548 32.0506 307.154 32.4646C307.496 32.7526 307.874 33.2206 308.072 33.5446C310.898 32.8966 311.51 31.7626 311.51 30.4486V28.7026H310.016ZM307.784 28.9546V31.4026H313.814V28.9546H312.392V30.1426H309.17V28.9546H307.784ZM308.99 19.2526C308.486 20.5306 307.586 21.7906 306.56 22.6006C306.992 22.8526 307.748 23.3566 308.108 23.6446C309.134 22.7266 310.178 21.2146 310.79 19.7026L308.99 19.2526ZM309.53 20.2606L308.504 21.7006H315.146V20.2606H309.53ZM314.588 20.2606V20.5306C314.48 23.3566 314.336 24.4006 314.138 24.6706C314.012 24.8146 313.904 24.8506 313.688 24.8506C313.472 24.8506 313.022 24.8506 312.518 24.7966C312.716 25.1386 312.878 25.6966 312.896 26.0926C313.58 26.1286 314.228 26.1106 314.588 26.0746C315.038 26.0206 315.398 25.9126 315.686 25.5526C316.064 25.0846 316.226 23.9326 316.352 20.8906C316.37 20.6926 316.388 20.2606 316.388 20.2606H314.588ZM310.142 22.0786V24.0586C310.142 24.7426 309.566 25.3546 307.316 25.6066C307.604 25.8766 307.928 26.3086 308.072 26.6326C310.772 26.2006 311.51 25.3186 311.51 24.0586V22.0786H310.142ZM307.982 22.3126V24.6526H313.76V22.3126H312.374V23.4646H309.314V22.3126H307.982ZM300.692 21.2146V23.0686H306.884V21.2146H300.692ZM300.26 24.5446V26.4526H307.262V24.5446H300.26ZM304.058 28.2346V30.1066H307.064V28.2346H304.058ZM302.924 19.3606V25.7506H304.85V19.3606H302.924ZM303.446 25.7866V33.7966H305.336V25.7866H303.446ZM302.564 29.3866L301.016 29.8546C302.366 34.9126 304.832 35.7946 309.548 35.7946H316.226C316.352 35.1466 316.712 34.1566 317.054 33.6526C315.488 33.7426 310.88 33.7246 309.584 33.7246C305.786 33.7246 303.608 33.1666 302.564 29.3866ZM300.872 27.6046C300.962 30.0526 300.872 32.8966 299.702 34.9846C300.134 35.1826 300.8 35.8126 301.07 36.2446C302.528 33.7966 302.69 30.5746 302.618 27.7126L300.872 27.6046ZM321.41 25.2466V29.0986L323.354 28.9726V25.2466H321.41ZM318.368 22.1866V23.5546H326.504V22.1866H318.368ZM318.962 20.2606V21.5566H325.874V20.2606H318.962ZM321.41 19.3606V23.0686H323.354V19.3606H321.41ZM318.278 28.2886L318.368 29.8006C320.456 29.6566 323.354 29.4766 326.162 29.2786L326.18 27.8746C323.282 28.0546 320.276 28.2166 318.278 28.2886ZM320.366 23.2486C320.168 24.0946 319.34 24.5266 318.17 24.7606C318.44 25.0486 318.836 25.6786 318.962 26.0026C320.564 25.5526 321.59 24.7246 321.896 23.3386L320.366 23.2486ZM318.98 26.0386V27.3166H325.91V26.0386H318.98ZM319.52 30.6106V32.2486H331.67V30.6106H319.52ZM331.22 30.6106V30.8806C331.022 33.0046 330.77 33.9766 330.446 34.2466C330.266 34.3906 330.068 34.4086 329.726 34.4086C329.33 34.4086 328.376 34.3906 327.458 34.3186C327.8 34.8406 328.052 35.6506 328.088 36.2446C329.114 36.2806 330.086 36.2806 330.662 36.2266C331.328 36.1726 331.796 36.0286 332.246 35.6146C332.768 35.0926 333.092 33.9046 333.344 31.4386C333.398 31.1686 333.434 30.6106 333.434 30.6106H331.22ZM325.28 29.6926C324.956 32.5186 324.236 33.9226 318.476 34.5526C318.836 34.9846 319.304 35.7766 319.448 36.2986C325.91 35.4166 327.044 33.3826 327.476 29.6926H325.28ZM326.432 25.2106C327.8 26.0206 329.762 27.1726 330.716 27.8926L331.652 26.3446C330.644 25.6786 328.664 24.5986 327.314 23.8606L326.432 25.2106ZM326.846 21.3046V23.0326H332.246V21.3046H326.846ZM331.49 21.3046C331.508 26.1646 331.544 30.0526 333.668 30.0526C334.82 30.0526 335.108 29.1886 335.252 27.3346C334.892 27.0466 334.442 26.5606 334.1 26.1106C334.082 27.2986 334.01 28.1986 333.83 28.1806C333.344 28.1806 333.38 25.0666 333.416 21.3046H331.49ZM328.592 19.3606C328.538 23.8426 328.448 26.6326 326.036 28.2886C326.432 28.5946 326.972 29.2426 327.188 29.6566C330.05 27.7126 330.338 24.3826 330.428 19.3606H328.592ZM322.814 22.9606V23.8966C322.814 24.9946 323.03 25.5526 324.236 25.5526C324.524 25.5526 325.082 25.5526 325.334 25.5526C325.676 25.5526 326.09 25.5166 326.306 25.4446C326.252 25.0486 326.216 24.6526 326.198 24.2566C325.982 24.3286 325.514 24.3646 325.298 24.3646C325.136 24.3646 324.812 24.3646 324.686 24.3646C324.434 24.3646 324.398 24.2206 324.398 23.9146V22.9606H322.814Z" fill="#404040"/>
<path opacity="0.5" d="M40.2871 214.957H343.316" stroke="#404040" stroke-width="0.688214" stroke-linecap="round"/>
<g opacity="0.5">
<path d="M40.207 176.887H343.39" stroke="#404040" stroke-width="0.688214" stroke-linecap="round" stroke-dasharray="0.69 2.06"/>
<path d="M40.207 138.814H343.39" stroke="#404040" stroke-width="0.688214" stroke-linecap="round" stroke-dasharray="0.69 2.06"/>
<path d="M40.207 100.743H343.39" stroke="#404040" stroke-width="0.688214" stroke-linecap="round" stroke-dasharray="0.69 2.06"/>
<path d="M40.207 62.6719H343.39" stroke="#404040" stroke-width="0.688214" stroke-linecap="round" stroke-dasharray="0.69 2.06"/>
</g>
<path d="M46.709 74.3857L118.681 124.757H191.223H263.195L336.309 146.429" stroke="#FFC235" stroke-width="2.75286" stroke-linecap="round"/>
<path d="M41.2805 68.6426H43.0685C43.2245 65.1746 43.4885 63.3506 45.5525 60.8306V59.7626H39.6605V61.2386H43.6565C41.9525 63.5906 41.4485 65.5706 41.2805 68.6426ZM49.4147 68.8106C51.1187 68.8106 52.5467 67.8746 52.5467 66.2426C52.5467 65.0666 51.7787 64.3346 50.7707 64.0466V63.9866C51.7187 63.6266 52.2467 62.9186 52.2467 61.9706C52.2467 60.4466 51.0827 59.6066 49.3667 59.6066C48.3347 59.6066 47.4827 60.0266 46.7147 60.6866L47.6147 61.7786C48.1427 61.2866 48.6587 60.9866 49.2947 60.9866C50.0507 60.9866 50.4827 61.4066 50.4827 62.1026C50.4827 62.8946 49.9547 63.4466 48.3227 63.4466V64.7186C50.2547 64.7186 50.7707 65.2586 50.7707 66.1346C50.7707 66.9266 50.1587 67.3826 49.2467 67.3826C48.4427 67.3826 47.8067 66.9746 47.2787 66.4586L46.4387 67.5746C47.0627 68.2946 48.0107 68.8106 49.4147 68.8106ZM56.7448 68.8106C58.5328 68.8106 59.7328 67.7906 59.7328 66.4466C59.7328 65.2226 59.0608 64.5146 58.2448 64.0706V64.0106C58.8208 63.5906 59.3848 62.8586 59.3848 61.9706C59.3848 60.5546 58.3768 59.6186 56.8048 59.6186C55.2568 59.6186 54.1168 60.5306 54.1168 61.9586C54.1168 62.8946 54.6208 63.5786 55.2928 64.0706V64.1186C54.4768 64.5506 53.7808 65.3066 53.7808 66.4466C53.7808 67.8386 55.0408 68.8106 56.7448 68.8106ZM57.3088 63.5786C56.3728 63.2066 55.6768 62.7866 55.6768 61.9586C55.6768 61.2506 56.1568 60.8546 56.7688 60.8546C57.5008 60.8546 57.9448 61.3586 57.9448 62.0906C57.9448 62.6186 57.7408 63.1226 57.3088 63.5786ZM56.7808 67.5626C55.9528 67.5626 55.2928 67.0466 55.2928 66.2426C55.2928 65.5826 55.6288 64.9826 56.1208 64.5986C57.2608 65.0786 58.0888 65.4506 58.0888 66.3746C58.0888 67.1426 57.5488 67.5626 56.7808 67.5626Z" fill="#404040"/>
<path d="M116.886 117.842H118.53V108.962H116.406L113.106 114.338V115.55H119.586V114.194H114.822L116.19 111.986C116.442 111.506 116.682 111.014 116.91 110.534H116.958C116.934 111.062 116.886 111.866 116.886 112.382V117.842ZM122.152 117.842H123.94C124.096 114.374 124.36 112.55 126.424 110.03V108.962H120.532V110.438H124.528C122.824 112.79 122.32 114.77 122.152 117.842ZM130.322 118.01C131.954 118.01 133.43 116.87 133.43 114.902C133.43 112.958 132.182 112.082 130.694 112.082C130.286 112.082 129.974 112.166 129.626 112.322L129.794 110.438H133.022V108.962H128.27L128.018 113.27L128.834 113.798C129.35 113.462 129.638 113.33 130.166 113.33C131.054 113.33 131.654 113.906 131.654 114.938C131.654 115.994 131.018 116.582 130.082 116.582C129.266 116.582 128.63 116.174 128.138 115.682L127.31 116.798C127.982 117.458 128.918 118.01 130.322 118.01Z" fill="#404040"/>
<path d="M187.245 117.842H188.889V108.962H186.765L183.465 114.338V115.55H189.945V114.194H185.181L186.549 111.986C186.801 111.506 187.041 111.014 187.269 110.534H187.317C187.293 111.062 187.245 111.866 187.245 112.382V117.842ZM192.511 117.842H194.299C194.455 114.374 194.719 112.55 196.783 110.03V108.962H190.891V110.438H194.887C193.183 112.79 192.679 114.77 192.511 117.842ZM200.645 118.01C202.349 118.01 203.777 117.074 203.777 115.442C203.777 114.266 203.009 113.534 202.001 113.246V113.186C202.949 112.826 203.477 112.118 203.477 111.17C203.477 109.646 202.313 108.806 200.597 108.806C199.565 108.806 198.713 109.226 197.945 109.886L198.845 110.978C199.373 110.486 199.889 110.186 200.525 110.186C201.281 110.186 201.713 110.606 201.713 111.302C201.713 112.094 201.185 112.646 199.553 112.646V113.918C201.485 113.918 202.001 114.458 202.001 115.334C202.001 116.126 201.389 116.582 200.477 116.582C199.673 116.582 199.037 116.174 198.509 115.658L197.669 116.774C198.293 117.494 199.241 118.01 200.645 118.01Z" fill="#404040"/>
<path d="M258.753 117.842H260.397V108.962H258.273L254.973 114.338V115.55H261.453V114.194H256.689L258.057 111.986C258.309 111.506 258.549 111.014 258.777 110.534H258.825C258.801 111.062 258.753 111.866 258.753 112.382V117.842ZM264.019 117.842H265.807C265.963 114.374 266.227 112.55 268.291 110.03V108.962H262.399V110.438H266.395C264.691 112.79 264.187 114.77 264.019 117.842ZM272.189 118.01C273.821 118.01 275.297 116.87 275.297 114.902C275.297 112.958 274.049 112.082 272.561 112.082C272.153 112.082 271.841 112.166 271.493 112.322L271.661 110.438H274.889V108.962H270.137L269.885 113.27L270.701 113.798C271.217 113.462 271.505 113.33 272.033 113.33C272.921 113.33 273.521 113.906 273.521 114.938C273.521 115.994 272.885 116.582 271.949 116.582C271.133 116.582 270.497 116.174 270.005 115.682L269.177 116.798C269.849 117.458 270.785 118.01 272.189 118.01Z" fill="#404040"/>
<path d="M330.073 136.168C331.777 136.168 333.205 135.232 333.205 133.6C333.205 132.424 332.437 131.692 331.429 131.404V131.344C332.377 130.984 332.905 130.276 332.905 129.328C332.905 127.804 331.741 126.964 330.025 126.964C328.993 126.964 328.141 127.384 327.373 128.044L328.273 129.136C328.801 128.644 329.317 128.344 329.953 128.344C330.709 128.344 331.141 128.764 331.141 129.46C331.141 130.252 330.613 130.804 328.981 130.804V132.076C330.913 132.076 331.429 132.616 331.429 133.492C331.429 134.284 330.817 134.74 329.905 134.74C329.101 134.74 328.465 134.332 327.937 133.816L327.097 134.932C327.721 135.652 328.669 136.168 330.073 136.168ZM337.655 136.168C339.167 136.168 340.451 135.028 340.451 133.204C340.451 131.296 339.383 130.42 337.895 130.42C337.295 130.42 336.467 130.804 335.999 131.464L336.071 132.664C336.515 131.932 337.079 131.668 337.571 131.668C338.327 131.668 338.831 132.148 338.831 133.204C338.831 134.284 338.291 134.836 337.631 134.836C336.755 134.836 336.083 133.984 336.083 131.68C336.083 129.208 336.935 128.38 338.015 128.38C338.519 128.38 339.071 128.668 339.371 129.016L340.319 127.972C339.779 127.408 338.987 126.964 337.907 126.964C336.107 126.964 334.463 128.38 334.463 131.68C334.463 134.812 335.975 136.168 337.655 136.168ZM341.457 136H347.409V134.512H345.489C345.069 134.512 344.481 134.572 344.037 134.62C345.657 133.036 347.001 131.308 347.001 129.688C347.001 128.032 345.873 126.964 344.205 126.964C342.993 126.964 342.189 127.432 341.373 128.308L342.345 129.268C342.801 128.764 343.317 128.344 343.977 128.344C344.829 128.344 345.297 128.896 345.297 129.784C345.297 131.152 343.881 132.82 341.457 134.992V136Z" fill="#404040"/>
<path d="M36.7292 232.643H42.2492V231.707H39.8132C39.3692 231.707 38.8412 231.743 38.3732 231.791C40.4492 229.835 41.8292 228.047 41.8292 226.283C41.8292 224.711 40.8452 223.691 39.2732 223.691C38.1572 223.691 37.3892 224.207 36.6692 224.987L37.3052 225.599C37.7972 225.023 38.4212 224.579 39.1412 224.579C40.2332 224.579 40.7492 225.323 40.7492 226.331C40.7492 227.831 39.4892 229.595 36.7292 232.007V232.643ZM46.1934 232.811C47.8494 232.811 48.9174 231.287 48.9174 228.215C48.9174 225.167 47.8494 223.691 46.1934 223.691C44.5134 223.691 43.4454 225.167 43.4454 228.215C43.4454 231.287 44.5134 232.811 46.1934 232.811ZM46.1934 231.923C45.1854 231.923 44.5014 230.807 44.5014 228.215C44.5014 225.659 45.1854 224.567 46.1934 224.567C47.1894 224.567 47.8614 225.659 47.8614 228.215C47.8614 230.807 47.1894 231.923 46.1934 231.923ZM50.5697 232.643H55.3937V231.731H53.6177V223.847H52.7777C52.3097 224.135 51.7457 224.339 50.9537 224.471V225.179H52.5257V231.731H50.5697V232.643ZM58.5339 232.643H59.6739C59.8179 229.211 60.1899 227.159 62.2539 224.507V223.847H56.7579V224.783H61.0179C59.2899 227.183 58.6899 229.319 58.5339 232.643ZM66.1502 222.527C65.5622 224.147 64.5662 225.707 63.4262 226.703C63.6542 226.823 64.0262 227.123 64.2062 227.279C65.3222 226.199 66.3902 224.531 67.0502 222.755L66.1502 222.527ZM65.9582 224.015L65.5262 224.891H73.6982V224.015H65.9582ZM65.3702 226.739V230.423H66.2702V227.579H73.4342V226.739H65.3702ZM63.3902 229.967V230.843H74.2622V229.967H63.3902ZM68.9702 224.471V233.615H69.8942V224.471H68.9702Z" fill="#404040"/>
<path d="M107.091 232.643H112.611V231.707H110.175C109.73 231.707 109.203 231.743 108.735 231.791C110.811 229.835 112.191 228.047 112.191 226.283C112.191 224.711 111.207 223.691 109.635 223.691C108.519 223.691 107.751 224.207 107.031 224.987L107.667 225.599C108.159 225.023 108.783 224.579 109.503 224.579C110.595 224.579 111.111 225.323 111.111 226.331C111.111 227.831 109.851 229.595 107.091 232.007V232.643ZM116.555 232.811C118.211 232.811 119.279 231.287 119.279 228.215C119.279 225.167 118.211 223.691 116.555 223.691C114.875 223.691 113.807 225.167 113.807 228.215C113.807 231.287 114.875 232.811 116.555 232.811ZM116.555 231.923C115.547 231.923 114.863 230.807 114.863 228.215C114.863 225.659 115.547 224.567 116.555 224.567C117.551 224.567 118.223 225.659 118.223 228.215C118.223 230.807 117.551 231.923 116.555 231.923ZM120.931 232.643H125.755V231.731H123.979V223.847H123.139C122.671 224.135 122.107 224.339 121.315 224.471V225.179H122.887V231.731H120.931V232.643ZM129.879 232.811C131.523 232.811 132.639 231.815 132.639 230.531C132.639 229.331 131.919 228.659 131.151 228.215V228.155C131.679 227.747 132.327 226.967 132.327 226.031C132.327 224.687 131.415 223.727 129.915 223.727C128.535 223.727 127.491 224.615 127.491 225.947C127.491 226.871 128.043 227.543 128.691 227.987V228.035C127.887 228.467 127.071 229.283 127.071 230.471C127.071 231.827 128.259 232.811 129.879 232.811ZM130.479 227.879C129.447 227.471 128.499 227.003 128.499 225.947C128.499 225.107 129.087 224.531 129.891 224.531C130.839 224.531 131.391 225.227 131.391 226.091C131.391 226.751 131.079 227.351 130.479 227.879ZM129.903 231.983C128.847 231.983 128.055 231.299 128.055 230.363C128.055 229.523 128.547 228.827 129.267 228.371C130.503 228.875 131.583 229.319 131.583 230.495C131.583 231.371 130.911 231.983 129.903 231.983Z" fill="#404040"/>
<path d="M182.028 232.643H187.548V231.707H185.112C184.668 231.707 184.14 231.743 183.672 231.791C185.748 229.835 187.128 228.047 187.128 226.283C187.128 224.711 186.144 223.691 184.572 223.691C183.456 223.691 182.688 224.207 181.968 224.987L182.604 225.599C183.096 225.023 183.72 224.579 184.44 224.579C185.532 224.579 186.048 225.323 186.048 226.331C186.048 227.831 184.788 229.595 182.028 232.007V232.643ZM191.492 232.811C193.148 232.811 194.216 231.287 194.216 228.215C194.216 225.167 193.148 223.691 191.492 223.691C189.812 223.691 188.744 225.167 188.744 228.215C188.744 231.287 189.812 232.811 191.492 232.811ZM191.492 231.923C190.484 231.923 189.8 230.807 189.8 228.215C189.8 225.659 190.484 224.567 191.492 224.567C192.488 224.567 193.16 225.659 193.16 228.215C193.16 230.807 192.488 231.923 191.492 231.923ZM195.869 232.643H200.693V231.731H198.917V223.847H198.077C197.609 224.135 197.045 224.339 196.253 224.471V225.179H197.825V231.731H195.869V232.643ZM204.277 232.811C205.933 232.811 207.469 231.443 207.469 227.867C207.469 225.071 206.209 223.691 204.517 223.691C203.149 223.691 201.997 224.843 201.997 226.547C201.997 228.371 202.945 229.307 204.421 229.307C205.177 229.307 205.957 228.851 206.509 228.155L206.449 227.279C205.873 228.155 205.189 228.503 204.601 228.503C203.557 228.503 203.029 227.723 203.029 226.547C203.029 225.335 203.677 224.543 204.517 224.543C205.753 224.543 206.437 225.707 206.437 227.867C206.437 230.879 205.417 231.899 204.241 231.899C203.677 231.899 203.137 231.647 202.765 231.215L202.153 231.911C202.645 232.427 203.317 232.811 204.277 232.811Z" fill="#404040"/>
<path d="M254.104 232.643H259.624V231.707H257.188C256.744 231.707 256.216 231.743 255.748 231.791C257.824 229.835 259.204 228.047 259.204 226.283C259.204 224.711 258.22 223.691 256.648 223.691C255.532 223.691 254.764 224.207 254.044 224.987L254.68 225.599C255.172 225.023 255.796 224.579 256.516 224.579C257.608 224.579 258.124 225.323 258.124 226.331C258.124 227.831 256.864 229.595 254.104 232.007V232.643ZM263.568 232.811C265.224 232.811 266.292 231.287 266.292 228.215C266.292 225.167 265.224 223.691 263.568 223.691C261.888 223.691 260.82 225.167 260.82 228.215C260.82 231.287 261.888 232.811 263.568 232.811ZM263.568 231.923C262.56 231.923 261.876 230.807 261.876 228.215C261.876 225.659 262.56 224.567 263.568 224.567C264.564 224.567 265.236 225.659 265.236 228.215C265.236 230.807 264.564 231.923 263.568 231.923ZM267.417 232.643H272.937V231.707H270.501C270.057 231.707 269.529 231.743 269.061 231.791C271.137 229.835 272.517 228.047 272.517 226.283C272.517 224.711 271.533 223.691 269.961 223.691C268.845 223.691 268.077 224.207 267.357 224.987L267.993 225.599C268.485 225.023 269.109 224.579 269.829 224.579C270.921 224.579 271.437 225.323 271.437 226.331C271.437 227.831 270.177 229.595 267.417 232.007V232.643ZM276.881 232.811C278.537 232.811 279.605 231.287 279.605 228.215C279.605 225.167 278.537 223.691 276.881 223.691C275.201 223.691 274.133 225.167 274.133 228.215C274.133 231.287 275.201 232.811 276.881 232.811ZM276.881 231.923C275.873 231.923 275.189 230.807 275.189 228.215C275.189 225.659 275.873 224.567 276.881 224.567C277.877 224.567 278.549 225.659 278.549 228.215C278.549 230.807 277.877 231.923 276.881 231.923Z" fill="#404040"/>
<path d="M326.755 232.643H332.275V231.707H329.839C329.395 231.707 328.867 231.743 328.399 231.791C330.475 229.835 331.855 228.047 331.855 226.283C331.855 224.711 330.871 223.691 329.299 223.691C328.183 223.691 327.415 224.207 326.695 224.987L327.331 225.599C327.823 225.023 328.447 224.579 329.167 224.579C330.259 224.579 330.775 225.323 330.775 226.331C330.775 227.831 329.515 229.595 326.755 232.007V232.643ZM336.219 232.811C337.875 232.811 338.943 231.287 338.943 228.215C338.943 225.167 337.875 223.691 336.219 223.691C334.539 223.691 333.471 225.167 333.471 228.215C333.471 231.287 334.539 232.811 336.219 232.811ZM336.219 231.923C335.211 231.923 334.527 230.807 334.527 228.215C334.527 225.659 335.211 224.567 336.219 224.567C337.215 224.567 337.887 225.659 337.887 228.215C337.887 230.807 337.215 231.923 336.219 231.923ZM340.067 232.643H345.587V231.707H343.151C342.707 231.707 342.179 231.743 341.711 231.791C343.787 229.835 345.167 228.047 345.167 226.283C345.167 224.711 344.183 223.691 342.611 223.691C341.495 223.691 340.727 224.207 340.007 224.987L340.643 225.599C341.135 225.023 341.759 224.579 342.479 224.579C343.571 224.579 344.087 225.323 344.087 226.331C344.087 227.831 342.827 229.595 340.067 232.007V232.643ZM347.251 232.643H352.075V231.731H350.299V223.847H349.459C348.991 224.135 348.427 224.339 347.635 224.471V225.179H349.207V231.731H347.251V232.643Z" fill="#404040"/>
<path d="M27.0401 221.097C28.6961 221.097 29.7641 219.573 29.7641 216.501C29.7641 213.453 28.6961 211.977 27.0401 211.977C25.3601 211.977 24.2921 213.453 24.2921 216.501C24.2921 219.573 25.3601 221.097 27.0401 221.097ZM27.0401 220.209C26.0321 220.209 25.3481 219.093 25.3481 216.501C25.3481 213.945 26.0321 212.853 27.0401 212.853C28.0361 212.853 28.7081 213.945 28.7081 216.501C28.7081 219.093 28.0361 220.209 27.0401 220.209Z" fill="#404040"/>
<path d="M10.4245 182.857H15.9445V181.921H13.5085C13.0645 181.921 12.5365 181.957 12.0685 182.005C14.1445 180.049 15.5245 178.261 15.5245 176.497C15.5245 174.925 14.5405 173.905 12.9685 173.905C11.8525 173.905 11.0845 174.421 10.3645 175.201L11.0005 175.813C11.4925 175.237 12.1165 174.793 12.8365 174.793C13.9285 174.793 14.4445 175.537 14.4445 176.545C14.4445 178.045 13.1845 179.809 10.4245 182.221V182.857ZM19.8887 183.025C21.5447 183.025 22.6127 181.501 22.6127 178.429C22.6127 175.381 21.5447 173.905 19.8887 173.905C18.2087 173.905 17.1407 175.381 17.1407 178.429C17.1407 181.501 18.2087 183.025 19.8887 183.025ZM19.8887 182.137C18.8807 182.137 18.1967 181.021 18.1967 178.429C18.1967 175.873 18.8807 174.781 19.8887 174.781C20.8847 174.781 21.5567 175.873 21.5567 178.429C21.5567 181.021 20.8847 182.137 19.8887 182.137ZM26.545 183.025C28.201 183.025 29.269 181.501 29.269 178.429C29.269 175.381 28.201 173.905 26.545 173.905C24.865 173.905 23.797 175.381 23.797 178.429C23.797 181.501 24.865 183.025 26.545 183.025ZM26.545 182.137C25.537 182.137 24.853 181.021 24.853 178.429C24.853 175.873 25.537 174.781 26.545 174.781C27.541 174.781 28.213 175.873 28.213 178.429C28.213 181.021 27.541 182.137 26.545 182.137Z" fill="#404040"/>
<path d="M13.9645 144.786H14.9965V135.99H13.7845L10.1245 141.642V142.362H16.1725V141.498H11.2765L13.2805 138.498C13.5205 138.066 13.7605 137.622 13.9765 137.19H14.0365C14.0005 137.646 13.9645 138.354 13.9645 138.798V144.786ZM19.8887 144.954C21.5447 144.954 22.6127 143.43 22.6127 140.358C22.6127 137.31 21.5447 135.834 19.8887 135.834C18.2087 135.834 17.1407 137.31 17.1407 140.358C17.1407 143.43 18.2087 144.954 19.8887 144.954ZM19.8887 144.066C18.8807 144.066 18.1967 142.95 18.1967 140.358C18.1967 137.802 18.8807 136.71 19.8887 136.71C20.8847 136.71 21.5567 137.802 21.5567 140.358C21.5567 142.95 20.8847 144.066 19.8887 144.066ZM26.545 144.954C28.201 144.954 29.269 143.43 29.269 140.358C29.269 137.31 28.201 135.834 26.545 135.834C24.865 135.834 23.797 137.31 23.797 140.358C23.797 143.43 24.865 144.954 26.545 144.954ZM26.545 144.066C25.537 144.066 24.853 142.95 24.853 140.358C24.853 137.802 25.537 136.71 26.545 136.71C27.541 136.71 28.213 137.802 28.213 140.358C28.213 142.95 27.541 144.066 26.545 144.066Z" fill="#404040"/>
<path d="M13.5085 106.882C14.8645 106.882 16.0285 105.73 16.0285 104.026C16.0285 102.178 15.0685 101.266 13.5805 101.266C12.8725 101.266 12.0565 101.698 11.5165 102.406L11.5525 103.282C12.1405 102.406 12.8485 102.07 13.4125 102.07C14.4685 102.07 14.9965 102.826 14.9965 104.026C14.9965 105.214 14.3485 106.018 13.5085 106.018C12.2725 106.018 11.5885 104.782 11.5885 102.526C11.5885 99.6459 12.6205 98.6739 13.8565 98.6739C14.3845 98.6739 14.9245 98.9259 15.2605 99.3339L15.8725 98.6619C15.3925 98.1459 14.7205 97.7619 13.8085 97.7619C12.1045 97.7619 10.5565 99.0819 10.5565 102.526C10.5565 105.43 11.8165 106.882 13.5085 106.882ZM19.8887 106.882C21.5447 106.882 22.6127 105.358 22.6127 102.286C22.6127 99.2379 21.5447 97.7619 19.8887 97.7619C18.2087 97.7619 17.1407 99.2379 17.1407 102.286C17.1407 105.358 18.2087 106.882 19.8887 106.882ZM19.8887 105.994C18.8807 105.994 18.1967 104.878 18.1967 102.286C18.1967 99.7299 18.8807 98.6379 19.8887 98.6379C20.8847 98.6379 21.5567 99.7299 21.5567 102.286C21.5567 104.878 20.8847 105.994 19.8887 105.994ZM26.545 106.882C28.201 106.882 29.269 105.358 29.269 102.286C29.269 99.2379 28.201 97.7619 26.545 97.7619C24.865 97.7619 23.797 99.2379 23.797 102.286C23.797 105.358 24.865 106.882 26.545 106.882ZM26.545 105.994C25.537 105.994 24.853 104.878 24.853 102.286C24.853 99.7299 25.537 98.6379 26.545 98.6379C27.541 98.6379 28.213 99.7299 28.213 102.286C28.213 104.878 27.541 105.994 26.545 105.994Z" fill="#404040"/>
<path d="M13.2445 68.8106C14.8885 68.8106 16.0045 67.8146 16.0045 66.5306C16.0045 65.3306 15.2845 64.6586 14.5165 64.2146V64.1546C15.0445 63.7466 15.6925 62.9666 15.6925 62.0306C15.6925 60.6866 14.7805 59.7266 13.2805 59.7266C11.9005 59.7266 10.8565 60.6146 10.8565 61.9466C10.8565 62.8706 11.4085 63.5426 12.0565 63.9866V64.0346C11.2525 64.4666 10.4365 65.2826 10.4365 66.4706C10.4365 67.8266 11.6245 68.8106 13.2445 68.8106ZM13.8445 63.8786C12.8125 63.4706 11.8645 63.0026 11.8645 61.9466C11.8645 61.1066 12.4525 60.5306 13.2565 60.5306C14.2045 60.5306 14.7565 61.2266 14.7565 62.0906C14.7565 62.7506 14.4445 63.3506 13.8445 63.8786ZM13.2685 67.9826C12.2125 67.9826 11.4205 67.2986 11.4205 66.3626C11.4205 65.5226 11.9125 64.8266 12.6325 64.3706C13.8685 64.8746 14.9485 65.3186 14.9485 66.4946C14.9485 67.3706 14.2765 67.9826 13.2685 67.9826ZM19.8887 68.8106C21.5447 68.8106 22.6127 67.2866 22.6127 64.2146C22.6127 61.1666 21.5447 59.6906 19.8887 59.6906C18.2087 59.6906 17.1407 61.1666 17.1407 64.2146C17.1407 67.2866 18.2087 68.8106 19.8887 68.8106ZM19.8887 67.9226C18.8807 67.9226 18.1967 66.8066 18.1967 64.2146C18.1967 61.6586 18.8807 60.5666 19.8887 60.5666C20.8847 60.5666 21.5567 61.6586 21.5567 64.2146C21.5567 66.8066 20.8847 67.9226 19.8887 67.9226ZM26.545 68.8106C28.201 68.8106 29.269 67.2866 29.269 64.2146C29.269 61.1666 28.201 59.6906 26.545 59.6906C24.865 59.6906 23.797 61.1666 23.797 64.2146C23.797 67.2866 24.865 68.8106 26.545 68.8106ZM26.545 67.9226C25.537 67.9226 24.853 66.8066 24.853 64.2146C24.853 61.6586 25.537 60.5666 26.545 60.5666C27.541 60.5666 28.213 61.6586 28.213 64.2146C28.213 66.8066 27.541 67.9226 26.545 67.9226Z" fill="#404040"/>
<path d="M12.3197 42.3092V43.2212H15.7157V42.3092H12.3197ZM15.2597 42.3092C15.2597 44.5652 15.6557 49.6772 20.4557 52.5812C20.6237 52.3652 20.9837 51.9812 21.1877 51.8252C16.4477 49.0172 16.1837 44.4572 16.1837 42.3092H15.2597ZM14.9237 44.6612C14.1917 48.0572 12.6917 50.4812 10.0277 51.8732C10.2677 52.0412 10.6757 52.4132 10.8437 52.6052C13.4957 51.0452 15.0797 48.5132 15.9437 44.8532L14.9237 44.6612ZM26.3837 43.3532V44.1932H32.9837V43.3532H26.3837ZM27.9917 44.5052C27.5717 45.3452 26.7917 46.3652 26.0117 47.0012C26.2037 47.1452 26.4917 47.3852 26.6357 47.5532C27.4517 46.8452 28.2557 45.8252 28.7957 44.8652L27.9917 44.5052ZM30.2117 44.9132C31.0037 45.6692 31.9037 46.7612 32.2877 47.4812L32.9597 46.9292C32.5517 46.2212 31.6277 45.1772 30.8477 44.4212L30.2117 44.9132ZM28.1237 46.6652L27.3437 46.8692C28.3037 49.5572 30.0437 51.6092 32.5637 52.5452C32.6957 52.2932 32.9717 51.9332 33.1757 51.7532C30.7397 50.9612 28.9757 49.0532 28.1237 46.6652ZM28.4717 41.8412C28.8677 42.2972 29.2637 42.9452 29.4437 43.3652L30.2477 42.9812C30.0557 42.5612 29.6477 41.9612 29.2397 41.5172L28.4717 41.8412ZM22.3397 44.1212V44.9732H26.0837V44.1212H22.3397ZM23.9117 41.5772V52.6052H24.7397V41.5772H23.9117ZM23.8157 44.6252C23.4917 46.3532 22.7237 48.4652 21.9437 49.5452C22.1117 49.7732 22.3277 50.1572 22.4237 50.4092C23.2397 49.1852 24.0077 46.7732 24.3677 44.8292L23.8157 44.6252ZM24.7157 45.4172L24.2837 45.7892C24.5837 46.3172 25.3637 47.8532 25.6157 48.5012L26.1677 47.8172C25.9517 47.4212 24.9677 45.7772 24.7157 45.4172ZM30.7157 46.6052C30.0557 49.0772 28.4237 50.8652 25.9277 51.9572C26.1077 52.1132 26.3837 52.4372 26.5037 52.6292C29.1317 51.4532 30.7997 49.5452 31.5917 46.8212L30.7157 46.6052ZM39.0797 41.6252C39.0317 43.4732 39.1037 49.3412 34.0997 51.8732C34.3757 52.0652 34.6757 52.3412 34.8317 52.5812C39.9317 49.8452 40.0277 43.7492 40.0757 41.6252H39.0797ZM39.9677 43.1012L39.1037 43.1972C39.2717 44.2412 39.7637 50.3132 44.5157 52.5332C44.6477 52.2812 44.9117 51.9692 45.1757 51.7652C40.5677 49.7132 40.0757 43.9652 39.9677 43.1012ZM53.3117 43.9532V44.7692H57.1157V43.9532H53.3117ZM53.7197 41.5772C53.3597 43.6052 52.7597 45.6452 51.9197 46.9652C52.0997 47.0852 52.4237 47.3732 52.5557 47.5172C53.4077 46.0772 54.0797 43.9052 54.4877 41.7332L53.7197 41.5772ZM55.4237 44.4452C55.0397 48.2612 54.0197 50.6492 51.2717 51.9572C51.4157 52.1132 51.6557 52.4612 51.7397 52.6412C54.6317 51.1292 55.7597 48.6332 56.2277 44.5172L55.4237 44.4452ZM53.6597 44.7932L52.9997 44.8892C53.5037 48.3932 54.4757 51.2372 56.6237 52.5692C56.7557 52.3412 57.0197 52.0292 57.2117 51.8732C55.1237 50.7332 54.1157 47.9972 53.6597 44.7932ZM48.9317 41.5772V47.8772H49.6517V41.5772H48.9317ZM47.6477 42.9932H51.0197V45.0332H47.6477V42.9932ZM46.9397 42.3572V45.6572H51.7637V42.3572H46.9397ZM47.4317 46.7612H51.2117V47.5652H47.4317V46.7612ZM46.6637 46.1852V48.1412H52.0037V46.1852H46.6637ZM46.1117 43.6052V44.3012H47.2397V44.2652H51.2477V44.3012H52.4477V43.6052H51.2477V43.6412H47.2397V43.6052H46.1117ZM46.9397 50.6372L47.7197 50.7812C48.2237 50.0852 48.9197 48.9572 49.3397 47.9852L48.5837 47.8172C48.1997 48.7532 47.5037 49.8932 46.9397 50.6372ZM46.9397 50.6372C48.3677 51.0092 50.1077 51.7412 51.0437 52.3052L51.6317 51.7652C50.6597 51.2252 48.9317 50.5052 47.5397 50.1332L46.9397 50.6372ZM50.3957 48.4292V48.8252C50.3957 49.7852 50.0597 51.2132 46.0277 52.0052C46.1717 52.1612 46.3517 52.4372 46.4237 52.6052C50.6957 51.7292 51.1397 50.0852 51.1397 48.8492V48.4292H50.3957ZM46.1237 48.9092V49.5692H52.3517V48.9092H46.1237Z" fill="#404040"/>
</svg>
