<svg width="530" height="358" viewBox="0 0 530 358" fill="none" xmlns="http://www.w3.org/2000/svg">
<rect width="530" height="357.447" fill="#FAFAFA"/>
<path d="M62.5141 31.4284C61.5301 34.2364 59.9221 37.3324 58.3381 39.2764C59.0341 39.5644 60.2821 40.2364 60.8341 40.6444C62.3461 38.5324 64.0741 35.2204 65.2501 32.1724L62.5141 31.4284ZM73.6261 32.5324C75.2101 35.0284 77.1061 38.4364 77.9701 40.5484L80.4421 39.0844C79.5061 36.9964 77.5861 33.8044 75.9541 31.3324L73.6261 32.5324ZM74.9941 40.3324C72.0181 45.2284 65.9461 46.9804 57.8821 47.6524C58.4101 48.3724 58.9861 49.5484 59.2261 50.3884C67.8181 49.4284 74.2261 47.2204 77.6341 41.4844L74.9941 40.3324ZM67.5781 27.9244V42.9244H70.4581V27.9244H67.5781ZM87.2821 27.8044C86.2501 30.9244 84.3781 33.9964 82.2181 35.8684C82.9141 36.2764 84.1381 37.2364 84.6901 37.7404C86.8261 35.5804 88.9381 32.1244 90.2101 28.5484L87.2821 27.8044ZM87.7861 30.5404L86.3941 33.3244H103.05V30.5404H87.7861ZM86.0821 36.2044V43.9324H88.9861V38.8924H102.498V36.2044H86.0821ZM82.2901 42.5164V45.3004H104.37V42.5164H82.2901ZM93.1381 31.9804V50.4364H96.1141V31.9804H93.1381ZM115.146 31.5244V33.5644H128.298V31.5244H115.146ZM125.538 27.9004C123.21 28.4764 119.01 28.7644 115.458 28.8604C115.698 29.3644 115.986 30.1804 116.082 30.7084C119.778 30.6844 124.29 30.3724 127.338 29.6284L125.538 27.9004ZM124.266 32.1724L122.418 32.8204C123.45 34.7884 125.274 36.7564 127.242 37.7404C127.602 37.1164 128.346 36.2764 128.874 35.8204C127.026 35.1244 125.178 33.6364 124.266 32.1724ZM115.074 40.2124V50.3884H117.546V42.3004H126.186V40.2124H115.074ZM118.626 43.1404V48.7564H120.642V43.1404H118.626ZM125.586 40.2124V47.7724C125.586 48.0124 125.49 48.0844 125.202 48.1084C124.962 48.1084 124.05 48.1084 123.234 48.0844C123.57 48.7084 123.954 49.6924 124.074 50.3884C125.442 50.3884 126.45 50.3404 127.194 49.9804C127.962 49.5964 128.178 48.9244 128.178 47.8204V40.2124H125.586ZM119.706 43.1404V44.7484H122.586V46.0684H119.706V47.6524H124.554V43.1404H119.706ZM119.754 36.3724H123.522V37.6204H119.754V36.3724ZM117.474 34.5724V39.3724H125.946V34.5724H117.474ZM119.586 29.5564C119.01 32.1484 117.306 34.7164 114.546 36.0124C114.978 36.4204 115.65 37.2844 115.986 37.8124C119.13 36.2524 121.146 33.2044 122.082 29.9644L119.586 29.5564ZM109.722 32.1244V36.5404C109.722 40.0684 109.362 44.9404 105.882 48.3244C106.41 48.6604 107.466 49.6684 107.85 50.1964C111.642 46.5004 112.314 40.5244 112.314 36.5644V32.1244H109.722ZM108.378 30.6604V33.2764H114.714V30.6604H108.378ZM106.338 36.8764V39.5404H115.122V36.8764H106.338ZM111.762 40.2364L110.082 41.7244C110.97 43.0204 112.698 45.7804 113.49 47.3884L115.362 45.0364C114.834 44.2924 112.458 40.9804 111.762 40.2364ZM107.73 27.9004C107.394 30.5644 106.818 33.3004 105.834 35.0764C106.41 35.3884 107.466 36.1324 107.946 36.5164C109.026 34.5244 109.818 31.4044 110.25 28.3564L107.73 27.9004ZM131.202 29.4604V32.2684H151.626V29.4604H131.202ZM141.93 37.5484V40.3804H150.402V37.5484H141.93ZM130.386 46.7164V49.5244H152.322V46.7164H130.386ZM140.514 30.5884V48.0844H143.586V30.5884H140.514ZM133.338 35.9884V48.2284H136.338V35.9884H133.338ZM154.41 43.7404V46.0444H176.178V43.7404H154.41ZM159.09 39.6364V41.6764H169.602V39.6364H159.09ZM164.154 43.0684V47.6524C164.154 47.9644 164.058 48.0364 163.674 48.0364C163.29 48.0364 161.85 48.0364 160.698 47.9884C161.058 48.6844 161.466 49.6684 161.61 50.4124C163.41 50.4124 164.73 50.4124 165.714 50.0524C166.722 49.6684 166.986 49.0444 166.986 47.7484V43.0684H164.154ZM168.882 39.6364V40.1164C167.922 41.0284 165.858 42.3484 164.154 43.0684C164.514 43.4044 165.162 44.1004 165.45 44.5324C167.658 43.6204 170.01 42.2764 171.81 40.9804L170.178 39.4924L169.578 39.6364H168.882ZM154.818 36.5404V41.4844H157.554V38.6284H173.034V41.4844H175.89V36.5404H154.818ZM171.882 28.6924C171.786 31.5724 171.522 35.2204 171.21 37.5724H173.97C174.234 35.2924 174.474 31.6444 174.618 28.6924H171.882ZM168.57 28.6924V30.4924H173.01V28.6924H168.57ZM161.058 28.0204C159.762 28.4524 157.626 29.1004 156.186 29.3404L157.194 30.9244C158.658 30.6844 160.746 30.2524 162.258 29.6764L161.058 28.0204ZM157.578 31.3084V33.0844H162.066V31.3084H157.578ZM157.65 33.9244V35.7004H162.138V33.9244H157.65ZM168.714 31.3084V33.0844H172.77V31.3084H168.714ZM168.594 33.9244V35.7004H172.626V33.9244H168.594ZM166.218 28.0444C165.33 29.2204 163.722 30.3004 162.066 31.0204C162.522 31.3084 163.242 31.9564 163.578 32.2924C165.21 31.4524 167.01 30.0604 168.09 28.5724L166.218 28.0444ZM162.57 29.3164C164.058 30.0844 165.906 31.2604 166.77 32.1004L168.162 30.8764C167.202 30.0364 165.354 28.9084 163.89 28.2124L162.57 29.3164ZM166.242 32.1004C165.306 33.3484 163.578 34.5004 161.874 35.2444C162.282 35.5564 163.002 36.3004 163.314 36.6604C165.066 35.7484 166.962 34.2604 168.114 32.6524L166.242 32.1004ZM162.45 33.4204C164.034 34.2604 165.978 35.5564 166.89 36.4684L168.306 35.2204C167.322 34.3084 165.33 33.0844 163.794 32.3164L162.45 33.4204ZM156.186 29.3404L156.666 37.4524H159.354L158.922 30.0364L156.186 29.3404ZM187.002 31.2364V33.9004H200.346V31.2364H187.002ZM189.834 33.9244C188.922 35.5084 187.338 37.4524 185.826 38.6044C186.45 39.0604 187.362 39.8524 187.818 40.4044C189.402 39.0844 191.13 37.0444 192.378 35.1004L189.834 33.9244ZM194.346 35.2684C195.882 36.7324 197.658 38.8204 198.378 40.2604L200.49 38.4124C199.698 37.0204 197.826 35.0524 196.29 33.6364L194.346 35.2684ZM191.058 38.2924L188.562 38.9164C190.482 44.4604 193.626 48.4204 198.978 50.2924C199.41 49.4764 200.274 48.2764 200.922 47.7004C195.882 46.2364 192.618 42.8044 191.058 38.2924ZM190.914 28.5964C191.61 29.5324 192.33 30.8764 192.642 31.7404L195.306 30.6124C194.97 29.7484 194.202 28.5484 193.458 27.6364L190.914 28.5964ZM178.53 32.6284V35.2924H186.402V32.6284H178.53ZM181.386 27.9004V50.4364H184.002V27.9004H181.386ZM181.074 34.4524C180.522 37.5484 179.226 41.4604 177.738 43.5244C178.194 44.2924 178.842 45.5884 179.082 46.4044C180.666 43.8604 181.986 39.0364 182.61 35.0524L181.074 34.4524ZM183.978 36.0124L182.706 37.1644C183.402 38.4604 184.818 41.4124 185.37 42.9724L187.002 40.8364C186.57 40.0684 184.53 36.7324 183.978 36.0124ZM195.114 38.2684C193.77 42.9484 190.554 46.3564 185.658 48.2044C186.234 48.7084 187.098 49.8364 187.458 50.4604C192.81 48.2764 196.194 44.5324 197.874 38.9884L195.114 38.2684ZM215.682 35.8444V38.5084H224.538V35.8444H215.682ZM202.602 30.2764V32.6284H213.402V30.2764H202.602ZM202.362 39.8284V42.2524H213.378V39.8284H202.362ZM202.218 35.6284V38.0044H213.786V35.6284H202.218ZM219.498 37.0204V50.3164H222.306V37.0204H219.498ZM203.874 33.0844C204.186 33.9244 204.474 35.0764 204.594 35.7964L206.97 35.1244C206.85 34.4284 206.514 33.3484 206.154 32.5324L203.874 33.0844ZM209.754 32.5084C209.49 33.5164 208.986 34.9564 208.578 35.8924L210.906 36.3964C211.362 35.5324 211.842 34.2844 212.37 33.0124L209.754 32.5084ZM221.898 28.1164C220.146 28.9324 217.242 29.7004 214.602 30.1804C214.914 30.7804 215.322 31.7644 215.442 32.3644C218.298 31.9324 221.61 31.2124 224.13 30.2284L221.898 28.1164ZM205.986 28.3564C206.442 29.4364 206.946 30.8764 207.138 31.7644L210.162 30.9484C209.946 30.0604 209.37 28.6924 208.89 27.6604L205.986 28.3564ZM214.602 30.1804V38.7964C214.602 41.9164 214.458 45.9244 212.682 48.6604C213.282 48.9724 214.434 49.8604 214.89 50.3644C216.954 47.2924 217.266 42.3244 217.266 38.7964V30.1804H214.602ZM210.162 43.7884C210.834 44.8924 211.65 46.4284 212.034 47.3884L213.978 46.1644C213.594 45.2524 212.778 43.8364 212.034 42.7324L210.162 43.7884ZM204.066 43.0204C203.562 44.5084 202.77 46.1884 201.93 47.2924C202.482 47.6044 203.418 48.2524 203.826 48.6124C204.666 47.3644 205.674 45.3724 206.274 43.6684L204.066 43.0204ZM206.85 36.9484V50.2684H209.658V36.9484H206.85ZM230.826 29.2444V32.1724H237.618V29.2444H230.826ZM236.202 29.2444C236.202 34.1404 237.258 44.8684 246.402 50.3644C246.906 49.6444 248.058 48.3724 248.73 47.8444C239.826 42.6364 239.178 33.8044 239.178 29.2444H236.202ZM235.17 34.5004C233.874 40.8604 230.994 45.5164 225.978 48.0604C226.722 48.5884 228.066 49.7884 228.594 50.4124C233.61 47.3884 236.802 42.2284 238.482 35.1004L235.17 34.5004ZM259.002 31.2364V33.9004H272.346V31.2364H259.002ZM261.834 33.9244C260.922 35.5084 259.338 37.4524 257.826 38.6044C258.45 39.0604 259.362 39.8524 259.818 40.4044C261.402 39.0844 263.13 37.0444 264.378 35.1004L261.834 33.9244ZM266.346 35.2684C267.882 36.7324 269.658 38.8204 270.378 40.2604L272.49 38.4124C271.698 37.0204 269.826 35.0524 268.29 33.6364L266.346 35.2684ZM263.058 38.2924L260.562 38.9164C262.482 44.4604 265.626 48.4204 270.978 50.2924C271.41 49.4764 272.274 48.2764 272.922 47.7004C267.882 46.2364 264.618 42.8044 263.058 38.2924ZM262.914 28.5964C263.61 29.5324 264.33 30.8764 264.642 31.7404L267.306 30.6124C266.97 29.7484 266.202 28.5484 265.458 27.6364L262.914 28.5964ZM250.53 32.6284V35.2924H258.402V32.6284H250.53ZM253.386 27.9004V50.4364H256.002V27.9004H253.386ZM253.074 34.4524C252.522 37.5484 251.226 41.4604 249.738 43.5244C250.194 44.2924 250.842 45.5884 251.082 46.4044C252.666 43.8604 253.986 39.0364 254.61 35.0524L253.074 34.4524ZM255.978 36.0124L254.706 37.1644C255.402 38.4604 256.818 41.4124 257.37 42.9724L259.002 40.8364C258.57 40.0684 256.53 36.7324 255.978 36.0124ZM267.114 38.2684C265.77 42.9484 262.554 46.3564 257.658 48.2044C258.234 48.7084 259.098 49.8364 259.458 50.4604C264.81 48.2764 268.194 44.5324 269.874 38.9884L267.114 38.2684ZM283.434 27.9244C283.314 32.0284 283.77 42.8044 274.002 48.0604C274.938 48.7084 275.874 49.6204 276.402 50.3884C286.434 44.4844 286.578 32.8924 286.722 27.9244H283.434ZM286.458 30.8524L283.674 31.1644C284.034 33.5644 284.826 45.5644 294.666 50.2444C295.098 49.4284 295.914 48.4444 296.778 47.7724C287.418 43.5964 286.65 32.7964 286.458 30.8524ZM312.666 32.3404V34.8604H320.586V32.3404H312.666ZM313.194 27.8764C312.522 32.0284 311.394 36.3004 309.834 38.9884C310.362 39.3964 311.298 40.3324 311.682 40.8124C313.386 37.6924 314.754 32.8924 315.57 28.3324L313.194 27.8764ZM316.602 33.9724C316.002 41.3644 314.106 45.9724 308.682 48.3964C309.138 48.9004 309.834 49.9804 310.074 50.5324C315.978 47.5324 318.21 42.4444 319.05 34.1644L316.602 33.9724ZM314.034 34.6684L312.018 34.9564C313.002 41.9164 314.754 47.5564 319.074 50.3884C319.458 49.6684 320.298 48.6364 320.874 48.1564C316.77 45.8764 314.898 40.6684 314.034 34.6684ZM303.642 27.9004V40.7164H305.802V27.9004H303.642ZM301.914 31.1404H307.674V34.6924H301.914V31.1404ZM299.754 29.3404V36.5164H309.93V29.3404H299.754ZM301.722 38.8204H307.77V39.8764H301.722V38.8204ZM299.346 37.2124V41.5084H310.266V37.2124H299.346ZM298.074 31.8364V33.8764H300.474V33.7324H308.514V33.8764H311.202V31.8364H308.514V31.9804H300.474V31.8364H298.074ZM299.562 46.3564L301.866 46.8844C302.97 45.4204 304.458 43.1404 305.418 41.0764L303.138 40.5724C302.298 42.4924 300.786 44.8444 299.562 46.3564ZM299.562 46.3564C302.682 47.1004 306.45 48.5644 308.538 49.7404L310.338 48.1324C308.13 47.0044 304.434 45.5884 301.386 44.8684L299.562 46.3564ZM306.81 41.8684V42.9724C306.81 44.7484 305.946 47.3164 297.834 48.5644C298.242 49.0204 298.77 49.8844 298.962 50.4124C307.89 48.9244 309.066 45.5884 309.066 43.0684V41.8684H306.81ZM298.338 42.5644V44.4844H311.058V42.5644H298.338ZM328.16 47.1964V49.7404H349.424V47.1964H328.16ZM330.128 42.7564V45.1564H347.384V42.7564H330.128ZM333.968 31.3564H343.4V34.6924H333.968V31.3564ZM331.136 28.8124V37.2364H346.4V28.8124H331.136ZM337.208 39.7564V48.5644H340.256V39.7564H337.208ZM345.752 37.7164C341.792 38.4844 334.976 38.8684 329.072 38.9644C329.312 39.4924 329.6 40.5244 329.648 41.1484C335.672 41.1004 342.752 40.7164 347.792 39.7804L345.752 37.7164ZM351.752 29.1484V31.8124H360.2V29.1484H351.752ZM351.968 36.0124V38.6524H359.936V36.0124H351.968ZM351.176 44.3404L351.896 47.0764C354.392 46.3324 357.656 45.3964 360.68 44.4844L360.296 41.9644C356.984 42.8764 353.504 43.8124 351.176 44.3404ZM363.8 34.8124H370.112V36.3004H363.8V34.8124ZM363.8 38.5084H370.112V39.9724H363.8V38.5084ZM363.8 31.1644H370.112V32.6284H363.8V31.1644ZM361.136 28.8124V42.3484H372.92V28.8124H361.136ZM367.184 41.2924V47.0764C367.184 49.5004 367.664 50.3164 369.896 50.3164C370.304 50.3164 371.288 50.3164 371.72 50.3164C373.472 50.3164 374.144 49.4044 374.384 46.1164C373.664 45.9484 372.512 45.4924 371.96 45.0604C371.912 47.4604 371.816 47.8444 371.408 47.8444C371.192 47.8444 370.568 47.8444 370.4 47.8444C370.016 47.8444 369.944 47.7724 369.944 47.0524V41.2924H367.184ZM362.936 41.9884C362.624 45.0364 362 47.0764 357.44 48.2284C358.016 48.7804 358.736 49.8844 359.024 50.6044C364.352 48.9964 365.384 46.0924 365.744 41.9884H362.936ZM354.656 30.2044V44.7244L357.44 44.3164V30.2044H354.656ZM375.992 29.6524V32.5564H397.544V29.6524H375.992ZM384.704 32.2684V50.3884H387.8V32.2684H384.704ZM386.336 38.0764C389.048 39.5404 392.696 41.7964 394.4 43.3084L396.536 40.6684C394.688 39.1804 390.92 37.0924 388.304 35.7964L386.336 38.0764ZM412.424 29.9164V32.0524H418.808V29.9164H412.424ZM409.064 44.6524V47.1484H421.856V44.6524H409.064ZM418.328 29.9164V30.3004C416.696 33.8284 412.28 36.0844 407.384 36.9724C407.888 37.5484 408.488 38.6044 408.776 39.2764C414.152 38.0284 418.928 35.4604 421.088 30.6604L419.312 29.8204L418.856 29.9164H418.328ZM412.424 31.8124L410.12 32.5564C412.304 36.0124 415.904 38.2684 420.704 39.2044C421.04 38.5084 421.784 37.4284 422.36 36.8764C417.848 36.2044 414.176 34.4284 412.424 31.8124ZM413.96 38.5084V50.4124H416.744V38.5084H413.96ZM412.616 27.9244C411.608 29.7244 409.88 31.8124 407.384 33.3724C407.984 33.7804 408.824 34.7404 409.208 35.3644C412.04 33.3484 414.008 30.9964 415.424 28.4764L412.616 27.9244ZM400.328 28.8364V50.3644H402.824V31.4044H405.968V28.8364H400.328ZM405.44 28.8364V29.6284C405.032 31.1884 404.144 34.2844 403.352 36.3724C404.96 38.0764 405.344 39.6364 405.344 40.7884C405.368 41.5084 405.224 42.0364 404.888 42.2524C404.696 42.3964 404.432 42.4444 404.144 42.4444C403.832 42.4684 403.448 42.4684 402.968 42.3964C403.376 43.1164 403.616 44.1964 403.64 44.8924C404.24 44.8924 404.84 44.8924 405.32 44.8204C405.872 44.7484 406.352 44.5804 406.736 44.2924C407.552 43.7164 407.912 42.6604 407.912 41.1004C407.912 39.6844 407.552 37.9804 405.872 36.0844C406.664 34.2364 407.528 31.8604 408.248 29.8204L406.328 28.7404L405.92 28.8364H405.44ZM409.304 41.6284C408.944 43.4044 408.368 45.6604 407.888 47.1484H410.552C410.96 45.8044 411.488 43.6204 411.872 41.8924L409.304 41.6284ZM408.44 39.8044V42.2764H421.184V39.8044H408.44ZM435.224 36.4684C434.528 38.0284 433.328 39.5884 431.96 40.5964C432.56 40.9324 433.568 41.6284 434.072 42.0364C435.44 40.8604 436.832 38.9884 437.672 37.0924L435.224 36.4684ZM435.992 37.8844L434.624 39.8044H443.576V37.8844H435.992ZM442.976 37.8844V38.2444C442.808 42.4684 442.616 43.9804 442.304 44.3884C442.136 44.6044 441.968 44.6524 441.656 44.6524C441.368 44.6524 440.768 44.6284 440.024 44.5564C440.312 45.0604 440.552 45.8764 440.576 46.4284C441.512 46.4524 442.4 46.4524 442.904 46.3804C443.504 46.3324 444.008 46.1644 444.392 45.6604C444.944 45.0124 445.184 43.2844 445.376 38.7484C445.4 38.4604 445.4 37.8844 445.4 37.8844H442.976ZM436.784 40.3564V42.6604C436.784 43.6444 436.16 44.8204 432.968 45.3724C433.424 45.7564 433.928 46.3804 434.192 46.8124C437.96 45.9484 438.776 44.4364 438.776 42.6844V40.3564H436.784ZM433.808 40.6924V43.9564H441.848V40.6924H439.952V42.2764H435.656V40.6924H433.808ZM435.416 27.7564C434.744 29.4604 433.544 31.1404 432.176 32.2204C432.752 32.5564 433.76 33.2284 434.24 33.6124C435.608 32.3884 437 30.3724 437.816 28.3564L435.416 27.7564ZM436.136 29.1004L434.768 31.0204H443.624V29.1004H436.136ZM442.88 29.1004V29.4604C442.736 33.2284 442.544 34.6204 442.28 34.9804C442.112 35.1724 441.968 35.2204 441.68 35.2204C441.392 35.2204 440.792 35.2204 440.12 35.1484C440.384 35.6044 440.6 36.3484 440.624 36.8764C441.536 36.9244 442.4 36.9004 442.88 36.8524C443.48 36.7804 443.96 36.6364 444.344 36.1564C444.848 35.5324 445.064 33.9964 445.232 29.9404C445.256 29.6764 445.28 29.1004 445.28 29.1004H442.88ZM436.952 31.5244V34.1644C436.952 35.0764 436.184 35.8924 433.184 36.2284C433.568 36.5884 434 37.1644 434.192 37.5964C437.792 37.0204 438.776 35.8444 438.776 34.1644V31.5244H436.952ZM434.072 31.8364V34.9564H441.776V31.8364H439.928V33.3724H435.848V31.8364H434.072ZM424.352 30.3724V32.8444H432.608V30.3724H424.352ZM423.776 34.8124V37.3564H433.112V34.8124H423.776ZM428.84 39.7324V42.2284H432.848V39.7324H428.84ZM427.328 27.9004V36.4204H429.896V27.9004H427.328ZM428.024 36.4684V47.1484H430.544V36.4684H428.024ZM426.848 41.2684L424.784 41.8924C426.584 48.6364 429.872 49.8124 436.16 49.8124H445.064C445.232 48.9484 445.712 47.6284 446.168 46.9564C444.08 47.0764 437.936 47.0524 436.208 47.0524C431.144 47.0524 428.24 46.3084 426.848 41.2684ZM424.592 38.8924C424.712 42.1564 424.592 45.9484 423.032 48.7324C423.608 48.9964 424.496 49.8364 424.856 50.4124C426.8 47.1484 427.016 42.8524 426.92 39.0364L424.592 38.8924ZM451.976 35.7484V40.8844L454.568 40.7164V35.7484H451.976ZM447.92 31.6684V33.4924H458.768V31.6684H447.92ZM448.712 29.1004V30.8284H457.928V29.1004H448.712ZM451.976 27.9004V32.8444H454.568V27.9004H451.976ZM447.8 39.8044L447.92 41.8204C450.704 41.6284 454.568 41.3884 458.312 41.1244L458.336 39.2524C454.472 39.4924 450.464 39.7084 447.8 39.8044ZM450.584 33.0844C450.32 34.2124 449.216 34.7884 447.656 35.1004C448.016 35.4844 448.544 36.3244 448.712 36.7564C450.848 36.1564 452.216 35.0524 452.624 33.2044L450.584 33.0844ZM448.736 36.8044V38.5084H457.976V36.8044H448.736ZM449.456 42.9004V45.0844H465.656V42.9004H449.456ZM465.056 42.9004V43.2604C464.792 46.0924 464.456 47.3884 464.024 47.7484C463.784 47.9404 463.52 47.9644 463.064 47.9644C462.536 47.9644 461.264 47.9404 460.04 47.8444C460.496 48.5404 460.832 49.6204 460.88 50.4124C462.248 50.4604 463.544 50.4604 464.312 50.3884C465.2 50.3164 465.824 50.1244 466.424 49.5724C467.12 48.8764 467.552 47.2924 467.888 44.0044C467.96 43.6444 468.008 42.9004 468.008 42.9004H465.056ZM457.136 41.6764C456.704 45.4444 455.744 47.3164 448.064 48.1564C448.544 48.7324 449.168 49.7884 449.36 50.4844C457.976 49.3084 459.488 46.5964 460.064 41.6764H457.136ZM458.672 35.7004C460.496 36.7804 463.112 38.3164 464.384 39.2764L465.632 37.2124C464.288 36.3244 461.648 34.8844 459.848 33.9004L458.672 35.7004ZM459.224 30.4924V32.7964H466.424V30.4924H459.224ZM465.416 30.4924C465.44 36.9724 465.488 42.1564 468.32 42.1564C469.856 42.1564 470.24 41.0044 470.432 38.5324C469.952 38.1484 469.352 37.5004 468.896 36.9004C468.872 38.4844 468.776 39.6844 468.536 39.6604C467.888 39.6604 467.936 35.5084 467.984 30.4924H465.416ZM461.552 27.9004C461.48 33.8764 461.36 37.5964 458.144 39.8044C458.672 40.2124 459.392 41.0764 459.68 41.6284C463.496 39.0364 463.88 34.5964 464 27.9004H461.552ZM453.848 32.7004V33.9484C453.848 35.4124 454.136 36.1564 455.744 36.1564C456.128 36.1564 456.872 36.1564 457.208 36.1564C457.664 36.1564 458.216 36.1084 458.504 36.0124C458.432 35.4844 458.384 34.9564 458.36 34.4284C458.072 34.5244 457.448 34.5724 457.16 34.5724C456.944 34.5724 456.512 34.5724 456.344 34.5724C456.008 34.5724 455.96 34.3804 455.96 33.9724V32.7004H453.848Z" fill="#404040"/>
<path opacity="0.5" d="M58.9844 312.341H502.646" stroke="#404040" stroke-linecap="round"/>
<g opacity="0.5">
<path d="M58.8633 257.021H502.75" stroke="#404040" stroke-linecap="round" stroke-dasharray="1 3"/>
<path d="M58.8633 201.701H502.75" stroke="#404040" stroke-linecap="round" stroke-dasharray="1 3"/>
<path d="M58.8633 146.383H502.75" stroke="#404040" stroke-linecap="round" stroke-dasharray="1 3"/>
<path d="M58.8633 91.0635H502.75" stroke="#404040" stroke-linecap="round" stroke-dasharray="1 3"/>
</g>
<path d="M68.3867 108.085L173.759 181.276H279.969H385.341L492.387 212.766" stroke="#FFC235" stroke-width="4" stroke-linecap="round"/>
<path d="M60.1475 99.8506H62.5315C62.7395 95.2266 63.0915 92.7946 65.8435 89.4346V88.0106H57.9875V89.9786H63.3155C61.0435 93.1146 60.3715 95.7546 60.1475 99.8506ZM70.993 100.075C73.265 100.075 75.169 98.8266 75.169 96.6506C75.169 95.0826 74.145 94.1066 72.801 93.7226V93.6426C74.065 93.1626 74.769 92.2186 74.769 90.9546C74.769 88.9226 73.217 87.8026 70.929 87.8026C69.553 87.8026 68.417 88.3626 67.393 89.2426L68.593 90.6986C69.297 90.0426 69.985 89.6426 70.833 89.6426C71.841 89.6426 72.417 90.2026 72.417 91.1306C72.417 92.1866 71.713 92.9226 69.537 92.9226V94.6186C72.113 94.6186 72.801 95.3386 72.801 96.5066C72.801 97.5626 71.985 98.1706 70.769 98.1706C69.697 98.1706 68.849 97.6266 68.145 96.9386L67.025 98.4266C67.857 99.3866 69.121 100.075 70.993 100.075ZM80.7665 100.075C83.1505 100.075 84.7505 98.7146 84.7505 96.9226C84.7505 95.2906 83.8545 94.3466 82.7665 93.7546V93.6746C83.5345 93.1146 84.2865 92.1386 84.2865 90.9546C84.2865 89.0666 82.9425 87.8186 80.8465 87.8186C78.7825 87.8186 77.2625 89.0346 77.2625 90.9386C77.2625 92.1866 77.9345 93.0986 78.8305 93.7546V93.8186C77.7425 94.3946 76.8145 95.4026 76.8145 96.9226C76.8145 98.7786 78.4945 100.075 80.7665 100.075ZM81.5185 93.0986C80.2705 92.6026 79.3425 92.0426 79.3425 90.9386C79.3425 89.9946 79.9825 89.4666 80.7985 89.4666C81.7745 89.4666 82.3665 90.1386 82.3665 91.1146C82.3665 91.8186 82.0945 92.4906 81.5185 93.0986ZM80.8145 98.4106C79.7105 98.4106 78.8305 97.7226 78.8305 96.6506C78.8305 95.7706 79.2785 94.9706 79.9345 94.4586C81.4545 95.0986 82.5585 95.5946 82.5585 96.8266C82.5585 97.8506 81.8385 98.4106 80.8145 98.4106Z" fill="#404040"/>
<path d="M170.605 171.34H172.797V159.5H169.965L165.565 166.668V168.284H174.205V166.476H167.853L169.677 163.532C170.013 162.892 170.333 162.236 170.637 161.596H170.701C170.669 162.3 170.605 163.372 170.605 164.06V171.34ZM177.626 171.34H180.01C180.218 166.716 180.57 164.284 183.322 160.924V159.5H175.466V161.468H180.794C178.522 164.604 177.85 167.244 177.626 171.34ZM188.52 171.564C190.696 171.564 192.664 170.044 192.664 167.42C192.664 164.828 191 163.66 189.016 163.66C188.472 163.66 188.056 163.772 187.592 163.98L187.816 161.468H192.12V159.5H185.784L185.448 165.244L186.536 165.948C187.224 165.5 187.608 165.324 188.312 165.324C189.496 165.324 190.296 166.092 190.296 167.468C190.296 168.876 189.448 169.66 188.2 169.66C187.112 169.66 186.264 169.116 185.608 168.46L184.504 169.948C185.4 170.828 186.648 171.564 188.52 171.564Z" fill="#404040"/>
<path d="M273.618 171.34H275.81V159.5H272.978L268.578 166.668V168.284H277.218V166.476H270.866L272.69 163.532C273.026 162.892 273.346 162.236 273.65 161.596H273.714C273.682 162.3 273.618 163.372 273.618 164.06V171.34ZM280.64 171.34H283.024C283.232 166.716 283.584 164.284 286.336 160.924V159.5H278.48V161.468H283.808C281.536 164.604 280.864 167.244 280.64 171.34ZM291.485 171.564C293.757 171.564 295.661 170.316 295.661 168.14C295.661 166.572 294.637 165.596 293.293 165.212V165.132C294.557 164.652 295.261 163.708 295.261 162.444C295.261 160.412 293.709 159.292 291.421 159.292C290.045 159.292 288.909 159.852 287.885 160.732L289.085 162.188C289.789 161.532 290.477 161.132 291.325 161.132C292.333 161.132 292.909 161.692 292.909 162.62C292.909 163.676 292.205 164.412 290.029 164.412V166.108C292.605 166.108 293.293 166.828 293.293 167.996C293.293 169.052 292.477 169.66 291.261 169.66C290.189 169.66 289.341 169.116 288.637 168.428L287.517 169.916C288.349 170.876 289.613 171.564 291.485 171.564Z" fill="#404040"/>
<path d="M378.31 171.34H380.502V159.5H377.67L373.27 166.668V168.284H381.91V166.476H375.558L377.382 163.532C377.718 162.892 378.038 162.236 378.342 161.596H378.406C378.374 162.3 378.31 163.372 378.31 164.06V171.34ZM385.331 171.34H387.715C387.923 166.716 388.275 164.284 391.027 160.924V159.5H383.171V161.468H388.499C386.227 164.604 385.555 167.244 385.331 171.34ZM396.225 171.564C398.401 171.564 400.369 170.044 400.369 167.42C400.369 164.828 398.705 163.66 396.721 163.66C396.177 163.66 395.761 163.772 395.297 163.98L395.521 161.468H399.825V159.5H393.489L393.153 165.244L394.241 165.948C394.929 165.5 395.313 165.324 396.017 165.324C397.201 165.324 398.001 166.092 398.001 167.468C398.001 168.876 397.153 169.66 395.905 169.66C394.817 169.66 393.969 169.116 393.313 168.46L392.209 169.948C393.105 170.828 394.353 171.564 396.225 171.564Z" fill="#404040"/>
<path d="M482.829 197.947C485.101 197.947 487.005 196.699 487.005 194.523C487.005 192.955 485.981 191.979 484.637 191.595V191.515C485.901 191.035 486.605 190.091 486.605 188.827C486.605 186.795 485.053 185.675 482.765 185.675C481.389 185.675 480.253 186.235 479.229 187.115L480.429 188.571C481.133 187.915 481.821 187.515 482.669 187.515C483.677 187.515 484.253 188.075 484.253 189.003C484.253 190.059 483.549 190.795 481.373 190.795V192.491C483.949 192.491 484.637 193.211 484.637 194.379C484.637 195.435 483.821 196.043 482.605 196.043C481.533 196.043 480.685 195.499 479.981 194.811L478.861 196.299C479.693 197.259 480.957 197.947 482.829 197.947ZM492.938 197.947C494.954 197.947 496.666 196.427 496.666 193.995C496.666 191.451 495.242 190.283 493.258 190.283C492.458 190.283 491.354 190.795 490.73 191.675L490.826 193.275C491.418 192.299 492.17 191.947 492.826 191.947C493.834 191.947 494.506 192.587 494.506 193.995C494.506 195.435 493.786 196.171 492.906 196.171C491.738 196.171 490.842 195.035 490.842 191.963C490.842 188.667 491.978 187.563 493.418 187.563C494.09 187.563 494.826 187.947 495.226 188.411L496.49 187.019C495.77 186.267 494.714 185.675 493.274 185.675C490.874 185.675 488.682 187.563 488.682 191.963C488.682 196.139 490.698 197.947 492.938 197.947ZM498.008 197.723H505.944V195.739H503.384C502.824 195.739 502.04 195.819 501.448 195.883C503.608 193.771 505.4 191.467 505.4 189.307C505.4 187.099 503.896 185.675 501.672 185.675C500.056 185.675 498.984 186.299 497.896 187.467L499.192 188.747C499.8 188.075 500.488 187.515 501.368 187.515C502.504 187.515 503.128 188.251 503.128 189.435C503.128 191.259 501.24 193.483 498.008 196.379V197.723Z" fill="#404040"/>
<path d="M53.704 338.149H61.064V336.901H57.816C57.224 336.901 56.52 336.949 55.896 337.013C58.664 334.405 60.504 332.021 60.504 329.669C60.504 327.573 59.192 326.213 57.096 326.213C55.608 326.213 54.584 326.901 53.624 327.941L54.472 328.757C55.128 327.989 55.96 327.397 56.92 327.397C58.376 327.397 59.064 328.389 59.064 329.733C59.064 331.733 57.384 334.085 53.704 337.301V338.149ZM66.323 338.373C68.531 338.373 69.955 336.341 69.955 332.245C69.955 328.181 68.531 326.213 66.323 326.213C64.083 326.213 62.659 328.181 62.659 332.245C62.659 336.341 64.083 338.373 66.323 338.373ZM66.323 337.189C64.979 337.189 64.067 335.701 64.067 332.245C64.067 328.837 64.979 327.381 66.323 327.381C67.651 327.381 68.547 328.837 68.547 332.245C68.547 335.701 67.651 337.189 66.323 337.189ZM72.158 338.149H78.59V336.933H76.222V326.421H75.102C74.478 326.805 73.726 327.077 72.67 327.253V328.197H74.766V336.933H72.158V338.149ZM82.777 338.149H84.297C84.489 333.573 84.985 330.837 87.737 327.301V326.421H80.409V327.669H86.089C83.785 330.869 82.985 333.717 82.777 338.149ZM92.932 324.661C92.148 326.821 90.82 328.901 89.3 330.229C89.604 330.389 90.1 330.789 90.34 330.997C91.828 329.557 93.252 327.333 94.132 324.965L92.932 324.661ZM92.676 326.645L92.1 327.813H102.996V326.645H92.676ZM91.892 330.277V335.189H93.092V331.397H102.644V330.277H91.892ZM89.252 334.581V335.749H103.748V334.581H89.252ZM96.692 327.253V339.445H97.924V327.253H96.692Z" fill="#404040"/>
<path d="M156.72 338.149H164.08V336.901H160.832C160.24 336.901 159.536 336.949 158.912 337.013C161.68 334.405 163.52 332.021 163.52 329.669C163.52 327.573 162.208 326.213 160.112 326.213C158.624 326.213 157.6 326.901 156.64 327.941L157.488 328.757C158.144 327.989 158.976 327.397 159.936 327.397C161.392 327.397 162.08 328.389 162.08 329.733C162.08 331.733 160.4 334.085 156.72 337.301V338.149ZM169.339 338.373C171.547 338.373 172.971 336.341 172.971 332.245C172.971 328.181 171.547 326.213 169.339 326.213C167.099 326.213 165.675 328.181 165.675 332.245C165.675 336.341 167.099 338.373 169.339 338.373ZM169.339 337.189C167.995 337.189 167.083 335.701 167.083 332.245C167.083 328.837 167.995 327.381 169.339 327.381C170.667 327.381 171.563 328.837 171.563 332.245C171.563 335.701 170.667 337.189 169.339 337.189ZM175.174 338.149H181.606V336.933H179.238V326.421H178.118C177.494 326.805 176.742 327.077 175.686 327.253V328.197H177.782V336.933H175.174V338.149ZM187.105 338.373C189.297 338.373 190.785 337.045 190.785 335.333C190.785 333.733 189.825 332.837 188.801 332.245V332.165C189.505 331.621 190.369 330.581 190.369 329.333C190.369 327.541 189.153 326.261 187.153 326.261C185.313 326.261 183.921 327.445 183.921 329.221C183.921 330.453 184.657 331.349 185.521 331.941V332.005C184.449 332.581 183.361 333.669 183.361 335.253C183.361 337.061 184.945 338.373 187.105 338.373ZM187.905 331.797C186.529 331.253 185.265 330.629 185.265 329.221C185.265 328.101 186.049 327.333 187.121 327.333C188.385 327.333 189.121 328.261 189.121 329.413C189.121 330.293 188.705 331.093 187.905 331.797ZM187.137 337.269C185.729 337.269 184.673 336.357 184.673 335.109C184.673 333.989 185.329 333.061 186.289 332.453C187.937 333.125 189.377 333.717 189.377 335.285C189.377 336.453 188.481 337.269 187.137 337.269Z" fill="#404040"/>
<path d="M266.434 338.149H273.794V336.901H270.546C269.954 336.901 269.25 336.949 268.626 337.013C271.394 334.405 273.234 332.021 273.234 329.669C273.234 327.573 271.922 326.213 269.826 326.213C268.338 326.213 267.314 326.901 266.354 327.941L267.202 328.757C267.858 327.989 268.69 327.397 269.65 327.397C271.106 327.397 271.794 328.389 271.794 329.733C271.794 331.733 270.114 334.085 266.434 337.301V338.149ZM279.053 338.373C281.261 338.373 282.685 336.341 282.685 332.245C282.685 328.181 281.261 326.213 279.053 326.213C276.813 326.213 275.389 328.181 275.389 332.245C275.389 336.341 276.813 338.373 279.053 338.373ZM279.053 337.189C277.709 337.189 276.797 335.701 276.797 332.245C276.797 328.837 277.709 327.381 279.053 327.381C280.381 327.381 281.277 328.837 281.277 332.245C281.277 335.701 280.381 337.189 279.053 337.189ZM284.888 338.149H291.32V336.933H288.952V326.421H287.832C287.208 326.805 286.456 327.077 285.4 327.253V328.197H287.496V336.933H284.888V338.149ZM296.099 338.373C298.307 338.373 300.355 336.549 300.355 331.781C300.355 328.053 298.675 326.213 296.419 326.213C294.595 326.213 293.059 327.749 293.059 330.021C293.059 332.453 294.323 333.701 296.291 333.701C297.299 333.701 298.339 333.093 299.075 332.165L298.995 330.997C298.227 332.165 297.315 332.629 296.531 332.629C295.139 332.629 294.435 331.589 294.435 330.021C294.435 328.405 295.299 327.349 296.419 327.349C298.067 327.349 298.979 328.901 298.979 331.781C298.979 335.797 297.619 337.157 296.051 337.157C295.299 337.157 294.579 336.821 294.083 336.245L293.267 337.173C293.923 337.861 294.819 338.373 296.099 338.373Z" fill="#404040"/>
<path d="M371.962 338.149H379.322V336.901H376.074C375.482 336.901 374.778 336.949 374.154 337.013C376.922 334.405 378.762 332.021 378.762 329.669C378.762 327.573 377.45 326.213 375.354 326.213C373.866 326.213 372.842 326.901 371.882 327.941L372.73 328.757C373.386 327.989 374.218 327.397 375.178 327.397C376.634 327.397 377.322 328.389 377.322 329.733C377.322 331.733 375.642 334.085 371.962 337.301V338.149ZM384.581 338.373C386.789 338.373 388.213 336.341 388.213 332.245C388.213 328.181 386.789 326.213 384.581 326.213C382.341 326.213 380.917 328.181 380.917 332.245C380.917 336.341 382.341 338.373 384.581 338.373ZM384.581 337.189C383.237 337.189 382.325 335.701 382.325 332.245C382.325 328.837 383.237 327.381 384.581 327.381C385.909 327.381 386.805 328.837 386.805 332.245C386.805 335.701 385.909 337.189 384.581 337.189ZM389.712 338.149H397.072V336.901H393.824C393.232 336.901 392.528 336.949 391.904 337.013C394.672 334.405 396.512 332.021 396.512 329.669C396.512 327.573 395.2 326.213 393.104 326.213C391.616 326.213 390.592 326.901 389.632 327.941L390.48 328.757C391.136 327.989 391.968 327.397 392.928 327.397C394.384 327.397 395.072 328.389 395.072 329.733C395.072 331.733 393.392 334.085 389.712 337.301V338.149ZM402.331 338.373C404.539 338.373 405.963 336.341 405.963 332.245C405.963 328.181 404.539 326.213 402.331 326.213C400.091 326.213 398.667 328.181 398.667 332.245C398.667 336.341 400.091 338.373 402.331 338.373ZM402.331 337.189C400.987 337.189 400.075 335.701 400.075 332.245C400.075 328.837 400.987 327.381 402.331 327.381C403.659 327.381 404.555 328.837 404.555 332.245C404.555 335.701 403.659 337.189 402.331 337.189Z" fill="#404040"/>
<path d="M478.327 338.149H485.687V336.901H482.439C481.847 336.901 481.143 336.949 480.519 337.013C483.287 334.405 485.127 332.021 485.127 329.669C485.127 327.573 483.815 326.213 481.719 326.213C480.231 326.213 479.207 326.901 478.247 327.941L479.095 328.757C479.751 327.989 480.583 327.397 481.543 327.397C482.999 327.397 483.687 328.389 483.687 329.733C483.687 331.733 482.007 334.085 478.327 337.301V338.149ZM490.946 338.373C493.154 338.373 494.578 336.341 494.578 332.245C494.578 328.181 493.154 326.213 490.946 326.213C488.706 326.213 487.282 328.181 487.282 332.245C487.282 336.341 488.706 338.373 490.946 338.373ZM490.946 337.189C489.602 337.189 488.69 335.701 488.69 332.245C488.69 328.837 489.602 327.381 490.946 327.381C492.274 327.381 493.17 328.837 493.17 332.245C493.17 335.701 492.274 337.189 490.946 337.189ZM496.077 338.149H503.437V336.901H500.189C499.597 336.901 498.893 336.949 498.269 337.013C501.037 334.405 502.877 332.021 502.877 329.669C502.877 327.573 501.565 326.213 499.469 326.213C497.981 326.213 496.957 326.901 495.997 327.941L496.845 328.757C497.501 327.989 498.333 327.397 499.293 327.397C500.749 327.397 501.437 328.389 501.437 329.733C501.437 331.733 499.757 334.085 496.077 337.301V338.149ZM505.656 338.149H512.088V336.933H509.72V326.421H508.6C507.976 326.805 507.224 327.077 506.168 327.253V328.197H508.264V336.933H505.656V338.149Z" fill="#404040"/>
<path d="M40.0244 321.351C42.2324 321.351 43.6564 319.319 43.6564 315.223C43.6564 311.159 42.2324 309.191 40.0244 309.191C37.7844 309.191 36.3604 311.159 36.3604 315.223C36.3604 319.319 37.7844 321.351 40.0244 321.351ZM40.0244 320.167C38.6804 320.167 37.7684 318.679 37.7684 315.223C37.7684 311.815 38.6804 310.359 40.0244 310.359C41.3524 310.359 42.2484 311.815 42.2484 315.223C42.2484 318.679 41.3524 320.167 40.0244 320.167Z" fill="#404040"/>
<path d="M18.4501 265.808H25.8101V264.56H22.5621C21.9701 264.56 21.2661 264.608 20.6421 264.672C23.4101 262.064 25.2501 259.68 25.2501 257.328C25.2501 255.232 23.9381 253.872 21.8421 253.872C20.3541 253.872 19.3301 254.56 18.3701 255.6L19.2181 256.416C19.8741 255.648 20.7061 255.056 21.6661 255.056C23.1221 255.056 23.8101 256.048 23.8101 257.392C23.8101 259.392 22.1301 261.744 18.4501 264.96V265.808ZM31.0691 266.032C33.2771 266.032 34.7011 264 34.7011 259.904C34.7011 255.84 33.2771 253.872 31.0691 253.872C28.8291 253.872 27.4051 255.84 27.4051 259.904C27.4051 264 28.8291 266.032 31.0691 266.032ZM31.0691 264.848C29.7251 264.848 28.8131 263.36 28.8131 259.904C28.8131 256.496 29.7251 255.04 31.0691 255.04C32.3971 255.04 33.2931 256.496 33.2931 259.904C33.2931 263.36 32.3971 264.848 31.0691 264.848ZM39.9441 266.032C42.1521 266.032 43.5761 264 43.5761 259.904C43.5761 255.84 42.1521 253.872 39.9441 253.872C37.7041 253.872 36.2801 255.84 36.2801 259.904C36.2801 264 37.7041 266.032 39.9441 266.032ZM39.9441 264.848C38.6001 264.848 37.6881 263.36 37.6881 259.904C37.6881 256.496 38.6001 255.04 39.9441 255.04C41.2721 255.04 42.1681 256.496 42.1681 259.904C42.1681 263.36 41.2721 264.848 39.9441 264.848Z" fill="#404040"/>
<path d="M23.1701 210.489H24.5461V198.761H22.9301L18.0501 206.297V207.257H26.1141V206.105H19.5861L22.2581 202.105C22.5781 201.529 22.8981 200.937 23.1861 200.361H23.2661C23.2181 200.969 23.1701 201.913 23.1701 202.505V210.489ZM31.0691 210.713C33.2771 210.713 34.7011 208.681 34.7011 204.585C34.7011 200.521 33.2771 198.553 31.0691 198.553C28.8291 198.553 27.4051 200.521 27.4051 204.585C27.4051 208.681 28.8291 210.713 31.0691 210.713ZM31.0691 209.529C29.7251 209.529 28.8131 208.041 28.8131 204.585C28.8131 201.177 29.7251 199.721 31.0691 199.721C32.3971 199.721 33.2931 201.177 33.2931 204.585C33.2931 208.041 32.3971 209.529 31.0691 209.529ZM39.9441 210.713C42.1521 210.713 43.5761 208.681 43.5761 204.585C43.5761 200.521 42.1521 198.553 39.9441 198.553C37.7041 198.553 36.2801 200.521 36.2801 204.585C36.2801 208.681 37.7041 210.713 39.9441 210.713ZM39.9441 209.529C38.6001 209.529 37.6881 208.041 37.6881 204.585C37.6881 201.177 38.6001 199.721 39.9441 199.721C41.2721 199.721 42.1681 201.177 42.1681 204.585C42.1681 208.041 41.2721 209.529 39.9441 209.529Z" fill="#404040"/>
<path d="M22.5621 155.394C24.3701 155.394 25.9221 153.858 25.9221 151.586C25.9221 149.122 24.6421 147.906 22.6581 147.906C21.7141 147.906 20.6261 148.482 19.9061 149.426L19.9541 150.594C20.7381 149.426 21.6821 148.978 22.4341 148.978C23.8421 148.978 24.5461 149.986 24.5461 151.586C24.5461 153.17 23.6821 154.242 22.5621 154.242C20.9141 154.242 20.0021 152.594 20.0021 149.586C20.0021 145.746 21.3781 144.45 23.0261 144.45C23.7301 144.45 24.4501 144.786 24.8981 145.33L25.7141 144.434C25.0741 143.746 24.1781 143.234 22.9621 143.234C20.6901 143.234 18.6261 144.994 18.6261 149.586C18.6261 153.458 20.3061 155.394 22.5621 155.394ZM31.0691 155.394C33.2771 155.394 34.7011 153.362 34.7011 149.266C34.7011 145.202 33.2771 143.234 31.0691 143.234C28.8291 143.234 27.4051 145.202 27.4051 149.266C27.4051 153.362 28.8291 155.394 31.0691 155.394ZM31.0691 154.21C29.7251 154.21 28.8131 152.722 28.8131 149.266C28.8131 145.858 29.7251 144.402 31.0691 144.402C32.3971 144.402 33.2931 145.858 33.2931 149.266C33.2931 152.722 32.3971 154.21 31.0691 154.21ZM39.9441 155.394C42.1521 155.394 43.5761 153.362 43.5761 149.266C43.5761 145.202 42.1521 143.234 39.9441 143.234C37.7041 143.234 36.2801 145.202 36.2801 149.266C36.2801 153.362 37.7041 155.394 39.9441 155.394ZM39.9441 154.21C38.6001 154.21 37.6881 152.722 37.6881 149.266C37.6881 145.858 38.6001 144.402 39.9441 144.402C41.2721 144.402 42.1681 145.858 42.1681 149.266C42.1681 152.722 41.2721 154.21 39.9441 154.21Z" fill="#404040"/>
<path d="M22.2101 100.075C24.4021 100.075 25.8901 98.7466 25.8901 97.0346C25.8901 95.4346 24.9301 94.5386 23.9061 93.9466V93.8666C24.6101 93.3226 25.4741 92.2826 25.4741 91.0346C25.4741 89.2426 24.2581 87.9626 22.2581 87.9626C20.4181 87.9626 19.0261 89.1466 19.0261 90.9226C19.0261 92.1546 19.7621 93.0506 20.6261 93.6426V93.7066C19.5541 94.2826 18.4661 95.3706 18.4661 96.9546C18.4661 98.7626 20.0501 100.075 22.2101 100.075ZM23.0101 93.4986C21.6341 92.9546 20.3701 92.3306 20.3701 90.9226C20.3701 89.8026 21.1541 89.0346 22.2261 89.0346C23.4901 89.0346 24.2261 89.9626 24.2261 91.1146C24.2261 91.9946 23.8101 92.7946 23.0101 93.4986ZM22.2421 98.9706C20.8341 98.9706 19.7781 98.0586 19.7781 96.8106C19.7781 95.6906 20.4341 94.7626 21.3941 94.1546C23.0421 94.8266 24.4821 95.4186 24.4821 96.9866C24.4821 98.1546 23.5861 98.9706 22.2421 98.9706ZM31.0691 100.075C33.2771 100.075 34.7011 98.0426 34.7011 93.9466C34.7011 89.8826 33.2771 87.9146 31.0691 87.9146C28.8291 87.9146 27.4051 89.8826 27.4051 93.9466C27.4051 98.0426 28.8291 100.075 31.0691 100.075ZM31.0691 98.8906C29.7251 98.8906 28.8131 97.4026 28.8131 93.9466C28.8131 90.5386 29.7251 89.0826 31.0691 89.0826C32.3971 89.0826 33.2931 90.5386 33.2931 93.9466C33.2931 97.4026 32.3971 98.8906 31.0691 98.8906ZM39.9441 100.075C42.1521 100.075 43.5761 98.0426 43.5761 93.9466C43.5761 89.8826 42.1521 87.9146 39.9441 87.9146C37.7041 87.9146 36.2801 89.8826 36.2801 93.9466C36.2801 98.0426 37.7041 100.075 39.9441 100.075ZM39.9441 98.8906C38.6001 98.8906 37.6881 97.4026 37.6881 93.9466C37.6881 90.5386 38.6001 89.0826 39.9441 89.0826C41.2721 89.0826 42.1681 90.5386 42.1681 93.9466C42.1681 97.4026 41.2721 98.8906 39.9441 98.8906Z" fill="#404040"/>
<path d="M25.0031 62.7059V63.9219H29.5311V62.7059H25.0031ZM28.9231 62.7059C28.9231 65.7139 29.4511 72.5299 35.8511 76.4019C36.0751 76.1139 36.5551 75.6019 36.8271 75.3939C30.5071 71.6499 30.1551 65.5699 30.1551 62.7059H28.9231ZM28.4751 65.8419C27.4991 70.3699 25.4991 73.6019 21.9471 75.4579C22.2671 75.6819 22.8111 76.1779 23.0351 76.4339C26.5711 74.3539 28.6831 70.9779 29.8351 66.0979L28.4751 65.8419ZM43.7551 64.0979V65.2179H52.5551V64.0979H43.7551ZM45.8991 65.6339C45.3391 66.7539 44.2991 68.1139 43.2591 68.9619C43.5151 69.1539 43.8991 69.4739 44.0911 69.6979C45.1791 68.7539 46.2511 67.3939 46.9711 66.1139L45.8991 65.6339ZM48.8591 66.1779C49.9151 67.1859 51.1151 68.6419 51.6271 69.6019L52.5231 68.8659C51.9791 67.9219 50.7471 66.5299 49.7071 65.5219L48.8591 66.1779ZM46.0751 68.5139L45.0351 68.7859C46.3151 72.3699 48.6351 75.1059 51.9951 76.3539C52.1711 76.0179 52.5391 75.5379 52.8111 75.2979C49.5631 74.2419 47.2111 71.6979 46.0751 68.5139ZM46.5391 62.0819C47.0671 62.6899 47.5951 63.5539 47.8351 64.1139L48.9071 63.6019C48.6511 63.0419 48.1071 62.2419 47.5631 61.6499L46.5391 62.0819ZM38.3631 65.1219V66.2579H43.3551V65.1219H38.3631ZM40.4591 61.7299V76.4339H41.5631V61.7299H40.4591ZM40.3311 65.7939C39.8991 68.0979 38.8751 70.9139 37.8351 72.3539C38.0591 72.6579 38.3471 73.1699 38.4751 73.5059C39.5631 71.8739 40.5871 68.6579 41.0671 66.0659L40.3311 65.7939ZM41.5311 66.8499L40.9551 67.3459C41.3551 68.0499 42.3951 70.0979 42.7311 70.9619L43.4671 70.0499C43.1791 69.5219 41.8671 67.3299 41.5311 66.8499ZM49.5311 68.4339C48.6511 71.7299 46.4751 74.1139 43.1471 75.5699C43.3871 75.7779 43.7551 76.2099 43.9151 76.4659C47.4191 74.8979 49.6431 72.3539 50.6991 68.7219L49.5311 68.4339ZM60.6831 61.7939C60.6191 64.2579 60.7151 72.0819 54.0431 75.4579C54.4111 75.7139 54.8111 76.0819 55.0191 76.4019C61.8191 72.7539 61.9471 64.6259 62.0111 61.7939H60.6831ZM61.8671 63.7619L60.7151 63.8899C60.9391 65.2819 61.5951 73.3779 67.9311 76.3379C68.1071 76.0019 68.4591 75.5859 68.8111 75.3139C62.6671 72.5779 62.0111 64.9139 61.8671 63.7619ZM79.6591 64.8979V65.9859H84.7311V64.8979H79.6591ZM80.2031 61.7299C79.7231 64.4339 78.9231 67.1539 77.8031 68.9139C78.0431 69.0739 78.4751 69.4579 78.6511 69.6499C79.7871 67.7299 80.6831 64.8339 81.2271 61.9379L80.2031 61.7299ZM82.4751 65.5539C81.9631 70.6419 80.6031 73.8259 76.9391 75.5699C77.1311 75.7779 77.4511 76.2419 77.5631 76.4819C81.4191 74.4659 82.9231 71.1379 83.5471 65.6499L82.4751 65.5539ZM80.1231 66.0179L79.2431 66.1459C79.9151 70.8179 81.2111 74.6099 84.0751 76.3859C84.2511 76.0819 84.6031 75.6659 84.8591 75.4579C82.0751 73.9379 80.7311 70.2899 80.1231 66.0179ZM73.8191 61.7299V70.1299H74.7791V61.7299H73.8191ZM72.1071 63.6179H76.6031V66.3379H72.1071V63.6179ZM71.1631 62.7699V67.1699H77.5951V62.7699H71.1631ZM71.8191 68.6419H76.8591V69.7139H71.8191V68.6419ZM70.7951 67.8739V70.4819H77.9151V67.8739H70.7951ZM70.0591 64.4339V65.3619H71.5631V65.3139H76.9071V65.3619H78.5071V64.4339H76.9071V64.4819H71.5631V64.4339H70.0591ZM71.1631 73.8099L72.2031 74.0019C72.8751 73.0739 73.8031 71.5699 74.3631 70.2739L73.3551 70.0499C72.8431 71.2979 71.9151 72.8179 71.1631 73.8099ZM71.1631 73.8099C73.0671 74.3059 75.3871 75.2819 76.6351 76.0339L77.4191 75.3139C76.1231 74.5939 73.8191 73.6339 71.9631 73.1379L71.1631 73.8099ZM75.7711 70.8659V71.3939C75.7711 72.6739 75.3231 74.5779 69.9471 75.6339C70.1391 75.8419 70.3791 76.2099 70.4751 76.4339C76.1711 75.2659 76.7631 73.0739 76.7631 71.4259V70.8659H75.7711ZM70.0751 71.5059V72.3859H78.3791V71.5059H70.0751Z" fill="#404040"/>
</svg>
